<?xml version="1.0" standalone="no"?>
<!DOCTYPE svg PUBLIC "-//W3C//DTD SVG 1.1//EN" "http://www.w3.org/Graphics/SVG/1.1/DTD/svg11.dtd" >
<svg xmlns="http://www.w3.org/2000/svg" xmlns:xlink="http://www.w3.org/1999/xlink" version="1.1">
<metadata>
Created by FontForge 20170731 at Tue Jun  8 09:20:47 2021
 By Aleksey,,,
Core Sans A 65 Bold
</metadata>
<defs>
<font id="CoreSansA65Bold" horiz-adv-x="880" >
  <font-face 
    font-family="Core Sans A 65 Bold"
    font-weight="400"
    font-stretch="normal"
    units-per-em="2048"
    panose-1="2 11 8 3 3 3 2 2 2 4"
    ascent="1638"
    descent="-410"
    x-height="1061"
    cap-height="1434"
    bbox="-874 -557 2296 2068"
    underline-thickness="49"
    underline-position="-472"
    unicode-range="U+0008-FB04"
  />
<missing-glyph horiz-adv-x="1024" 
d="M881 0h-738v1536h738v-1536zM297 133h430v1270h-430v-1270z" />
    <glyph glyph-name="f_f" unicode="ff" horiz-adv-x="1507" 
d="M1300 1495q96 0 181 -12v-226q-92 5 -113 5q-89 0 -124.5 -33.5t-35.5 -106.5v-61h252v-240h-252v-821h-311v821h-375v-821h-311v821h-182v240h182v74q0 186 98 273t305 87q62 0 174 -10v-230q-58 7 -106 7q-89 0 -124.5 -33.5t-35.5 -106.5v-61h375v74q0 186 98 273
t305 87z" />
    <glyph glyph-name="f_i" unicode="fi" horiz-adv-x="1359" 
d="M614 1495q111 0 150 -6v-232q-67 5 -92 5q-82 0 -116 -33.5t-34 -106.5v-61h695v-1061h-312v821h-383v-821h-311v821h-182v240h182v74q0 187 96.5 273.5t306.5 86.5zM1245 1348q0 -76 -53.5 -128.5t-130.5 -52.5t-130.5 52.5t-53.5 128.5t53.5 128t130.5 52t130.5 -52
t53.5 -128z" />
    <glyph glyph-name="f_l" unicode="fl" horiz-adv-x="1343" 
d="M598 1495q149 0 293 -41v41h311v-1495h-311v1241q-119 21 -219 21q-82 0 -116 -33.5t-34 -106.5v-61h246v-240h-246v-821h-311v821h-182v240h182v74q0 187 91.5 273.5t295.5 86.5z" />
    <glyph glyph-name="f_f_i" unicode="ffi" horiz-adv-x="2045" 
d="M1300 1495q111 0 150 -6v-232q-68 5 -92 5q-82 0 -116 -33.5t-34 -106.5v-61h695v-1061h-312v821h-383v-821h-311v821h-375v-821h-311v821h-182v240h182v74q0 186 98 273t305 87q62 0 174 -10v-230q-58 7 -106 7q-89 0 -124.5 -33.5t-35.5 -106.5v-61h375v74
q0 187 96.5 273.5t306.5 86.5zM1931 1348q0 -76 -53.5 -128.5t-130.5 -52.5t-130.5 52.5t-53.5 128.5t53.5 128t130.5 52t130.5 -52t53.5 -128z" />
    <glyph glyph-name="f_f_l" unicode="ffl" horiz-adv-x="2029" 
d="M1284 1495q149 0 293 -41v41h311v-1495h-311v1241q-119 21 -219 21q-82 0 -116 -33.5t-34 -106.5v-61h246v-240h-246v-821h-311v821h-375v-821h-311v821h-182v240h182v74q0 186 98 273t305 87q62 0 174 -10v-230q-58 7 -106 7q-89 0 -124.5 -33.5t-35.5 -106.5v-61h375
v74q0 187 91.5 273.5t295.5 86.5z" />
    <glyph glyph-name=".notdef" horiz-adv-x="1024" 
d="M881 0h-738v1536h738v-1536zM297 133h430v1270h-430v-1270z" />
    <glyph glyph-name=".null" horiz-adv-x="0" 
 />
    <glyph glyph-name=".null" horiz-adv-x="0" 
 />
    <glyph glyph-name=".null" horiz-adv-x="0" 
 />
    <glyph glyph-name="nonmarkingreturn" horiz-adv-x="682" 
 />
    <glyph glyph-name="CR" unicode="&#x9;" horiz-adv-x="485" 
 />
    <glyph glyph-name="CR" unicode="&#xd;" horiz-adv-x="485" 
 />
    <glyph glyph-name="space" unicode=" " horiz-adv-x="614" 
 />
    <glyph glyph-name="exclam" unicode="!" horiz-adv-x="643" 
d="M154 1434h335v-349l-47 -686h-241l-47 686v349zM322 -25q-69 0 -117.5 49t-48.5 119t48.5 119t117.5 49t117 -49t48 -119t-48 -119t-117 -49z" />
    <glyph glyph-name="quotedbl" unicode="&#x22;" horiz-adv-x="1101" 
d="M221 854l-31 580h287v-70l-57 -510h-199zM655 854l-28 580h284v-70l-57 -510h-199z" />
    <glyph glyph-name="numbersign" unicode="#" horiz-adv-x="1505" 
d="M958 1114l56 320h278l-55 -320h203v-227h-242l-57 -336h213v-227h-252l-53 -324h-279l53 324h-276l-55 -324h-279l55 324h-202v227h241l58 336h-213v227h251l54 320h278l-53 -320h276zM920 887h-277l-57 -336h276z" />
    <glyph glyph-name="dollar" unicode="$" horiz-adv-x="1275" 
d="M588 1458v180h147v-190q253 -40 406 -221l-219 -162q-76 88 -187 119v-328q123 -39 205 -78.5t142 -92.5t87 -121t27 -158q0 -180 -123.5 -294.5t-337.5 -131.5v-181h-147v181q-327 25 -525 251l234 172q125 -138 291 -161v352q-244 81 -353.5 192t-109.5 267
q0 176 122.5 287t340.5 118zM866 383q0 57 -29.5 96t-101.5 66v-299q63 15 97 50.5t34 86.5zM455 1065q0 -104 133 -156v283q-66 -10 -99.5 -43t-33.5 -84z" />
    <glyph glyph-name="percent" unicode="%" horiz-adv-x="1851" 
d="M1499 1362l-997 -1393l-150 103l998 1392zM840 1081q0 -164 -93.5 -265t-250.5 -101t-250.5 101t-93.5 265t93.5 265.5t250.5 101.5t250.5 -101.5t93.5 -265.5zM385 1081q0 -163 111 -163q110 0 110 163q0 164 -110 164q-111 0 -111 -164zM1700 352q0 -164 -93.5 -265
t-250.5 -101t-250.5 101t-93.5 265t93.5 265.5t250.5 101.5t250.5 -101.5t93.5 -265.5zM1245 352q0 -164 111 -164q110 0 110 164t-110 164q-111 0 -111 -164z" />
    <glyph glyph-name="ampersand" unicode="&#x26;" horiz-adv-x="1417" 
d="M1368 0h-348l-76 86q-160 -111 -366 -111q-212 0 -348 109t-136 281q0 126 64.5 218.5t201.5 166.5q-76 95 -112.5 174t-36.5 172q0 164 112.5 263t301.5 99q175 0 291 -100t116 -266q0 -119 -76.5 -217.5t-203.5 -165.5l219 -258q87 122 129 237l243 -113
q-79 -192 -200 -319zM395 383q0 -73 55.5 -119.5t163.5 -46.5q79 0 164 55l-260 299q-123 -83 -123 -188zM758 1094q0 59 -36.5 98t-94.5 39q-62 0 -97.5 -39.5t-35.5 -97.5v-11q0 -80 75 -168l33 -38q156 97 156 217z" />
    <glyph glyph-name="quotesingle" unicode="'" horiz-adv-x="647" 
d="M211 854l-31 580h287v-70l-57 -510h-199z" />
    <glyph glyph-name="parenleft" unicode="(" horiz-adv-x="802" 
d="M188 635q0 254 84.5 487.5t243.5 427.5l201 -98q-252 -375 -252 -817t252 -817l-201 -99q-158 194 -243 428t-85 488z" />
    <glyph glyph-name="parenright" unicode=")" horiz-adv-x="802" 
d="M614 635q0 -254 -84.5 -488t-242.5 -428l-201 99q252 375 252 817t-252 817l201 98q158 -194 242.5 -427.5t84.5 -487.5z" />
    <glyph glyph-name="asterisk" unicode="*" horiz-adv-x="1136" 
d="M1024 801l-268 -121l268 -123l-121 -213l-241 172l28 -293h-244l29 293l-239 -172l-123 213l268 123l-268 121l123 213l239 -172l-29 295h244l-28 -295l241 172z" />
    <glyph glyph-name="plus" unicode="+" horiz-adv-x="1261" 
d="M498 164v405h-385v219h385v404h266v-404h385v-219h-385v-405h-266z" />
    <glyph glyph-name="comma" unicode="," horiz-adv-x="643" 
d="M76 -264l170 596l258 -86l-232 -572z" />
    <glyph glyph-name="hyphen" unicode="-" horiz-adv-x="827" 
d="M715 559h-602v240h602v-240z" />
    <glyph glyph-name="period" unicode="." horiz-adv-x="643" 
d="M156 143q0 70 48.5 119t117.5 49t117 -49t48 -119t-48 -119t-117 -49t-117.5 49t-48.5 119z" />
    <glyph glyph-name="slash" unicode="/" horiz-adv-x="1095" 
d="M1092 1442l-867 -1712l-221 131l864 1710z" />
    <glyph glyph-name="zero" unicode="0" horiz-adv-x="1286" 
d="M1196 717q0 -221 -60 -385.5t-186 -260.5t-307 -96t-307 96t-186 260.5t-60 385.5q0 164 34.5 299t102 234t174 153.5t242.5 54.5t242.5 -54.5t174 -153.5t102 -234t34.5 -299zM866 717q0 469 -223 469t-223 -469t223 -469t223 469z" />
    <glyph glyph-name="one" unicode="1" horiz-adv-x="1286" 
d="M573 0v1073l-235 -170l-178 197l450 334h281v-1434h-318z" />
    <glyph glyph-name="two" unicode="2" horiz-adv-x="1286" 
d="M633 1458q228 0 359.5 -115.5t131.5 -324.5q0 -98 -43 -202t-118.5 -201t-162 -181.5t-190.5 -165.5h535v-268h-987v240q101 81 179.5 148t168.5 155t149 162t98.5 154t39.5 147q0 77 -47 123.5t-128 46.5q-164 0 -284 -142l-223 156q91 125 228 196.5t294 71.5z" />
    <glyph glyph-name="three" unicode="3" horiz-adv-x="1286" 
d="M625 1458q214 0 344.5 -103.5t130.5 -277.5q0 -120 -64 -206.5t-162 -122.5q131 -42 203 -130.5t72 -220.5q0 -185 -143 -303.5t-390 -118.5q-169 0 -308 62t-232 172l209 170q128 -143 301 -143q106 0 168.5 48t62.5 132q0 101 -73 150.5t-197 49.5h-146v248h142
q106 0 170.5 47t64.5 129q0 72 -49 114t-137 42q-74 0 -144 -33.5t-124 -93.5l-207 166q96 108 227.5 165.5t280.5 57.5z" />
    <glyph glyph-name="four" unicode="4" horiz-adv-x="1286" 
d="M721 268h-658v236l670 930h297v-918h180v-248h-180v-268h-309v268zM721 975l-332 -459h332v459z" />
    <glyph glyph-name="five" unicode="5" horiz-adv-x="1286" 
d="M297 623l-82 51v760h868v-258h-557v-277q73 21 172 21q94 0 177.5 -32.5t146.5 -91.5t100 -149t37 -198q0 -207 -141.5 -340.5t-388.5 -133.5q-163 0 -296.5 61.5t-221.5 176.5l213 166q118 -141 280 -141q99 0 162 60t63 151q0 104 -72 162.5t-194 58.5q-136 0 -266 -47
z" />
    <glyph glyph-name="six" unicode="6" horiz-adv-x="1286" 
d="M696 1196q-228 0 -252 -356q126 104 293 104q204 0 331.5 -132.5t127.5 -352.5q0 -217 -142.5 -350.5t-375.5 -133.5q-266 0 -412.5 174t-146.5 529q0 392 146 586t413 194q146 0 263.5 -60.5t195.5 -176.5l-222 -140q-83 115 -219 115zM662 686q-124 0 -222 -92
q7 -192 67 -274t163 -82q99 0 153 59.5t54 165.5q0 104 -55.5 163.5t-159.5 59.5z" />
    <glyph glyph-name="seven" unicode="7" horiz-adv-x="1286" 
d="M1137 1171l-521 -1171h-348l520 1165h-659v269h1008v-263z" />
    <glyph glyph-name="eight" unicode="8" horiz-adv-x="1286" 
d="M150 1061q0 177 132.5 287t354.5 110q225 0 360.5 -110t135.5 -277q0 -99 -46.5 -183t-132.5 -136q238 -129 238 -355q0 -189 -149.5 -304.5t-401.5 -115.5q-250 0 -400.5 115t-150.5 309q0 114 57 207.5t164 151.5q-161 127 -161 301zM418 410q0 -85 63 -135t164 -50
q99 0 160 42.5t61 113.5q0 76 -67 128.5t-258 123.5q-59 -39 -91 -97.5t-32 -125.5zM821 1042q0 75 -48 120.5t-130 45.5t-129 -40.5t-47 -104.5q0 -58 55.5 -103.5t198.5 -101.5q100 69 100 184z" />
    <glyph glyph-name="nine" unicode="9" horiz-adv-x="1286" 
d="M567 238q245 0 275 352q-127 -101 -291 -101q-204 0 -331.5 132.5t-127.5 351.5q0 218 142.5 351.5t377.5 133.5q262 0 409.5 -173t147.5 -521q0 -200 -43 -352.5t-122.5 -247t-187.5 -142t-243 -47.5q-261 0 -432 168l193 187q103 -92 233 -92zM627 748q123 0 219 90
q-3 101 -21 172t-49.5 111t-70 57.5t-87.5 17.5q-99 0 -152.5 -59t-53.5 -166q0 -106 55.5 -164.5t159.5 -58.5z" />
    <glyph glyph-name="colon" unicode=":" horiz-adv-x="643" 
d="M156 143q0 70 48.5 119t117.5 49t117 -49t48 -119t-48 -119t-117 -49t-117.5 49t-48.5 119zM156 915q0 70 48.5 119t117.5 49t117 -49t48 -119t-48 -118.5t-117 -48.5t-117.5 48.5t-48.5 118.5z" />
    <glyph glyph-name="semicolon" unicode=";" horiz-adv-x="643" 
d="M156 915q0 70 48.5 119t117.5 49t117 -49t48 -119t-48 -118.5t-117 -48.5t-117.5 48.5t-48.5 118.5zM43 -264l170 596l258 -86l-231 -572z" />
    <glyph glyph-name="less" unicode="&#x3c;" horiz-adv-x="1261" 
d="M203 580v196l735 457l121 -211l-559 -344l559 -344l-121 -211z" />
    <glyph glyph-name="equal" unicode="=" horiz-adv-x="1261" 
d="M1149 809h-1036v219h1036v-219zM1149 330h-1036v219h1036v-219z" />
    <glyph glyph-name="greater" unicode="&#x3e;" horiz-adv-x="1261" 
d="M1059 776v-196l-735 -457l-121 211l559 344l-559 344l121 211z" />
    <glyph glyph-name="question" unicode="?" horiz-adv-x="1146" 
d="M559 1458q211 0 334 -100.5t123 -276.5q0 -119 -56.5 -212.5t-179.5 -180.5q-64 -44 -87 -88.5t-23 -118.5v-82h-324v111q0 116 45.5 199.5t151.5 152.5q78 52 110.5 98t32.5 101q0 60 -41 92.5t-117 32.5q-64 0 -125.5 -32t-105.5 -85l-213 170q189 219 475 219z
M508 -25q-69 0 -117.5 49t-48.5 119t48.5 119t117.5 49t117.5 -49t48.5 -119t-48.5 -119t-117.5 -49z" />
    <glyph glyph-name="at" unicode="@" horiz-adv-x="1988" 
d="M518 555q0 207 102 332t289 125q146 0 256 -107v82h267v-575q0 -136 104 -136q158 0 158 324q0 153 -53.5 286.5t-146.5 228t-222.5 148.5t-276.5 54q-145 0 -273.5 -54.5t-222.5 -151.5t-149 -239.5t-55 -310.5q0 -167 54.5 -309t148 -239.5t222.5 -152.5t275 -55
q126 0 245.5 39.5t207.5 112.5l86 -119q-105 -83 -247 -128.5t-292 -45.5q-190 0 -352 70t-273 191t-173 285.5t-62 350.5t62 350.5t172.5 285.5t272.5 191t353 70q192 0 354.5 -68.5t272 -185.5t170.5 -274t61 -332q0 -222 -98 -357t-287 -135q-196 0 -272 130
q-52 -64 -130 -101t-157 -37q-188 0 -289.5 124.5t-101.5 332.5zM973 293q106 0 192 92v338q-88 94 -192 94q-103 0 -146 -67t-43 -195t43 -195t146 -67z" />
    <glyph glyph-name="A" unicode="A" horiz-adv-x="1478" 
d="M942 1434l500 -1434h-348l-95 295h-522l-92 -295h-348l500 1434h405zM739 1126l-180 -573h361z" />
    <glyph glyph-name="B" unicode="B" horiz-adv-x="1343" 
d="M152 0v1434h534q251 0 380.5 -105.5t129.5 -286.5q0 -101 -53 -179.5t-150 -108.5q130 -29 202.5 -118t72.5 -214q0 -197 -135 -309.5t-414 -112.5h-567zM940 432q0 184 -248 184h-219v-368h219q248 0 248 184zM887 1024q0 162 -221 162h-193v-330h193q108 0 164.5 43
t56.5 125z" />
    <glyph glyph-name="C" unicode="C" horiz-adv-x="1449" 
d="M84 717q0 336 192 538.5t506 202.5q201 0 360 -87t249 -245l-271 -133q-117 193 -325 193q-167 0 -274 -123.5t-107 -345.5t107 -345.5t274 -123.5q208 0 325 192l271 -133q-90 -158 -249 -245t-360 -87q-314 0 -506 203t-192 539z" />
    <glyph glyph-name="D" unicode="D" horiz-adv-x="1460" 
d="M477 1165v-897h187q177 0 278.5 114.5t101.5 334.5t-101.5 334t-278.5 114h-187zM1374 717q0 -212 -84 -374t-243 -252.5t-371 -90.5h-524v1434h524q319 0 508.5 -198t189.5 -519z" />
    <glyph glyph-name="E" unicode="E" horiz-adv-x="1212" 
d="M152 0v1434h958v-260h-633v-308h561v-260h-561v-346h651v-260h-976z" />
    <glyph glyph-name="F" unicode="F" horiz-adv-x="1148" 
d="M152 0v1434h958v-260h-633v-347h561v-260h-561v-567h-325z" />
    <glyph glyph-name="G" unicode="G" horiz-adv-x="1505" 
d="M84 717q0 221 88 390t244 260t356 91q208 0 365.5 -84.5t251.5 -245.5l-273 -133q-112 191 -332 191q-157 0 -263.5 -124t-106.5 -345q0 -222 111.5 -345.5t281.5 -123.5q89 0 162 28.5t112 81.5v197h-288v236h600v-553q-98 -125 -249.5 -194t-340.5 -69q-156 0 -289 53
t-228 148.5t-148.5 234.5t-53.5 306z" />
    <glyph glyph-name="H" unicode="H" horiz-adv-x="1505" 
d="M152 0v1434h325v-545h551v545h326v-1434h-326v621h-551v-621h-325z" />
    <glyph glyph-name="I" unicode="I" horiz-adv-x="647" 
d="M160 1434h327v-1434h-327v1434z" />
    <glyph glyph-name="J" unicode="J" horiz-adv-x="1261" 
d="M567 248q104 0 160.5 68.5t56.5 187.5v930h326v-918q0 -250 -138.5 -395.5t-393.5 -145.5q-176 0 -312 78t-211 221l262 144q88 -170 250 -170z" />
    <glyph glyph-name="K" unicode="K" horiz-adv-x="1382" 
d="M477 1434v-648l463 648h360l-450 -590l514 -844h-369l-338 586l-180 -234v-352h-325v1434h325z" />
    <glyph glyph-name="L" unicode="L" horiz-adv-x="1150" 
d="M152 0v1434h325v-1166h637v-268h-962z" />
    <glyph glyph-name="M" unicode="M" horiz-adv-x="1810" 
d="M1006 260h-201l-338 637v-897h-315v1434h325l428 -822l428 822h326v-1434h-316v897z" />
    <glyph glyph-name="N" unicode="N" horiz-adv-x="1501" 
d="M152 0v1434h317l565 -918v918h316v-1434h-318l-565 918v-918h-315z" />
    <glyph glyph-name="O" unicode="O" horiz-adv-x="1523" 
d="M1440 717q0 -212 -80 -379t-235.5 -265t-362.5 -98t-362.5 98t-235.5 265t-80 379t80 379t235.5 264.5t362.5 97.5t362.5 -97.5t235.5 -264.5t80 -379zM414 717q0 -216 94 -342.5t254 -126.5t254 126.5t94 342.5t-94 342.5t-254 126.5t-254 -126.5t-94 -342.5z" />
    <glyph glyph-name="P" unicode="P" horiz-adv-x="1298" 
d="M1233 961q0 -231 -151 -351.5t-425 -120.5h-180v-489h-325v1434h505q274 0 425 -120t151 -353zM903 961q0 112 -65 163.5t-195 51.5h-166v-428h166q130 0 195 51t65 162z" />
    <glyph glyph-name="Q" unicode="Q" horiz-adv-x="1523" 
d="M1262 -147l-183 194q-138 -72 -317 -72q-207 0 -362.5 98t-235.5 265t-80 379t80 379t235.5 264.5t362.5 97.5t362.5 -97.5t235.5 -264.5t80 -379q0 -286 -146 -486l176 -186zM414 717q0 -216 94 -342.5t254 -126.5q60 0 112 18l-165 180l209 193l151 -164q41 103 41 242
q0 216 -94 342.5t-254 126.5t-254 -126.5t-94 -342.5z" />
    <glyph glyph-name="R" unicode="R" horiz-adv-x="1376" 
d="M1249 989q0 -146 -72 -246t-204 -151l366 -592h-352l-311 547h-199v-547h-325v1434h522q273 0 424 -112.5t151 -332.5zM924 989q0 193 -248 193h-199v-383h199q248 0 248 190z" />
    <glyph glyph-name="S" unicode="S" horiz-adv-x="1275" 
d="M647 238q103 0 161 39t58 106q0 52 -21.5 85.5t-89.5 68t-200 71.5q-430 123 -430 445q0 182 129.5 293.5t359.5 111.5q159 0 296 -59t231 -172l-219 -162q-53 62 -125.5 96.5t-151.5 34.5q-94 0 -142 -35t-48 -96q0 -67 60.5 -113t221.5 -96q243 -73 351 -173.5
t108 -276.5q0 -195 -144.5 -313t-387.5 -118q-184 0 -337 65.5t-264 190.5l234 172q148 -165 350 -165z" />
    <glyph glyph-name="T" unicode="T" horiz-adv-x="1226" 
d="M451 0v1165h-414v269h1153v-269h-414v-1165h-325z" />
    <glyph glyph-name="U" unicode="U" horiz-adv-x="1531" 
d="M766 -25q-281 0 -447.5 157t-166.5 448v854h325v-863q0 -323 289 -323t289 323v863h325v-854q0 -292 -164.5 -448.5t-449.5 -156.5z" />
    <glyph glyph-name="V" unicode="V" horiz-adv-x="1478" 
d="M942 0h-405l-500 1434h348l354 -1072l355 1072h348z" />
    <glyph glyph-name="W" unicode="W" horiz-adv-x="2117" 
d="M895 1434h328l247 -1031l275 1031h336l-406 -1434h-387l-229 999l-230 -999h-387l-405 1434h336l274 -1031z" />
    <glyph glyph-name="X" unicode="X" horiz-adv-x="1366" 
d="M1337 0h-356l-299 508l-297 -508h-356l444 739l-414 695h357l266 -453l268 453h357l-416 -695z" />
    <glyph glyph-name="Y" unicode="Y" horiz-adv-x="1355" 
d="M977 1434h350l-485 -871v-563h-328v563l-485 871h350l299 -588z" />
    <glyph glyph-name="Z" unicode="Z" horiz-adv-x="1220" 
d="M66 0v256l671 909h-635v269h1033v-256l-672 -910h692v-268h-1089z" />
    <glyph glyph-name="bracketleft" unicode="[" 
d="M227 -266v1802h617v-211h-342v-1380h342v-211h-617z" />
    <glyph glyph-name="backslash" unicode="\" horiz-adv-x="1095" 
d="M868 -270l-864 1712l221 129l867 -1710z" />
    <glyph glyph-name="bracketright" unicode="]" 
d="M653 1536v-1802h-616v211h342v1380h-342v211h616z" />
    <glyph glyph-name="asciicircum" unicode="^" horiz-adv-x="1300" 
d="M547 1442h205l397 -582l-213 -139l-287 407l-287 -407l-210 139z" />
    <glyph glyph-name="underscore" unicode="_" horiz-adv-x="1024" 
d="M0 -348v139h1024v-139h-1024z" />
    <glyph glyph-name="grave" unicode="`" horiz-adv-x="798" 
d="M516 1133l-342 249l148 156l303 -278z" />
    <glyph glyph-name="a" unicode="a" horiz-adv-x="1187" 
d="M762 563v82q0 98 -52 147.5t-165 49.5q-136 0 -242 -86l-172 166q85 76 207 119.5t250 43.5q477 0 477 -456v-629h-303v76q-113 -101 -297 -101q-108 0 -196.5 39.5t-142.5 119t-54 185.5q0 159 113.5 252t279.5 93q184 0 297 -101zM762 279v81q-83 80 -213 80
q-76 0 -119 -32t-43 -89t42.5 -88.5t119.5 -31.5q130 0 213 80z" />
    <glyph glyph-name="b" unicode="b" horiz-adv-x="1294" 
d="M1208 530q0 -261 -121.5 -408t-332.5 -147q-179 0 -312 123v-98h-311v1495h311v-532q132 122 312 122q211 0 332.5 -147t121.5 -408zM657 842q-57 0 -116.5 -25t-98.5 -67v-439q39 -42 98.5 -67t116.5 -25q117 0 176.5 80t59.5 231t-59.5 231.5t-176.5 80.5z" />
    <glyph glyph-name="c" unicode="c" horiz-adv-x="1142" 
d="M76 530q0 246 146 400.5t390 154.5q161 0 287 -70.5t199 -195.5l-240 -117q-87 140 -225 140q-117 0 -179.5 -83.5t-62.5 -228.5t62.5 -228t179.5 -83q138 0 225 139l240 -116q-73 -125 -199 -196t-287 -71q-244 0 -390 154.5t-146 400.5z" />
    <glyph glyph-name="d" unicode="d" horiz-adv-x="1294" 
d="M84 530q0 261 122 408t333 147q179 0 311 -122v532h311v-1495h-311v98q-133 -123 -311 -123q-211 0 -333 147t-122 408zM635 842q-117 0 -176.5 -80.5t-59.5 -231.5t59.5 -231t176.5 -80q57 0 116.5 25t98.5 67v439q-39 42 -98.5 67t-116.5 25z" />
    <glyph glyph-name="e" unicode="e" horiz-adv-x="1212" 
d="M1137 526q0 -71 -4 -96h-748q17 -100 86.5 -155.5t179.5 -55.5q141 0 230 123l215 -149q-164 -218 -457 -218q-258 0 -410.5 154.5t-152.5 400.5q0 245 147 400t385 155q236 0 382.5 -155.5t146.5 -403.5zM608 842q-94 0 -153 -52.5t-72 -148.5h446q-9 93 -69 147
t-152 54z" />
    <glyph glyph-name="f" unicode="f" horiz-adv-x="821" 
d="M614 1495q105 0 181 -8v-230q-93 5 -113 5q-89 0 -124.5 -33.5t-35.5 -106.5v-61h252v-240h-252v-821h-311v821h-182v240h182v74q0 186 98 273t305 87z" />
    <glyph glyph-name="g" unicode="g" horiz-adv-x="1294" 
d="M850 963v98h311v-1000q0 -251 -139.5 -385.5t-394.5 -134.5q-155 0 -280.5 53t-209.5 152l217 141q109 -125 262 -125q105 0 169.5 65t64.5 187v92q-132 -122 -311 -122q-210 0 -332.5 146.5t-122.5 404.5t122 404t333 146q179 0 311 -122zM635 227q57 0 116.5 25
t98.5 67v431q-39 42 -98.5 67t-116.5 25q-117 0 -176.5 -79.5t-59.5 -227.5t59.5 -228t176.5 -80z" />
    <glyph glyph-name="h" unicode="h" horiz-adv-x="1286" 
d="M682 842q-68 0 -133.5 -34t-106.5 -83v-725h-311v1495h311v-553q61 62 153.5 102.5t195.5 40.5q170 0 270 -105t100 -300v-680h-311v647q0 195 -168 195z" />
    <glyph glyph-name="i" unicode="i" horiz-adv-x="598" 
d="M143 0v1061h312v-1061h-312zM483 1348q0 -76 -53.5 -128.5t-130.5 -52.5t-130.5 52.5t-53.5 128.5t53.5 128t130.5 52t130.5 -52t53.5 -128z" />
    <glyph glyph-name="j" unicode="j" horiz-adv-x="598" 
d="M10 -457q-70 0 -116 6v240q29 -2 90 -2q86 0 122.5 40.5t36.5 127.5v1106h312v-1043q0 -127 -20.5 -212t-70.5 -146t-136.5 -89t-217.5 -28zM483 1348q0 -76 -53.5 -128.5t-130.5 -52.5t-130.5 52.5t-53.5 128.5t53.5 128t130.5 52t130.5 -52t53.5 -128z" />
    <glyph glyph-name="k" unicode="k" horiz-adv-x="1202" 
d="M131 1495h311v-868l346 434h355l-352 -402l401 -659h-338l-254 444l-158 -180v-264h-311v1495z" />
    <glyph glyph-name="l" unicode="l" horiz-adv-x="593" 
d="M141 0v1495h312v-1495h-312z" />
    <glyph glyph-name="m" unicode="m" horiz-adv-x="1875" 
d="M442 743v-743h-311v1061h311v-111q148 135 324 135q200 0 281 -153q156 153 368 153q162 0 249 -102t87 -293v-690h-311v653q0 189 -146 189q-54 0 -108.5 -29.5t-89.5 -75.5q2 -37 2 -110v-627h-312v653q0 95 -33 142t-112 47q-54 0 -108 -28t-91 -71z" />
    <glyph glyph-name="n" unicode="n" horiz-adv-x="1286" 
d="M682 842q-68 0 -133.5 -34t-106.5 -83v-725h-311v1061h311v-119q61 62 153.5 102.5t195.5 40.5q170 0 270 -105t100 -300v-680h-311v647q0 195 -168 195z" />
    <glyph glyph-name="o" unicode="o" horiz-adv-x="1236" 
d="M1161 530q0 -246 -149.5 -400.5t-393.5 -154.5t-393 154.5t-149 400.5t149 400.5t393 154.5t393.5 -154.5t149.5 -400.5zM846 530q0 149 -60 230.5t-168 81.5t-167.5 -81.5t-59.5 -230.5t59.5 -230t167.5 -81t168 81t60 230z" />
    <glyph glyph-name="p" unicode="p" horiz-adv-x="1294" 
d="M1208 530q0 -261 -121.5 -408t-332.5 -147q-179 0 -312 123v-532h-311v1495h311v-98q132 122 312 122q211 0 332.5 -147t121.5 -408zM657 219q117 0 176.5 80t59.5 231t-59.5 231.5t-176.5 80.5q-57 0 -116.5 -25t-98.5 -67v-439q39 -42 98.5 -67t116.5 -25z" />
    <glyph glyph-name="q" unicode="q" horiz-adv-x="1294" 
d="M86 530q0 261 122 408t333 147q179 0 311 -122v98h311v-1495h-311v532q-133 -123 -311 -123q-211 0 -333 147t-122 408zM637 219q57 0 116.5 25t98.5 67v439q-39 42 -98.5 67t-116.5 25q-117 0 -176.5 -80.5t-59.5 -231.5t59.5 -231t176.5 -80z" />
    <glyph glyph-name="r" unicode="r" horiz-adv-x="847" 
d="M819 1081v-245q-50 4 -80 4q-93 0 -172 -41t-125 -111v-688h-311v1061h311v-131q107 155 312 155q33 0 65 -4z" />
    <glyph glyph-name="s" unicode="s" horiz-adv-x="1079" 
d="M113 778q0 134 109.5 220.5t299.5 86.5q136 0 253 -45t200 -131l-191 -147q-37 42 -96 68t-121 26q-65 0 -102 -18t-37 -52q0 -38 51 -69t191 -72q164 -51 247.5 -134.5t83.5 -209.5q0 -146 -113 -236t-321 -90q-327 0 -512 209l205 152q128 -131 279 -131
q72 0 109.5 21.5t37.5 60.5q0 43 -44 73t-167 68q-193 60 -277.5 142t-84.5 208z" />
    <glyph glyph-name="t" unicode="t" horiz-adv-x="833" 
d="M594 -25q-212 0 -298.5 101.5t-86.5 335.5v409h-180v240h180v317h311v-317h250v-240h-250v-440q0 -90 35.5 -126t126.5 -36q63 0 88 2v-237q-86 -9 -176 -9z" />
    <glyph glyph-name="u" unicode="u" horiz-adv-x="1273" 
d="M637 -25q-241 0 -377.5 124.5t-136.5 361.5v600h311v-619q0 -109 56 -166t147 -57t147 57t56 166v619h311v-600q0 -237 -136.5 -361.5t-377.5 -124.5z" />
    <glyph glyph-name="v" unicode="v" horiz-adv-x="1179" 
d="M764 0h-348l-387 1061h323l238 -766l237 766h324z" />
    <glyph glyph-name="w" unicode="w" horiz-adv-x="1748" 
d="M543 360l192 701h279l192 -701l195 701h319l-334 -1061h-327l-185 666l-184 -666h-328l-333 1061h319z" />
    <glyph glyph-name="x" unicode="x" horiz-adv-x="1146" 
d="M55 1061h326l192 -330l193 330h326l-304 -508l338 -553h-327l-226 375l-225 -375h-328l338 553z" />
    <glyph glyph-name="y" unicode="y" horiz-adv-x="1177" 
d="M596 -434h-311l166 452l-422 1043h315l252 -672l240 672h313z" />
    <glyph glyph-name="z" unicode="z" horiz-adv-x="991" 
d="M47 0v229l500 594h-471v238h848v-230l-500 -593h520v-238h-897z" />
    <glyph glyph-name="braceleft" unicode="{" horiz-adv-x="849" 
d="M311 12v312q0 95 -54.5 149.5t-139.5 54.5v211q85 0 139.5 55t54.5 150v240q0 191 81.5 271.5t258.5 80.5h162v-213h-141q-86 0 -86 -90v-275q0 -136 -46.5 -214t-162.5 -109q117 -31 163 -109t46 -215v-276q0 -88 86 -88h141v-213h-162q-166 0 -253 64.5t-87 213.5z" />
    <glyph glyph-name="bar" unicode="|" horiz-adv-x="636" 
d="M209 -410v1985h219v-1985h-219z" />
    <glyph glyph-name="braceright" unicode="}" horiz-adv-x="849" 
d="M539 324v-312q0 -149 -87 -213.5t-253 -64.5h-162v213h141q86 0 86 88v276q0 137 46 215t163 109q-116 31 -162.5 109t-46.5 214v275q0 90 -86 90h-141v213h162q177 0 258.5 -80.5t81.5 -271.5v-240q0 -95 54.5 -150t139.5 -55v-211q-85 0 -139.5 -54.5t-54.5 -149.5z
" />
    <glyph glyph-name="asciitilde" unicode="~" horiz-adv-x="1261" 
d="M930 844l254 -41q-22 -148 -112 -236t-220 -88q-119 0 -242 72q-54 31 -85 42t-72 11q-96 0 -123 -106l-254 41q22 148 112 235.5t220 87.5q119 0 241 -71q54 -32 86 -43t72 -11q96 0 123 107z" />
    <glyph glyph-name="uni00A0" unicode="&#xa0;" horiz-adv-x="614" 
 />
    <glyph glyph-name="exclamdown" unicode="&#xa1;" horiz-adv-x="643" 
d="M489 -373h-335v348l47 687h241l47 -687v-348zM322 1085q69 0 117 -48.5t48 -118.5t-48 -119t-117 -49t-117.5 49t-48.5 119t48.5 118.5t117.5 48.5z" />
    <glyph glyph-name="cent" unicode="&#xa2;" horiz-adv-x="1142" 
d="M76 530q0 228 127.5 379.5t345.5 171.5v181h147v-183q132 -17 235 -85t167 -175l-240 -117q-70 110 -162 132v-609q96 25 162 133l240 -116q-64 -108 -167 -175.5t-235 -84.5v-183h-147v181q-218 20 -345.5 170.5t-127.5 379.5zM391 530q0 -117 40.5 -194t117.5 -105v596
q-77 -26 -117.5 -103t-40.5 -194z" />
    <glyph glyph-name="sterling" unicode="&#xa3;" horiz-adv-x="1257" 
d="M709 1458q138 0 259.5 -56.5t198.5 -154.5l-221 -162q-90 101 -201 101q-190 0 -190 -195v-182h383v-147h-383v-109q0 -90 -30 -165t-85 -120h760v-268h-1124v250q153 101 153 276v136h-153v147h153v197q0 223 125.5 337.5t354.5 114.5z" />
    <glyph glyph-name="currency" unicode="&#xa4;" horiz-adv-x="1495" 
d="M1212 680q0 -117 -55 -221l186 -189l-174 -180l-190 195q-103 -58 -231 -58q-129 0 -232 58l-190 -195l-174 180l186 189q-55 104 -55 221t55 221l-186 189l174 180l190 -195q103 58 232 58q128 0 231 -58l190 195l174 -180l-186 -189q55 -104 55 -221zM952 680
q0 106 -55.5 169.5t-148.5 63.5q-94 0 -149.5 -63.5t-55.5 -169.5t56 -170t149 -64t148.5 64t55.5 170z" />
    <glyph glyph-name="yen" unicode="&#xa5;" horiz-adv-x="1355" 
d="M125 438h389v119h-389v129h319l-415 748h350l299 -588l299 588h350l-418 -748h322v-129h-389v-119h389v-129h-389v-309h-328v309h-389v129z" />
    <glyph glyph-name="brokenbar" unicode="&#xa6;" horiz-adv-x="636" 
d="M209 467h219v-680h-219v680zM209 1417h219v-682h-219v682z" />
    <glyph glyph-name="section" unicode="&#xa7;" horiz-adv-x="1093" 
d="M129 600q0 189 186 270q-188 90 -188 275q0 139 115.5 226t304.5 87q129 0 240.5 -44.5t187.5 -127.5l-180 -135q-81 90 -211 90q-64 0 -102 -26.5t-38 -67.5q0 -43 52.5 -76.5t181.5 -73.5q165 -52 237 -129.5t72 -199.5q0 -88 -52.5 -157t-143.5 -108q198 -87 198 -278
q0 -146 -114 -238t-320 -92q-146 0 -267.5 50.5t-203.5 144.5l190 139q52 -54 119.5 -85.5t136.5 -31.5q70 0 106 28.5t36 72.5q0 47 -39.5 78.5t-151.5 62.5q-182 52 -267 133t-85 213zM563 485q61 17 96 57t35 93q0 109 -143 151q-61 -18 -96 -57t-35 -92q0 -110 143 -152
z" />
    <glyph glyph-name="dieresis" unicode="&#xa8;" horiz-adv-x="798" 
d="M471 1323q0 59 39.5 99t99.5 40t100 -40t40 -99t-40 -99t-100 -40t-99.5 40t-39.5 99zM47 1323q0 59 39.5 99t99.5 40t100 -40t40 -99t-40 -99t-100 -40t-99.5 40t-39.5 99z" />
    <glyph glyph-name="copyright" unicode="&#xa9;" horiz-adv-x="1683" 
d="M426 717q0 196 119 320t309 124q127 0 226.5 -59t152.5 -162l-180 -86q-70 107 -181 107q-92 0 -146 -65.5t-54 -178.5t54 -178.5t146 -65.5q111 0 181 107l180 -86q-53 -103 -152.5 -162.5t-226.5 -59.5q-190 0 -309 124.5t-119 320.5zM100 717q0 202 99.5 372.5
t270 269.5t372.5 99q151 0 288.5 -58.5t236.5 -157.5t157.5 -236.5t58.5 -288.5q0 -202 -99 -372.5t-269.5 -270t-372.5 -99.5t-372.5 99.5t-270 270t-99.5 372.5zM1468 717q0 130 -49.5 247.5t-133.5 202.5t-199.5 135t-243.5 50t-244 -50t-200 -135t-133.5 -202.5
t-49.5 -247.5t49.5 -247.5t133.5 -202.5t200 -135t244 -50t243.5 50t199.5 135t133.5 202.5t49.5 247.5z" />
    <glyph glyph-name="ordfeminine" unicode="&#xaa;" horiz-adv-x="946" 
d="M82 907q0 117 80 185.5t205 68.5q126 0 215 -63v47q0 119 -148 119q-96 0 -178 -62l-133 133q142 115 344 115q180 0 269 -77.5t89 -221.5v-483h-243v59q-83 -74 -215 -74q-124 0 -204.5 68.5t-80.5 185.5zM428 995q-129 0 -129 -88q0 -86 141 -86q36 0 75.5 15.5
t66.5 42.5v65q-60 51 -154 51z" />
    <glyph glyph-name="guillemotleft" unicode="&#xab;" horiz-adv-x="1251" 
d="M94 582v114l443 324l116 -156l-319 -225l319 -225l-116 -156zM598 582v114l442 324l117 -156l-317 -225l317 -225l-117 -156z" />
    <glyph glyph-name="logicalnot" unicode="&#xac;" horiz-adv-x="1261" 
d="M102 702v220h1037v-600h-265v380h-772z" />
    <glyph glyph-name="uni00AD" unicode="&#xad;" horiz-adv-x="827" 
d="M715 559h-602v240h602v-240z" />
    <glyph glyph-name="registered" unicode="&#xae;" horiz-adv-x="1683" 
d="M100 717q0 202 99.5 372.5t270 269.5t372.5 99q151 0 288.5 -58.5t236.5 -157.5t157.5 -236.5t58.5 -288.5q0 -202 -99 -372.5t-269.5 -270t-372.5 -99.5t-372.5 99.5t-270 270t-99.5 372.5zM215 717q0 -130 49.5 -247.5t133.5 -202.5t200 -135t244 -50t243.5 50
t199.5 135t133.5 202.5t49.5 247.5t-49.5 247.5t-133.5 202.5t-199.5 135t-243.5 50t-244 -50t-200 -135t-133.5 -202.5t-49.5 -247.5zM1196 877q0 -178 -168 -240l223 -348h-241l-181 315h-106v-315h-207v854h344q156 0 246 -69.5t90 -196.5zM981 877q0 56 -32.5 83
t-102.5 27h-123v-221h123q135 0 135 111z" />
    <glyph glyph-name="macron" unicode="&#xaf;" horiz-adv-x="798" 
d="M86 1229v188h627v-188h-627z" />
    <glyph glyph-name="degree" unicode="&#xb0;" horiz-adv-x="819" 
d="M295 1178q0 -51 32 -84t83 -33t82.5 33t31.5 84t-31.5 83.5t-82.5 32.5t-83 -32.5t-32 -83.5zM123 1178q0 117 83 198.5t204 81.5t203.5 -81.5t82.5 -198.5q0 -118 -82.5 -199.5t-203.5 -81.5t-204 82t-83 199z" />
    <glyph glyph-name="plusminus" unicode="&#xb1;" horiz-adv-x="1261" 
d="M498 309v379h-385v219h385v377h266v-377h385v-219h-385v-379h-266zM1149 0h-1036v219h1036v-219z" />
    <glyph glyph-name="twosuperior" unicode="&#xb2;" 
d="M406 1249q-90 0 -162 -82l-164 117q134 166 352 166q150 0 236 -78t86 -209q0 -116 -83.5 -235t-230.5 -248h318v-195h-654v158q187 148 298.5 280.5t111.5 225.5q0 45 -28 72.5t-80 27.5z" />
    <glyph glyph-name="threesuperior" unicode="&#xb3;" 
d="M401 653q62 0 98 32t36 83q0 63 -49 95t-134 32h-88v166h88q76 0 117 29t41 81q0 43 -25 68t-71 25q-86 0 -142 -70l-157 111q125 145 319 145q142 0 228 -70.5t86 -189.5q0 -71 -39 -127t-105 -84q74 -28 120 -86t46 -141q0 -123 -94.5 -203t-259.5 -80q-108 0 -195 41
t-141 117l160 110q60 -84 161 -84z" />
    <glyph glyph-name="acute" unicode="&#xb4;" horiz-adv-x="798" 
d="M625 1382l-342 -249l-109 127l303 278z" />
    <glyph glyph-name="mu" unicode="&#xb5;" horiz-adv-x="1292" 
d="M645 -25q-130 0 -203 99v-508h-311v1495h311v-750q32 -43 86 -66.5t117 -23.5q64 0 118.5 23.5t86.5 66.5v750h311v-1061h-311v90q-33 -53 -87 -84t-118 -31z" />
    <glyph glyph-name="paragraph" unicode="&#xb6;" horiz-adv-x="1275" 
d="M567 545h-26q-203 0 -331 119t-128 325t128 325.5t331 119.5h561v-1702h-221v1503h-86v-1503h-228v813z" />
    <glyph glyph-name="periodcentered" unicode="&#xb7;" horiz-adv-x="643" 
d="M156 680q0 70 48.5 119t117.5 49t117 -49t48 -119t-48 -119t-117 -49t-117.5 49t-48.5 119z" />
    <glyph glyph-name="cedilla" unicode="&#xb8;" horiz-adv-x="798" 
d="M332 -330q40 0 64 17t24 47q0 36 -43 59.5t-123 24.5l-16 22l75 160h209l-49 -98q72 -19 115 -69t43 -118q0 -85 -70.5 -143.5t-200.5 -58.5q-138 0 -233 75l100 121q42 -39 105 -39z" />
    <glyph glyph-name="onesuperior" unicode="&#xb9;" 
d="M391 1182l-135 -99l-127 136l289 217h205v-951h-232v697z" />
    <glyph glyph-name="ordmasculine" unicode="&#xba;" horiz-adv-x="946" 
d="M874 1051q0 -175 -110.5 -287.5t-290.5 -112.5t-290.5 112.5t-110.5 287.5t110.5 287t290.5 112t290.5 -112t110.5 -287zM317 1051q0 -101 41.5 -157t114.5 -56t114.5 56t41.5 157t-41.5 157t-114.5 56t-114.5 -56t-41.5 -157z" />
    <glyph glyph-name="guillemotright" unicode="&#xbb;" horiz-adv-x="1251" 
d="M1157 696v-114l-442 -324l-117 156l320 225l-320 225l117 156zM653 696v-114l-442 -324l-117 156l318 225l-318 225l117 156z" />
    <glyph glyph-name="onequarter" unicode="&#xbc;" horiz-adv-x="2148" 
d="M391 1182l-135 -99l-127 136l289 217h205v-951h-232v697zM1378 1464l158 -86l-760 -1409l-158 86zM1751 182h-428v189l401 577h252v-569h107v-197h-107v-182h-225v182zM1751 653l-190 -274h190v274z" />
    <glyph glyph-name="onehalf" unicode="&#xbd;" horiz-adv-x="2148" 
d="M391 1182l-135 -99l-127 136l289 217h205v-951h-232v697zM1378 1464l158 -86l-760 -1409l-158 86zM1673 764q-90 0 -162 -82l-163 117q134 166 352 166q150 0 235.5 -77.5t85.5 -209.5q0 -116 -83 -235t-230 -248h317v-195h-653v158q187 148 298.5 280.5t111.5 225.5
q0 44 -28.5 72t-80.5 28z" />
    <glyph glyph-name="threequarters" unicode="&#xbe;" horiz-adv-x="2148" 
d="M401 653q62 0 98 32t36 83q0 63 -49 95t-134 32h-88v166h88q76 0 117 29t41 81q0 43 -25 68t-71 25q-86 0 -142 -70l-157 111q125 145 319 145q142 0 228 -70.5t86 -189.5q0 -71 -39 -127t-105 -84q74 -28 120 -86t46 -141q0 -123 -94.5 -203t-259.5 -80q-108 0 -195 41
t-141 117l160 110q60 -84 161 -84zM1378 1464l158 -86l-760 -1409l-158 86zM1751 182h-428v189l401 577h252v-569h107v-197h-107v-182h-225v182zM1751 653l-190 -274h190v274z" />
    <glyph glyph-name="questiondown" unicode="&#xbf;" horiz-adv-x="1146" 
d="M588 -397q-211 0 -334 100.5t-123 276.5q0 119 56.5 212.5t179.5 180.5q64 44 87 88.5t23 118.5v82h324v-111q0 -116 -45.5 -199.5t-151.5 -152.5q-78 -52 -110.5 -98t-32.5 -101q0 -60 40.5 -92.5t116.5 -32.5q64 0 126 32t106 85l213 -170q-189 -219 -475 -219z
M639 1085q69 0 117.5 -48.5t48.5 -118.5t-48.5 -119t-117.5 -49t-117.5 49t-48.5 119t48.5 118.5t117.5 48.5z" />
    <glyph glyph-name="Agrave" unicode="&#xc0;" horiz-adv-x="1478" 
d="M942 1434l500 -1434h-348l-95 295h-522l-92 -295h-348l500 1434h405zM739 1126l-180 -573h361zM784 1530l-342 249l148 156l303 -278z" />
    <glyph glyph-name="Aacute" unicode="&#xc1;" horiz-adv-x="1478" 
d="M942 1434l500 -1434h-348l-95 295h-522l-92 -295h-348l500 1434h405zM739 1126l-180 -573h361zM1036 1780l-342 -250l-108 127l303 278z" />
    <glyph glyph-name="Acircumflex" unicode="&#xc2;" horiz-adv-x="1478" 
d="M942 1434l500 -1434h-348l-95 295h-522l-92 -295h-348l500 1434h405zM739 1126l-180 -573h361zM662 1904h155l266 -274l-125 -100l-219 186l-219 -186l-125 100z" />
    <glyph glyph-name="Atilde" unicode="&#xc3;" horiz-adv-x="1478" 
d="M942 1434l500 -1434h-348l-95 295h-522l-92 -295h-348l500 1434h405zM739 1126l-180 -573h361zM918 1862l178 -23q-15 -123 -72 -188.5t-147 -65.5q-48 0 -97 23.5t-88.5 47t-62.5 23.5q-26 0 -44 -22.5t-22 -63.5l-178 23q15 123 72 188.5t147 65.5q48 0 97 -23.5
t88.5 -47t62.5 -23.5q26 0 44 22.5t22 63.5z" />
    <glyph glyph-name="Adieresis" unicode="&#xc4;" horiz-adv-x="1478" 
d="M942 1434l500 -1434h-348l-95 295h-522l-92 -295h-348l500 1434h405zM739 1126l-180 -573h361zM813 1720q0 59 39.5 99.5t99.5 40.5t100 -40.5t40 -99.5t-40 -99t-100 -40t-99.5 40t-39.5 99zM389 1720q0 59 39.5 99.5t99.5 40.5t100 -40.5t40 -99.5t-40 -99t-100 -40
t-99.5 40t-39.5 99z" />
    <glyph glyph-name="Aring" unicode="&#xc5;" horiz-adv-x="1478" 
d="M942 1434l500 -1434h-348l-95 295h-522l-92 -295h-348l500 1434h405zM739 1126l-180 -573h361zM662 1728q0 -35 21.5 -57.5t55.5 -22.5t56 22.5t22 57.5t-22 57.5t-56 22.5t-55.5 -22.5t-21.5 -57.5zM504 1728q0 95 67.5 160t167.5 65t168 -65t68 -160t-68 -160t-168 -65
t-167.5 65t-67.5 160z" />
    <glyph glyph-name="AE" unicode="&#xc6;" horiz-adv-x="1886" 
d="M932 285h-408l-141 -285h-350l735 1434h1016v-260h-527v-308h455v-260h-455v-346h545v-260h-870v285zM932 543v571l-285 -571h285z" />
    <glyph glyph-name="Ccedilla" unicode="&#xc7;" horiz-adv-x="1449" 
d="M737 -330q40 0 64 17t24 47q0 36 -43 59.5t-123 24.5l-16 22l66 140q-284 23 -454.5 222.5t-170.5 514.5q0 336 192 538.5t506 202.5q201 0 360 -87t249 -245l-271 -133q-117 193 -325 193q-167 0 -274 -123.5t-107 -345.5t107 -345.5t274 -123.5q208 0 325 192l271 -133
q-74 -129 -195 -211.5t-274 -107.5l-43 -86q71 -19 114 -69t43 -118q0 -85 -70 -143.5t-200 -58.5q-139 0 -234 75l101 121q42 -39 104 -39z" />
    <glyph glyph-name="Egrave" unicode="&#xc8;" horiz-adv-x="1212" 
d="M152 0v1434h958v-260h-633v-308h561v-260h-561v-346h651v-260h-976zM704 1530l-342 249l148 156l303 -278z" />
    <glyph glyph-name="Eacute" unicode="&#xc9;" horiz-adv-x="1212" 
d="M152 0v1434h958v-260h-633v-308h561v-260h-561v-346h651v-260h-976zM893 1779l-342 -249l-109 127l303 278z" />
    <glyph glyph-name="Ecircumflex" unicode="&#xca;" horiz-adv-x="1212" 
d="M152 0v1434h958v-260h-633v-308h561v-260h-561v-346h651v-260h-976zM557 1905h156l266 -275l-125 -100l-219 186l-219 -186l-125 100z" />
    <glyph glyph-name="Edieresis" unicode="&#xcb;" horiz-adv-x="1212" 
d="M152 0v1434h958v-260h-633v-308h561v-260h-561v-346h651v-260h-976zM707 1720q0 59 39.5 99t99.5 40t100 -40t40 -99t-40 -99t-100 -40t-99.5 40t-39.5 99zM283 1720q0 59 39.5 99t99.5 40t100 -40t40 -99t-40 -99t-100 -40t-99.5 40t-39.5 99z" />
    <glyph glyph-name="Igrave" unicode="&#xcc;" horiz-adv-x="647" 
d="M160 1434h327v-1434h-327v1434zM340 1530l-342 250l147 155l304 -278z" />
    <glyph glyph-name="Iacute" unicode="&#xcd;" horiz-adv-x="647" 
d="M160 1434h327v-1434h-327v1434zM650 1779l-342 -249l-109 127l303 278z" />
    <glyph glyph-name="Icircumflex" unicode="&#xce;" horiz-adv-x="647" 
d="M160 1434h327v-1434h-327v1434zM246 1904h155l266 -274l-125 -100l-219 186l-219 -186l-125 100z" />
    <glyph glyph-name="Idieresis" unicode="&#xcf;" horiz-adv-x="647" 
d="M160 1434h327v-1434h-327v1434zM397 1720q0 59 40 99.5t100 40.5t99.5 -40.5t39.5 -99.5t-39.5 -99t-99.5 -40t-100 40t-40 99zM-27 1720q0 59 40 99.5t100 40.5t99.5 -40.5t39.5 -99.5t-39.5 -99t-99.5 -40t-100 40t-40 99z" />
    <glyph glyph-name="Eth" unicode="&#xd0;" horiz-adv-x="1460" 
d="M1374 717q0 -212 -84 -374t-243 -252.5t-371 -90.5h-524v635h-150v164h150v635h524q319 0 508.5 -198t189.5 -519zM752 635h-275v-367h187q177 0 278.5 114.5t101.5 334.5t-101.5 334t-278.5 114h-187v-366h275v-164z" />
    <glyph glyph-name="Ntilde" unicode="&#xd1;" horiz-adv-x="1501" 
d="M152 0v1434h317l565 -918v918h316v-1434h-318l-565 918v-918h-315zM928 1862l178 -23q-15 -123 -72 -188.5t-147 -65.5q-48 0 -97 23.5t-88.5 47t-62.5 23.5q-26 0 -44 -22.5t-22 -63.5l-178 23q15 123 72 188.5t147 65.5q48 0 97 -23.5t88.5 -47t62.5 -23.5
q26 0 44 22.5t22 63.5z" />
    <glyph glyph-name="Ograve" unicode="&#xd2;" horiz-adv-x="1523" 
d="M1440 717q0 -212 -80 -379t-235.5 -265t-362.5 -98t-362.5 98t-235.5 265t-80 379t80 379t235.5 264.5t362.5 97.5t362.5 -97.5t235.5 -264.5t80 -379zM414 717q0 -216 94 -342.5t254 -126.5t254 126.5t94 342.5t-94 342.5t-254 126.5t-254 -126.5t-94 -342.5zM817 1530
l-342 249l148 156l303 -278z" />
    <glyph glyph-name="Oacute" unicode="&#xd3;" horiz-adv-x="1523" 
d="M1440 717q0 -212 -80 -379t-235.5 -265t-362.5 -98t-362.5 98t-235.5 265t-80 379t80 379t235.5 264.5t362.5 97.5t362.5 -97.5t235.5 -264.5t80 -379zM414 717q0 -216 94 -342.5t254 -126.5t254 126.5t94 342.5t-94 342.5t-254 126.5t-254 -126.5t-94 -342.5zM1049 1779
l-342 -249l-109 127l303 278z" />
    <glyph glyph-name="Ocircumflex" unicode="&#xd4;" horiz-adv-x="1523" 
d="M1440 717q0 -212 -80 -379t-235.5 -265t-362.5 -98t-362.5 98t-235.5 265t-80 379t80 379t235.5 264.5t362.5 97.5t362.5 -97.5t235.5 -264.5t80 -379zM414 717q0 -216 94 -342.5t254 -126.5t254 126.5t94 342.5t-94 342.5t-254 126.5t-254 -126.5t-94 -342.5zM684 1904
h155l266 -274l-125 -100l-219 186l-219 -186l-125 100z" />
    <glyph glyph-name="Otilde" unicode="&#xd5;" horiz-adv-x="1523" 
d="M1440 717q0 -212 -80 -379t-235.5 -265t-362.5 -98t-362.5 98t-235.5 265t-80 379t80 379t235.5 264.5t362.5 97.5t362.5 -97.5t235.5 -264.5t80 -379zM414 717q0 -216 94 -342.5t254 -126.5t254 126.5t94 342.5t-94 342.5t-254 126.5t-254 -126.5t-94 -342.5zM940 1861
l179 -22q-15 -123 -72 -188.5t-147 -65.5q-48 0 -97 23.5t-88.5 47t-62.5 23.5q-26 0 -44 -22.5t-22 -63.5l-178 23q15 123 72 188.5t147 65.5q48 0 97 -23.5t88.5 -47.5t62.5 -24q26 0 43.5 22t21.5 64z" />
    <glyph glyph-name="Odieresis" unicode="&#xd6;" horiz-adv-x="1523" 
d="M1440 717q0 -212 -80 -379t-235.5 -265t-362.5 -98t-362.5 98t-235.5 265t-80 379t80 379t235.5 264.5t362.5 97.5t362.5 -97.5t235.5 -264.5t80 -379zM414 717q0 -216 94 -342.5t254 -126.5t254 126.5t94 342.5t-94 342.5t-254 126.5t-254 -126.5t-94 -342.5zM836 1720
q0 59 39.5 99.5t99.5 40.5t99.5 -40.5t39.5 -99.5t-39.5 -99t-99.5 -40t-99.5 40t-39.5 99zM412 1720q0 59 39.5 99.5t99.5 40.5t99.5 -40.5t39.5 -99.5t-39.5 -99t-99.5 -40t-99.5 40t-39.5 99z" />
    <glyph glyph-name="multiply" unicode="&#xd7;" horiz-adv-x="1261" 
d="M807 680l301 -301l-176 -176l-301 301l-301 -301l-176 176l301 301l-301 301l176 176l301 -301l301 301l176 -176z" />
    <glyph glyph-name="Oslash" unicode="&#xd8;" horiz-adv-x="1523" 
d="M1440 717q0 -212 -80 -379t-235.5 -265t-362.5 -98q-222 0 -385 113l-125 -168l-115 82l133 178q-91 100 -138.5 238t-47.5 299q0 212 80 379t235.5 264.5t362.5 97.5q221 0 383 -112l127 167l114 -81l-135 -179q91 -100 140 -238t49 -298zM1110 717q0 158 -55 274
l-500 -667q85 -76 207 -76q160 0 254 126.5t94 342.5zM414 717q0 -163 53 -275l502 668q-85 76 -207 76q-160 0 -254 -126.5t-94 -342.5z" />
    <glyph glyph-name="Ugrave" unicode="&#xd9;" horiz-adv-x="1531" 
d="M766 -25q-281 0 -447.5 157t-166.5 448v854h325v-863q0 -323 289 -323t289 323v863h325v-854q0 -292 -164.5 -448.5t-449.5 -156.5zM792 1530l-342 249l148 156l303 -278z" />
    <glyph glyph-name="Uacute" unicode="&#xda;" horiz-adv-x="1531" 
d="M766 -25q-281 0 -447.5 157t-166.5 448v854h325v-863q0 -323 289 -323t289 323v863h325v-854q0 -292 -164.5 -448.5t-449.5 -156.5zM1082 1779l-342 -249l-109 127l303 278z" />
    <glyph glyph-name="Ucircumflex" unicode="&#xdb;" horiz-adv-x="1531" 
d="M766 -25q-281 0 -447.5 157t-166.5 448v854h325v-863q0 -323 289 -323t289 323v863h325v-854q0 -292 -164.5 -448.5t-449.5 -156.5zM689 1904h155l266 -274l-125 -100l-219 186l-219 -186l-125 100z" />
    <glyph glyph-name="Udieresis" unicode="&#xdc;" horiz-adv-x="1531" 
d="M766 -25q-281 0 -447.5 157t-166.5 448v854h325v-863q0 -323 289 -323t289 323v863h325v-854q0 -292 -164.5 -448.5t-449.5 -156.5zM840 1720q0 59 39.5 99.5t99.5 40.5t99.5 -40.5t39.5 -99.5t-39.5 -99t-99.5 -40t-99.5 40t-39.5 99zM416 1720q0 59 39.5 99.5
t99.5 40.5t99.5 -40.5t39.5 -99.5t-39.5 -99t-99.5 -40t-99.5 40t-39.5 99z" />
    <glyph glyph-name="Yacute" unicode="&#xdd;" horiz-adv-x="1355" 
d="M977 1434h350l-485 -871v-563h-328v563l-485 871h350l299 -588zM1002 1779l-342 -249l-109 127l303 278z" />
    <glyph glyph-name="Thorn" unicode="&#xde;" horiz-adv-x="1298" 
d="M1233 727q0 -230 -155.5 -351.5t-420.5 -121.5h-180v-254h-325v1434h325v-236h180q265 0 420.5 -121t155.5 -350zM903 727q0 106 -64.5 154.5t-195.5 48.5h-166v-408h166q130 0 195 49t65 156z" />
    <glyph glyph-name="germandbls" unicode="&#xdf;" horiz-adv-x="1275" 
d="M604 625v249q76 0 121 45.5t45 122.5q0 69 -40 112.5t-109 43.5q-154 0 -154 -205v-993h-326v969q0 236 126 362.5t358 126.5q210 0 341.5 -112t131.5 -275q0 -110 -55.5 -194t-157.5 -125q155 -35 244.5 -133t89.5 -252q0 -185 -111.5 -288.5t-304.5 -103.5
q-171 0 -297 74l94 221q56 -37 129 -37q75 0 117.5 42.5t42.5 121.5q0 104 -77.5 166t-207.5 62z" />
    <glyph glyph-name="agrave" unicode="&#xe0;" horiz-adv-x="1187" 
d="M762 563v82q0 98 -52 147.5t-165 49.5q-136 0 -242 -86l-172 166q85 76 207 119.5t250 43.5q477 0 477 -456v-629h-303v76q-113 -101 -297 -101q-108 0 -196.5 39.5t-142.5 119t-54 185.5q0 159 113.5 252t279.5 93q184 0 297 -101zM762 279v81q-83 80 -213 80
q-76 0 -119 -32t-43 -89t42.5 -88.5t119.5 -31.5q130 0 213 80zM651 1174l-342 249l148 156l303 -278z" />
    <glyph glyph-name="aacute" unicode="&#xe1;" horiz-adv-x="1187" 
d="M762 563v82q0 98 -52 147.5t-165 49.5q-136 0 -242 -86l-172 166q85 76 207 119.5t250 43.5q477 0 477 -456v-629h-303v76q-113 -101 -297 -101q-108 0 -196.5 39.5t-142.5 119t-54 185.5q0 159 113.5 252t279.5 93q184 0 297 -101zM762 279v81q-83 80 -213 80
q-76 0 -119 -32t-43 -89t42.5 -88.5t119.5 -31.5q130 0 213 80zM883 1423l-342 -249l-109 127l303 278z" />
    <glyph glyph-name="acircumflex" unicode="&#xe2;" horiz-adv-x="1187" 
d="M762 563v82q0 98 -52 147.5t-165 49.5q-136 0 -242 -86l-172 166q85 76 207 119.5t250 43.5q477 0 477 -456v-629h-303v76q-113 -101 -297 -101q-108 0 -196.5 39.5t-142.5 119t-54 185.5q0 159 113.5 252t279.5 93q184 0 297 -101zM762 279v81q-83 80 -213 80
q-76 0 -119 -32t-43 -89t42.5 -88.5t119.5 -31.5q130 0 213 80zM525 1548h155l266 -274l-125 -100l-219 186l-219 -186l-125 100z" />
    <glyph glyph-name="atilde" unicode="&#xe3;" horiz-adv-x="1187" 
d="M762 563v82q0 98 -52 147.5t-165 49.5q-136 0 -242 -86l-172 166q85 76 207 119.5t250 43.5q477 0 477 -456v-629h-303v76q-113 -101 -297 -101q-108 0 -196.5 39.5t-142.5 119t-54 185.5q0 159 113.5 252t279.5 93q184 0 297 -101zM762 279v81q-83 80 -213 80
q-76 0 -119 -32t-43 -89t42.5 -88.5t119.5 -31.5q130 0 213 80zM774 1505l178 -22q-15 -123 -72 -188.5t-147 -65.5q-48 0 -97 23.5t-88.5 47t-62.5 23.5q-26 0 -43.5 -22t-21.5 -64l-178 23q15 123 72 188t147 65q48 0 97 -23.5t88.5 -47t62.5 -23.5q26 0 43.5 22t21.5 64z
" />
    <glyph glyph-name="adieresis" unicode="&#xe4;" horiz-adv-x="1187" 
d="M762 563v82q0 98 -52 147.5t-165 49.5q-136 0 -242 -86l-172 166q85 76 207 119.5t250 43.5q477 0 477 -456v-629h-303v76q-113 -101 -297 -101q-108 0 -196.5 39.5t-142.5 119t-54 185.5q0 159 113.5 252t279.5 93q184 0 297 -101zM762 279v81q-83 80 -213 80
q-76 0 -119 -32t-43 -89t42.5 -88.5t119.5 -31.5q130 0 213 80zM682 1364q0 59 39.5 99t99.5 40t100 -40t40 -99t-40 -99t-100 -40t-99.5 40t-39.5 99zM258 1364q0 59 39.5 99t99.5 40t100 -40t40 -99t-40 -99t-100 -40t-99.5 40t-39.5 99z" />
    <glyph glyph-name="aring" unicode="&#xe5;" horiz-adv-x="1187" 
d="M762 563v82q0 98 -52 147.5t-165 49.5q-136 0 -242 -86l-172 166q85 76 207 119.5t250 43.5q477 0 477 -456v-629h-303v76q-113 -101 -297 -101q-108 0 -196.5 39.5t-142.5 119t-54 185.5q0 159 113.5 252t279.5 93q184 0 297 -101zM762 279v81q-83 80 -213 80
q-76 0 -119 -32t-43 -89t42.5 -88.5t119.5 -31.5q130 0 213 80zM527 1372q0 -35 21.5 -57.5t55.5 -22.5t56 22.5t22 57.5t-22 57.5t-56 22.5t-55.5 -22.5t-21.5 -57.5zM369 1372q0 95 67.5 160t167.5 65t168 -65t68 -160t-68 -160t-168 -65t-167.5 65t-67.5 160z" />
    <glyph glyph-name="ae" unicode="&#xe6;" horiz-adv-x="1894" 
d="M1819 526q0 -71 -4 -96h-748q17 -100 86.5 -155.5t179.5 -55.5q141 0 230 123l215 -149q-164 -218 -457 -218q-264 0 -414 160q-160 -160 -426 -160q-116 0 -207.5 39.5t-146.5 118.5t-55 186q0 159 113.5 252t279.5 93q173 0 295 -84q0 20 2 28v37q0 98 -52 147.5
t-165 49.5q-136 0 -242 -86l-172 166q85 76 207 119.5t250 43.5q122 0 215 -37t145 -108q52 66 143 105.5t199 39.5q236 0 382.5 -155.5t146.5 -403.5zM549 199q152 0 252 94q-18 45 -25 74q-106 73 -227 73q-76 0 -119 -32t-43 -89t42.5 -88.5t119.5 -31.5zM1290 842
q-94 0 -153 -52.5t-72 -148.5h446q-9 93 -69 147t-152 54z" />
    <glyph glyph-name="ccedilla" unicode="&#xe7;" horiz-adv-x="1142" 
d="M561 -330q40 0 64 17t24 47q0 36 -43 59.5t-123 24.5l-16 22l65 142q-211 25 -333.5 174t-122.5 374q0 246 146 400.5t390 154.5q161 0 287 -70.5t199 -195.5l-240 -117q-87 140 -225 140q-117 0 -179.5 -83.5t-62.5 -228.5t62.5 -228t179.5 -83q138 0 225 139l240 -116
q-58 -98 -147.5 -163t-205.5 -89l-43 -88q72 -19 115 -69t43 -118q0 -85 -70 -143.5t-200 -58.5q-139 0 -234 75l101 121q42 -39 104 -39z" />
    <glyph glyph-name="egrave" unicode="&#xe8;" horiz-adv-x="1212" 
d="M1137 526q0 -71 -4 -96h-748q17 -100 86.5 -155.5t179.5 -55.5q141 0 230 123l215 -149q-164 -218 -457 -218q-258 0 -410.5 154.5t-152.5 400.5q0 245 147 400t385 155q236 0 382.5 -155.5t146.5 -403.5zM608 842q-94 0 -153 -52.5t-72 -148.5h446q-9 93 -69 147
t-152 54zM680 1174l-342 249l148 156l303 -278z" />
    <glyph glyph-name="eacute" unicode="&#xe9;" horiz-adv-x="1212" 
d="M1137 526q0 -71 -4 -96h-748q17 -100 86.5 -155.5t179.5 -55.5q141 0 230 123l215 -149q-164 -218 -457 -218q-258 0 -410.5 154.5t-152.5 400.5q0 245 147 400t385 155q236 0 382.5 -155.5t146.5 -403.5zM608 842q-94 0 -153 -52.5t-72 -148.5h446q-9 93 -69 147
t-152 54zM895 1423l-342 -249l-109 127l303 278z" />
    <glyph glyph-name="ecircumflex" unicode="&#xea;" horiz-adv-x="1212" 
d="M1137 526q0 -71 -4 -96h-748q17 -100 86.5 -155.5t179.5 -55.5q141 0 230 123l215 -149q-164 -218 -457 -218q-258 0 -410.5 154.5t-152.5 400.5q0 245 147 400t385 155q236 0 382.5 -155.5t146.5 -403.5zM608 842q-94 0 -153 -52.5t-72 -148.5h446q-9 93 -69 147
t-152 54zM520 1548h156l266 -274l-125 -100l-219 186l-219 -186l-125 100z" />
    <glyph glyph-name="edieresis" unicode="&#xeb;" horiz-adv-x="1212" 
d="M1137 526q0 -71 -4 -96h-748q17 -100 86.5 -155.5t179.5 -55.5q141 0 230 123l215 -149q-164 -218 -457 -218q-258 0 -410.5 154.5t-152.5 400.5q0 245 147 400t385 155q236 0 382.5 -155.5t146.5 -403.5zM608 842q-94 0 -153 -52.5t-72 -148.5h446q-9 93 -69 147
t-152 54zM670 1364q0 59 39.5 99t99.5 40t100 -40t40 -99t-40 -99t-100 -40t-99.5 40t-39.5 99zM246 1364q0 59 39.5 99t99.5 40t100 -40t40 -99t-40 -99t-100 -40t-99.5 40t-39.5 99z" />
    <glyph glyph-name="igrave" unicode="&#xec;" horiz-adv-x="598" 
d="M143 0v1061h312v-1061h-312zM315 1174l-342 249l148 156l303 -278z" />
    <glyph glyph-name="iacute" unicode="&#xed;" horiz-adv-x="598" 
d="M143 0v1061h312v-1061h-312zM625 1423l-342 -249l-109 127l303 278z" />
    <glyph glyph-name="icircumflex" unicode="&#xee;" horiz-adv-x="598" 
d="M143 0v1061h312v-1061h-312zM222 1548h155l266 -274l-125 -100l-219 186l-219 -186l-125 100z" />
    <glyph glyph-name="idieresis" unicode="&#xef;" horiz-adv-x="598" 
d="M143 0v1061h312v-1061h-312zM373 1364q0 59 39.5 99t99.5 40t99.5 -40t39.5 -99t-39.5 -99t-99.5 -40t-99.5 40t-39.5 99zM-51 1364q0 59 39.5 99t99.5 40t99.5 -40t39.5 -99t-39.5 -99t-99.5 -40t-99.5 40t-39.5 99z" />
    <glyph glyph-name="eth" unicode="&#xf0;" horiz-adv-x="1210" 
d="M354 1178l168 65q-81 29 -184 45v207q275 -26 461 -145l243 94l54 -131l-174 -68q204 -214 204 -594q0 -315 -140 -495.5t-398 -180.5q-228 0 -366 141t-138 382t122 372t322 131q77 0 151.5 -27.5t127.5 -74.5q-23 157 -129 252l-270 -102zM598 758q-98 0 -154.5 -69.5
t-56.5 -194.5q0 -126 57 -200.5t152 -74.5q233 0 233 436q-95 103 -231 103z" />
    <glyph glyph-name="ntilde" unicode="&#xf1;" horiz-adv-x="1286" 
d="M682 842q-68 0 -133.5 -34t-106.5 -83v-725h-311v1061h311v-119q61 62 153.5 102.5t195.5 40.5q170 0 270 -105t100 -300v-680h-311v647q0 195 -168 195zM821 1505l178 -22q-15 -123 -72 -188.5t-147 -65.5q-48 0 -97 23.5t-88.5 47t-62.5 23.5q-26 0 -43.5 -22
t-21.5 -64l-178 23q15 123 72 188t147 65q48 0 97 -23.5t88.5 -47t62.5 -23.5q26 0 43.5 22t21.5 64z" />
    <glyph glyph-name="ograve" unicode="&#xf2;" horiz-adv-x="1236" 
d="M1161 530q0 -246 -149.5 -400.5t-393.5 -154.5t-393 154.5t-149 400.5t149 400.5t393 154.5t393.5 -154.5t149.5 -400.5zM846 530q0 149 -60 230.5t-168 81.5t-167.5 -81.5t-59.5 -230.5t59.5 -230t167.5 -81t168 81t60 230zM680 1174l-342 249l148 156l303 -278z" />
    <glyph glyph-name="oacute" unicode="&#xf3;" horiz-adv-x="1236" 
d="M1161 530q0 -246 -149.5 -400.5t-393.5 -154.5t-393 154.5t-149 400.5t149 400.5t393 154.5t393.5 -154.5t149.5 -400.5zM846 530q0 149 -60 230.5t-168 81.5t-167.5 -81.5t-59.5 -230.5t59.5 -230t167.5 -81t168 81t60 230zM899 1423l-342 -249l-109 127l303 278z" />
    <glyph glyph-name="ocircumflex" unicode="&#xf4;" horiz-adv-x="1236" 
d="M1161 530q0 -246 -149.5 -400.5t-393.5 -154.5t-393 154.5t-149 400.5t149 400.5t393 154.5t393.5 -154.5t149.5 -400.5zM846 530q0 149 -60 230.5t-168 81.5t-167.5 -81.5t-59.5 -230.5t59.5 -230t167.5 -81t168 81t60 230zM541 1548h155l266 -274l-125 -100l-219 186
l-219 -186l-125 100z" />
    <glyph glyph-name="otilde" unicode="&#xf5;" horiz-adv-x="1236" 
d="M1161 530q0 -246 -149.5 -400.5t-393.5 -154.5t-393 154.5t-149 400.5t149 400.5t393 154.5t393.5 -154.5t149.5 -400.5zM846 530q0 149 -60 230.5t-168 81.5t-167.5 -81.5t-59.5 -230.5t59.5 -230t167.5 -81t168 81t60 230zM796 1505l179 -22q-15 -123 -72 -188.5
t-147 -65.5q-48 0 -97 23.5t-88.5 47t-62.5 23.5q-26 0 -44 -22.5t-22 -63.5l-178 23q15 123 72 188.5t147 65.5q48 0 97 -23.5t88.5 -47.5t62.5 -24q26 0 43.5 22t21.5 64z" />
    <glyph glyph-name="odieresis" unicode="&#xf6;" horiz-adv-x="1236" 
d="M1161 530q0 -246 -149.5 -400.5t-393.5 -154.5t-393 154.5t-149 400.5t149 400.5t393 154.5t393.5 -154.5t149.5 -400.5zM846 530q0 149 -60 230.5t-168 81.5t-167.5 -81.5t-59.5 -230.5t59.5 -230t167.5 -81t168 81t60 230zM692 1364q0 59 39.5 99t99.5 40t100 -40
t40 -99t-40 -99t-100 -40t-99.5 40t-39.5 99zM268 1364q0 59 40 99t100 40t99.5 -40t39.5 -99t-39.5 -99t-99.5 -40t-100 40t-40 99z" />
    <glyph glyph-name="divide" unicode="&#xf7;" horiz-adv-x="1261" 
d="M1149 569h-1036v219h1036v-219zM786 1094q0 -65 -45.5 -110.5t-109.5 -45.5q-65 0 -110.5 46t-45.5 110t45.5 109.5t110.5 45.5t110 -45.5t45 -109.5zM786 264q0 65 -45.5 110.5t-109.5 45.5q-65 0 -110.5 -46t-45.5 -110t45.5 -109.5t110.5 -45.5t110 45.5t45 109.5z
" />
    <glyph glyph-name="oslash" unicode="&#xf8;" horiz-adv-x="1236" 
d="M123 -4l102 133q-149 152 -149 401q0 246 149 400.5t393 154.5q153 0 281 -69l100 131l115 -82l-102 -135q149 -155 149 -400q0 -246 -149.5 -400.5t-393.5 -154.5q-158 0 -282 70l-98 -131zM846 530q0 83 -23 154l-327 -430q53 -35 122 -35q108 0 168 81t60 230z
M391 530q0 -90 21 -155l327 430q-49 37 -121 37q-108 0 -167.5 -81.5t-59.5 -230.5z" />
    <glyph glyph-name="ugrave" unicode="&#xf9;" horiz-adv-x="1273" 
d="M637 -25q-241 0 -377.5 124.5t-136.5 361.5v600h311v-619q0 -109 56 -166t147 -57t147 57t56 166v619h311v-600q0 -237 -136.5 -361.5t-377.5 -124.5zM684 1174l-342 249l148 156l303 -278z" />
    <glyph glyph-name="uacute" unicode="&#xfa;" horiz-adv-x="1273" 
d="M637 -25q-241 0 -377.5 124.5t-136.5 361.5v600h311v-619q0 -109 56 -166t147 -57t147 57t56 166v619h311v-600q0 -237 -136.5 -361.5t-377.5 -124.5zM928 1423l-342 -249l-109 127l303 278z" />
    <glyph glyph-name="ucircumflex" unicode="&#xfb;" horiz-adv-x="1273" 
d="M637 -25q-241 0 -377.5 124.5t-136.5 361.5v600h311v-619q0 -109 56 -166t147 -57t147 57t56 166v619h311v-600q0 -237 -136.5 -361.5t-377.5 -124.5zM560 1548h155l266 -274l-125 -100l-219 186l-219 -186l-125 100z" />
    <glyph glyph-name="udieresis" unicode="&#xfc;" horiz-adv-x="1273" 
d="M637 -25q-241 0 -377.5 124.5t-136.5 361.5v600h311v-619q0 -109 56 -166t147 -57t147 57t56 166v619h311v-600q0 -237 -136.5 -361.5t-377.5 -124.5zM711 1364q0 59 39.5 99t99.5 40t99.5 -40t39.5 -99t-39.5 -99t-99.5 -40t-99.5 40t-39.5 99zM287 1364q0 59 39.5 99
t99.5 40t99.5 -40t39.5 -99t-39.5 -99t-99.5 -40t-99.5 40t-39.5 99z" />
    <glyph glyph-name="yacute" unicode="&#xfd;" horiz-adv-x="1177" 
d="M596 -434h-311l166 452l-422 1043h315l252 -672l240 672h313zM881 1423l-342 -249l-109 127l303 278z" />
    <glyph glyph-name="thorn" unicode="&#xfe;" horiz-adv-x="1294" 
d="M1208 530q0 -261 -121.5 -408t-332.5 -147q-179 0 -312 123v-532h-311v1929h311v-532q132 122 312 122q211 0 332.5 -147t121.5 -408zM657 842q-57 0 -116.5 -25t-98.5 -67v-439q39 -42 98.5 -67t116.5 -25q117 0 176.5 80t59.5 231t-59.5 231.5t-176.5 80.5z" />
    <glyph glyph-name="ydieresis" unicode="&#xff;" horiz-adv-x="1177" 
d="M596 -434h-311l166 452l-422 1043h315l252 -672l240 672h313zM670 1364q0 59 39.5 99t99.5 40t100 -40t40 -99t-40 -99t-100 -40t-99.5 40t-39.5 99zM246 1364q0 59 39.5 99t99.5 40t100 -40t40 -99t-40 -99t-100 -40t-99.5 40t-39.5 99z" />
    <glyph glyph-name="Amacron" unicode="&#x100;" horiz-adv-x="1478" 
d="M942 1434l500 -1434h-348l-95 295h-522l-92 -295h-348l500 1434h405zM739 1126l-180 -573h361zM426 1626v189h627v-189h-627z" />
    <glyph glyph-name="amacron" unicode="&#x101;" horiz-adv-x="1187" 
d="M762 563v82q0 98 -52 147.5t-165 49.5q-136 0 -242 -86l-172 166q85 76 207 119.5t250 43.5q477 0 477 -456v-629h-303v76q-113 -101 -297 -101q-108 0 -196.5 39.5t-142.5 119t-54 185.5q0 159 113.5 252t279.5 93q184 0 297 -101zM762 279v81q-83 80 -213 80
q-76 0 -119 -32t-43 -89t42.5 -88.5t119.5 -31.5q130 0 213 80zM289 1270v188h626v-188h-626z" />
    <glyph glyph-name="Abreve" unicode="&#x102;" horiz-adv-x="1478" 
d="M942 1434l500 -1434h-348l-95 295h-522l-92 -295h-348l500 1434h405zM739 1126l-180 -573h361zM739 1559q-137 0 -224 76.5t-116 209.5l191 39q36 -145 149 -145q114 0 150 145l190 -39q-29 -133 -116 -209.5t-224 -76.5z" />
    <glyph glyph-name="abreve" unicode="&#x103;" horiz-adv-x="1187" 
d="M762 563v82q0 98 -52 147.5t-165 49.5q-136 0 -242 -86l-172 166q85 76 207 119.5t250 43.5q477 0 477 -456v-629h-303v76q-113 -101 -297 -101q-108 0 -196.5 39.5t-142.5 119t-54 185.5q0 159 113.5 252t279.5 93q184 0 297 -101zM762 279v81q-83 80 -213 80
q-76 0 -119 -32t-43 -89t42.5 -88.5t119.5 -31.5q130 0 213 80zM600 1206q-137 0 -224 77t-116 210l191 39q37 -146 149 -146q114 0 150 146l190 -39q-29 -133 -116 -210t-224 -77z" />
    <glyph glyph-name="Aogonek" unicode="&#x104;" horiz-adv-x="1478" 
d="M1239 0h-145l-95 295h-522l-92 -295h-348l500 1434h405l500 -1434q-123 -100 -123 -201q0 -36 22 -58t56 -22q53 0 84 39l104 -118q-95 -89 -242 -89q-105 0 -172 59t-67 148q0 68 36 131.5t99 110.5zM739 1126l-180 -573h361z" />
    <glyph glyph-name="aogonek" unicode="&#x105;" horiz-adv-x="1187" 
d="M862 0h-100v76q-113 -101 -297 -101q-108 0 -196.5 39.5t-142.5 119t-54 185.5q0 159 113.5 252t279.5 93q184 0 297 -101v82q0 98 -52 147.5t-165 49.5q-136 0 -242 -86l-172 166q85 76 207 119.5t250 43.5q477 0 477 -456v-629q-123 -100 -123 -201q0 -36 22 -58
t56 -22q53 0 84 39l104 -118q-95 -89 -241 -89q-105 0 -172.5 59t-67.5 148q0 68 36 131.5t99 110.5zM762 279v81q-83 80 -213 80q-76 0 -119 -32t-43 -89t42.5 -88.5t119.5 -31.5q130 0 213 80z" />
    <glyph glyph-name="Cacute" unicode="&#x106;" horiz-adv-x="1449" 
d="M84 717q0 336 192 538.5t506 202.5q201 0 360 -87t249 -245l-271 -133q-117 193 -325 193q-167 0 -274 -123.5t-107 -345.5t107 -345.5t274 -123.5q208 0 325 192l271 -133q-90 -158 -249 -245t-360 -87q-314 0 -506 203t-192 539zM1055 1779l-342 -249l-109 127l303 278
z" />
    <glyph glyph-name="cacute" unicode="&#x107;" horiz-adv-x="1142" 
d="M76 530q0 246 146 400.5t390 154.5q161 0 287 -70.5t199 -195.5l-240 -117q-87 140 -225 140q-117 0 -179.5 -83.5t-62.5 -228.5t62.5 -228t179.5 -83q138 0 225 139l240 -116q-73 -125 -199 -196t-287 -71q-244 0 -390 154.5t-146 400.5zM867 1423l-342 -249l-109 127
l303 278z" />
    <glyph glyph-name="Ccircumflex" unicode="&#x108;" horiz-adv-x="1449" 
d="M84 717q0 336 192 538.5t506 202.5q201 0 360 -87t249 -245l-271 -133q-117 193 -325 193q-167 0 -274 -123.5t-107 -345.5t107 -345.5t274 -123.5q208 0 325 192l271 -133q-90 -158 -249 -245t-360 -87q-314 0 -506 203t-192 539zM689 1904h155l266 -274l-125 -100
l-219 186l-219 -186l-125 100z" />
    <glyph glyph-name="ccircumflex" unicode="&#x109;" horiz-adv-x="1142" 
d="M76 530q0 246 146 400.5t390 154.5q161 0 287 -70.5t199 -195.5l-240 -117q-87 140 -225 140q-117 0 -179.5 -83.5t-62.5 -228.5t62.5 -228t179.5 -83q138 0 225 139l240 -116q-73 -125 -199 -196t-287 -71q-244 0 -390 154.5t-146 400.5zM527 1548h155l266 -274
l-125 -100l-219 186l-219 -186l-125 100z" />
    <glyph glyph-name="Cdotaccent" unicode="&#x10a;" horiz-adv-x="1449" 
d="M84 717q0 336 192 538.5t506 202.5q201 0 360 -87t249 -245l-271 -133q-117 193 -325 193q-167 0 -274 -123.5t-107 -345.5t107 -345.5t274 -123.5q208 0 325 192l271 -133q-90 -158 -249 -245t-360 -87q-314 0 -506 203t-192 539zM614 1720q0 59 40 99.5t100 40.5
t99.5 -40.5t39.5 -99.5t-39.5 -99t-99.5 -40t-100 40t-40 99z" />
    <glyph glyph-name="cdotaccent" unicode="&#x10b;" horiz-adv-x="1142" 
d="M76 530q0 246 146 400.5t390 154.5q161 0 287 -70.5t199 -195.5l-240 -117q-87 140 -225 140q-117 0 -179.5 -83.5t-62.5 -228.5t62.5 -228t179.5 -83q138 0 225 139l240 -116q-73 -125 -199 -196t-287 -71q-244 0 -390 154.5t-146 400.5zM459 1364q0 59 39.5 99t99.5 40
t99.5 -40t39.5 -99t-39.5 -99t-99.5 -40t-99.5 40t-39.5 99z" />
    <glyph glyph-name="Ccaron" unicode="&#x10c;" horiz-adv-x="1449" 
d="M84 717q0 336 192 538.5t506 202.5q201 0 360 -87t249 -245l-271 -133q-117 193 -325 193q-167 0 -274 -123.5t-107 -345.5t107 -345.5t274 -123.5q208 0 325 192l271 -133q-90 -158 -249 -245t-360 -87q-314 0 -506 203t-192 539zM838 1554h-156l-266 275l125 100
l219 -186l219 186l125 -100z" />
    <glyph glyph-name="ccaron" unicode="&#x10d;" horiz-adv-x="1142" 
d="M76 530q0 246 146 400.5t390 154.5q161 0 287 -70.5t199 -195.5l-240 -117q-87 140 -225 140q-117 0 -179.5 -83.5t-62.5 -228.5t62.5 -228t179.5 -83q138 0 225 139l240 -116q-73 -125 -199 -196t-287 -71q-244 0 -390 154.5t-146 400.5zM686 1198h-156l-266 275
l125 100l219 -187l219 187l125 -100z" />
    <glyph glyph-name="Dcaron" unicode="&#x10e;" horiz-adv-x="1460" 
d="M477 1165v-897h187q177 0 278.5 114.5t101.5 334.5t-101.5 334t-278.5 114h-187zM1374 717q0 -212 -84 -374t-243 -252.5t-371 -90.5h-524v1434h524q319 0 508.5 -198t189.5 -519zM692 1554h-155l-267 275l125 100l219 -186l219 186l125 -100z" />
    <glyph glyph-name="dcaron" unicode="&#x10f;" horiz-adv-x="1568" 
d="M84 530q0 261 122 408t333 147q179 0 311 -122v532h311v-1495h-311v98q-133 -123 -311 -123q-211 0 -333 147t-122 408zM635 842q-117 0 -176.5 -80.5t-59.5 -231.5t59.5 -231t176.5 -80q57 0 116.5 25t98.5 67v439q-39 42 -98.5 67t-116.5 25zM1237 1008l143 512
l215 -72l-194 -490z" />
    <glyph glyph-name="Dcroat" unicode="&#x110;" horiz-adv-x="1460" 
d="M1374 717q0 -212 -84 -374t-243 -252.5t-371 -90.5h-524v635h-150v164h150v635h524q319 0 508.5 -198t189.5 -519zM752 635h-275v-367h187q177 0 278.5 114.5t101.5 334.5t-101.5 334t-278.5 114h-187v-366h275v-164z" />
    <glyph glyph-name="dcroat" unicode="&#x111;" horiz-adv-x="1294" 
d="M477 1364h373v131h311v-131h127v-160h-127v-1204h-311v98q-133 -123 -311 -123q-211 0 -333 147t-122 408t122 408t333 147q179 0 311 -122v241h-373v160zM635 842q-117 0 -176.5 -80.5t-59.5 -231.5t59.5 -231t176.5 -80q57 0 116.5 25t98.5 67v439q-39 42 -98.5 67
t-116.5 25z" />
    <glyph glyph-name="Emacron" unicode="&#x112;" horiz-adv-x="1212" 
d="M152 0v1434h958v-260h-633v-308h561v-260h-561v-346h651v-260h-976zM322 1626v189h626v-189h-626z" />
    <glyph glyph-name="emacron" unicode="&#x113;" horiz-adv-x="1212" 
d="M1137 526q0 -71 -4 -96h-748q17 -100 86.5 -155.5t179.5 -55.5q141 0 230 123l215 -149q-164 -218 -457 -218q-258 0 -410.5 154.5t-152.5 400.5q0 245 147 400t385 155q236 0 382.5 -155.5t146.5 -403.5zM608 842q-94 0 -153 -52.5t-72 -148.5h446q-9 93 -69 147
t-152 54zM283 1270v188h626v-188h-626z" />
    <glyph glyph-name="Ebreve" unicode="&#x114;" horiz-adv-x="1212" 
d="M152 0v1434h958v-260h-633v-308h561v-260h-561v-346h651v-260h-976zM635 1559q-137 0 -224 76.5t-116 209.5l190 39q36 -145 150 -145q113 0 149 145l191 -39q-29 -133 -116 -209.5t-224 -76.5z" />
    <glyph glyph-name="ebreve" unicode="&#x115;" horiz-adv-x="1212" 
d="M1137 526q0 -71 -4 -96h-748q17 -100 86.5 -155.5t179.5 -55.5q141 0 230 123l215 -149q-164 -218 -457 -218q-258 0 -410.5 154.5t-152.5 400.5q0 245 147 400t385 155q236 0 382.5 -155.5t146.5 -403.5zM608 842q-94 0 -153 -52.5t-72 -148.5h446q-9 93 -69 147
t-152 54zM596 1206q-137 0 -224 77t-116 210l190 39q36 -146 150 -146q112 0 149 146l191 -39q-29 -133 -116 -210t-224 -77z" />
    <glyph glyph-name="Edotaccent" unicode="&#x116;" horiz-adv-x="1212" 
d="M152 0v1434h958v-260h-633v-308h561v-260h-561v-346h651v-260h-976zM496 1720q0 59 39.5 99.5t99.5 40.5t99.5 -40.5t39.5 -99.5t-39.5 -99t-99.5 -40t-99.5 40t-39.5 99z" />
    <glyph glyph-name="edotaccent" unicode="&#x117;" horiz-adv-x="1212" 
d="M1137 526q0 -71 -4 -96h-748q17 -100 86.5 -155.5t179.5 -55.5q141 0 230 123l215 -149q-164 -218 -457 -218q-258 0 -410.5 154.5t-152.5 400.5q0 245 147 400t385 155q236 0 382.5 -155.5t146.5 -403.5zM608 842q-94 0 -153 -52.5t-72 -148.5h446q-9 93 -69 147
t-152 54zM457 1364q0 59 39.5 99t99.5 40t99.5 -40t39.5 -99t-39.5 -99t-99.5 -40t-99.5 40t-39.5 99z" />
    <glyph glyph-name="Eogonek" unicode="&#x118;" horiz-adv-x="1212" 
d="M152 0v1434h958v-260h-633v-308h561v-260h-561v-346h651v-260h-106q-123 -100 -123 -201q0 -36 22 -58t56 -22q53 0 84 39l104 -118q-95 -89 -241 -89q-105 0 -172.5 59t-67.5 148q0 68 36 131.5t99 110.5h-667z" />
    <glyph glyph-name="eogonek" unicode="&#x119;" horiz-adv-x="1212" 
d="M1137 526q0 -71 -4 -96h-748q17 -100 86.5 -155.5t179.5 -55.5q141 0 230 123l215 -149q-117 -157 -312 -201q-112 -90 -112 -193q0 -36 22 -58t56 -22q53 0 84 39l104 -118q-95 -89 -242 -89q-105 0 -172 59t-67 148q0 128 108 222q-227 23 -358 172.5t-131 377.5
q0 245 147 400t385 155q236 0 382.5 -155.5t146.5 -403.5zM608 842q-94 0 -153 -52.5t-72 -148.5h446q-9 93 -69 147t-152 54z" />
    <glyph glyph-name="Ecaron" unicode="&#x11a;" horiz-adv-x="1212" 
d="M152 0v1434h958v-260h-633v-308h561v-260h-561v-346h651v-260h-976zM713 1554h-155l-267 275l125 100l219 -186l219 186l125 -100z" />
    <glyph glyph-name="ecaron" unicode="&#x11b;" horiz-adv-x="1212" 
d="M1137 526q0 -71 -4 -96h-748q17 -100 86.5 -155.5t179.5 -55.5q141 0 230 123l215 -149q-164 -218 -457 -218q-258 0 -410.5 154.5t-152.5 400.5q0 245 147 400t385 155q236 0 382.5 -155.5t146.5 -403.5zM608 842q-94 0 -153 -52.5t-72 -148.5h446q-9 93 -69 147
t-152 54zM674 1198h-155l-267 275l125 100l219 -186l219 186l125 -100z" />
    <glyph glyph-name="Gcircumflex" unicode="&#x11c;" horiz-adv-x="1505" 
d="M84 717q0 221 88 390t244 260t356 91q208 0 365.5 -84.5t251.5 -245.5l-273 -133q-112 191 -332 191q-157 0 -263.5 -124t-106.5 -345q0 -222 111.5 -345.5t281.5 -123.5q89 0 162 28.5t112 81.5v197h-288v236h600v-553q-98 -125 -249.5 -194t-340.5 -69q-156 0 -289 53
t-228 148.5t-148.5 234.5t-53.5 306zM684 1905h156l266 -275l-125 -100l-219 186l-219 -186l-125 100z" />
    <glyph glyph-name="gcircumflex" unicode="&#x11d;" horiz-adv-x="1294" 
d="M850 963v98h311v-1000q0 -251 -139.5 -385.5t-394.5 -134.5q-155 0 -280.5 53t-209.5 152l217 141q109 -125 262 -125q105 0 169.5 65t64.5 187v92q-132 -122 -311 -122q-210 0 -332.5 146.5t-122.5 404.5t122 404t333 146q179 0 311 -122zM635 227q57 0 116.5 25
t98.5 67v431q-39 42 -98.5 67t-116.5 25q-117 0 -176.5 -79.5t-59.5 -227.5t59.5 -228t176.5 -80zM578 1548h155l266 -274l-125 -100l-219 186l-219 -186l-125 100z" />
    <glyph glyph-name="Gbreve" unicode="&#x11e;" horiz-adv-x="1505" 
d="M84 717q0 221 88 390t244 260t356 91q208 0 365.5 -84.5t251.5 -245.5l-273 -133q-112 191 -332 191q-157 0 -263.5 -124t-106.5 -345q0 -222 111.5 -345.5t281.5 -123.5q89 0 162 28.5t112 81.5v197h-288v236h600v-553q-98 -125 -249.5 -194t-340.5 -69q-156 0 -289 53
t-228 148.5t-148.5 234.5t-53.5 306zM761 1558q-137 0 -224 77t-116 210l191 39q36 -145 149 -145q114 0 150 145l190 -39q-29 -133 -116 -210t-224 -77z" />
    <glyph glyph-name="gbreve" unicode="&#x11f;" horiz-adv-x="1294" 
d="M850 963v98h311v-1000q0 -251 -139.5 -385.5t-394.5 -134.5q-155 0 -280.5 53t-209.5 152l217 141q109 -125 262 -125q105 0 169.5 65t64.5 187v92q-132 -122 -311 -122q-210 0 -332.5 146.5t-122.5 404.5t122 404t333 146q179 0 311 -122zM635 227q57 0 116.5 25
t98.5 67v431q-39 42 -98.5 67t-116.5 25q-117 0 -176.5 -79.5t-59.5 -227.5t59.5 -228t176.5 -80zM657 1206q-137 0 -224 77t-116 210l191 39q36 -145 149 -145q114 0 150 145l190 -39q-29 -133 -116 -210t-224 -77z" />
    <glyph glyph-name="Gdotaccent" unicode="&#x120;" horiz-adv-x="1505" 
d="M84 717q0 221 88 390t244 260t356 91q208 0 365.5 -84.5t251.5 -245.5l-273 -133q-112 191 -332 191q-157 0 -263.5 -124t-106.5 -345q0 -222 111.5 -345.5t281.5 -123.5q89 0 162 28.5t112 81.5v197h-288v236h600v-553q-98 -125 -249.5 -194t-340.5 -69q-156 0 -289 53
t-228 148.5t-148.5 234.5t-53.5 306zM623 1720q0 59 39.5 99.5t99.5 40.5t99.5 -40.5t39.5 -99.5t-39.5 -99t-99.5 -40t-99.5 40t-39.5 99z" />
    <glyph glyph-name="gdotaccent" unicode="&#x121;" horiz-adv-x="1294" 
d="M850 963v98h311v-1000q0 -251 -139.5 -385.5t-394.5 -134.5q-155 0 -280.5 53t-209.5 152l217 141q109 -125 262 -125q105 0 169.5 65t64.5 187v92q-132 -122 -311 -122q-210 0 -332.5 146.5t-122.5 404.5t122 404t333 146q179 0 311 -122zM635 227q57 0 116.5 25
t98.5 67v431q-39 42 -98.5 67t-116.5 25q-117 0 -176.5 -79.5t-59.5 -227.5t59.5 -228t176.5 -80zM514 1364q0 59 39.5 99t99.5 40t100 -40t40 -99t-40 -99t-100 -40t-99.5 40t-39.5 99z" />
    <glyph glyph-name="Gcommaaccent" unicode="&#x122;" horiz-adv-x="1505" 
d="M84 717q0 221 88 390t244 260t356 91q208 0 365.5 -84.5t251.5 -245.5l-273 -133q-112 191 -332 191q-157 0 -263.5 -124t-106.5 -345q0 -222 111.5 -345.5t281.5 -123.5q89 0 162 28.5t112 81.5v197h-288v236h600v-553q-98 -125 -249.5 -194t-340.5 -69q-156 0 -289 53
t-228 148.5t-148.5 234.5t-53.5 306zM623 -500l118 414l205 -70l-160 -401z" />
    <glyph glyph-name="gcommaaccent" unicode="&#x123;" horiz-adv-x="1294" 
d="M850 963v98h311v-1000q0 -251 -139.5 -385.5t-394.5 -134.5q-155 0 -280.5 53t-209.5 152l217 141q109 -125 262 -125q105 0 169.5 65t64.5 187v92q-132 -122 -311 -122q-210 0 -332.5 146.5t-122.5 404.5t122 404t333 146q179 0 311 -122zM635 227q57 0 116.5 25
t98.5 67v431q-39 42 -98.5 67t-116.5 25q-117 0 -176.5 -79.5t-59.5 -227.5t59.5 -228t176.5 -80zM831 1599l-118 -413l-205 69l160 402z" />
    <glyph glyph-name="Hcircumflex" unicode="&#x124;" horiz-adv-x="1505" 
d="M152 0v1434h325v-545h551v545h326v-1434h-326v621h-551v-621h-325zM674 1904h155l266 -274l-125 -100l-219 186l-219 -186l-125 100z" />
    <glyph glyph-name="hcircumflex" unicode="&#x125;" horiz-adv-x="1286" 
d="M682 842q-68 0 -133.5 -34t-106.5 -83v-725h-311v1495h311v-553q61 62 153.5 102.5t195.5 40.5q170 0 270 -105t100 -300v-680h-311v647q0 195 -168 195zM211 1904h155l266 -274l-125 -100l-219 186l-219 -186l-125 100z" />
    <glyph glyph-name="Hbar" unicode="&#x126;" horiz-adv-x="1505" 
d="M29 1247h123v187h325v-187h551v187h326v-187h123v-164h-123v-1083h-326v621h-551v-621h-325v1083h-123v164zM477 889h551v194h-551v-194z" />
    <glyph glyph-name="hbar" unicode="&#x127;" horiz-adv-x="1286" 
d="M4 1364h127v131h311v-131h373v-160h-373v-262q61 62 153.5 102.5t195.5 40.5q170 0 270 -105t100 -300v-680h-311v647q0 195 -168 195q-68 0 -133.5 -34t-106.5 -83v-725h-311v1204h-127v160z" />
    <glyph glyph-name="Itilde" unicode="&#x128;" horiz-adv-x="647" 
d="M160 1434h327v-1434h-327v1434zM502 1862l178 -23q-15 -123 -72 -188.5t-147 -65.5q-48 0 -97 23.5t-88.5 47t-62.5 23.5q-26 0 -44 -22.5t-22 -63.5l-178 23q15 123 72 188.5t147 65.5q48 0 97 -23.5t88.5 -47t62.5 -23.5q26 0 44 22.5t22 63.5z" />
    <glyph glyph-name="itilde" unicode="&#x129;" horiz-adv-x="598" 
d="M143 0v1061h312v-1061h-312zM477 1505l179 -22q-15 -123 -72 -188.5t-147 -65.5q-48 0 -97 23.5t-88.5 47t-62.5 23.5q-26 0 -44 -22.5t-22 -63.5l-178 23q15 123 72 188.5t147 65.5q48 0 97 -23.5t88.5 -47.5t62.5 -24q26 0 43.5 22t21.5 64z" />
    <glyph glyph-name="Imacron" unicode="&#x12a;" horiz-adv-x="647" 
d="M160 1434h327v-1434h-327v1434zM10 1626v188h627v-188h-627z" />
    <glyph glyph-name="imacron" unicode="&#x12b;" horiz-adv-x="598" 
d="M143 0v1061h312v-1061h-312zM-14 1270v188h626v-188h-626z" />
    <glyph glyph-name="Ibreve" unicode="&#x12c;" horiz-adv-x="647" 
d="M160 1434h327v-1434h-327v1434zM324 1559q-137 0 -224 76.5t-116 209.5l190 39q36 -145 150 -145q113 0 149 145l191 -39q-29 -133 -116 -209.5t-224 -76.5z" />
    <glyph glyph-name="ibreve" unicode="&#x12d;" horiz-adv-x="598" 
d="M143 0v1061h312v-1061h-312zM299 1206q-137 0 -224 77t-116 210l191 39q36 -146 149 -146t150 146l190 -39q-29 -133 -116 -210t-224 -77z" />
    <glyph glyph-name="Iogonek" unicode="&#x12e;" horiz-adv-x="647" 
d="M285 0h-125v1434h327v-1434q-122 -99 -122 -201q0 -36 21.5 -58t55.5 -22q53 0 84 39l105 -118q-95 -89 -242 -89q-105 0 -172 59t-67 148q0 68 36 131.5t99 110.5z" />
    <glyph glyph-name="iogonek" unicode="&#x12f;" horiz-adv-x="598" 
d="M143 0v1061h312v-1061q-123 -100 -123 -201q0 -36 22 -58t56 -22q53 0 84 39l104 -118q-95 -89 -242 -89q-105 0 -172 59t-67 148q0 68 36 131.5t99 110.5h-109zM483 1348q0 -76 -53.5 -128.5t-130.5 -52.5t-130.5 52.5t-53.5 128.5t53.5 128t130.5 52t130.5 -52
t53.5 -128z" />
    <glyph glyph-name="Idotaccent" unicode="&#x130;" horiz-adv-x="647" 
d="M160 1434h327v-1434h-327v1434zM184 1720q0 59 39.5 99t99.5 40t100 -40t40 -99t-40 -99t-100 -40t-99.5 40t-39.5 99z" />
    <glyph glyph-name="dotlessi" unicode="&#x131;" horiz-adv-x="598" 
d="M143 0v1061h312v-1061h-312z" />
    <glyph glyph-name="IJ" unicode="&#x132;" horiz-adv-x="1878" 
d="M160 1434h327v-1434h-327v1434zM1184 248q104 0 160.5 68.5t56.5 187.5v930h325v-918q0 -250 -138.5 -395.5t-393.5 -145.5q-176 0 -311.5 78t-210.5 221l262 144q88 -170 250 -170z" />
    <glyph glyph-name="ij" unicode="&#x133;" horiz-adv-x="1185" 
d="M143 0v1061h312v-1061h-312zM483 1348q0 -76 -53.5 -128.5t-130.5 -52.5t-130.5 52.5t-53.5 128.5t53.5 128t130.5 52t130.5 -52t53.5 -128zM598 -457q-70 0 -117 6v240q29 -2 90 -2q86 0 123 40.5t37 127.5v1106h311v-1043q0 -127 -20.5 -212t-70.5 -146t-136 -89
t-217 -28zM1071 1348q0 -76 -53.5 -128.5t-130.5 -52.5t-131 52.5t-54 128.5t54 128t131 52t130.5 -52t53.5 -128z" />
    <glyph glyph-name="Jcircumflex" unicode="&#x134;" horiz-adv-x="1261" 
d="M567 248q104 0 160.5 68.5t56.5 187.5v930h326v-918q0 -250 -138.5 -395.5t-393.5 -145.5q-176 0 -312 78t-211 221l262 144q88 -170 250 -170zM871 1904h155l266 -274l-125 -100l-219 186l-219 -186l-125 100z" />
    <glyph glyph-name="jcircumflex" unicode="&#x135;" horiz-adv-x="598" 
d="M10 -457q-70 0 -116 6v240q29 -2 90 -2q86 0 122.5 40.5t36.5 127.5v1106h312v-1043q0 -127 -20.5 -212t-70.5 -146t-136.5 -89t-217.5 -28zM221 1548h156l266 -274l-125 -100l-219 186l-219 -186l-125 100z" />
    <glyph glyph-name="Kcommaaccent" unicode="&#x136;" horiz-adv-x="1382" 
d="M477 1434v-648l463 648h360l-450 -590l514 -844h-369l-338 586l-180 -234v-352h-325v1434h325zM524 -500l119 414l205 -70l-160 -401z" />
    <glyph glyph-name="kcommaaccent" unicode="&#x137;" horiz-adv-x="1202" 
d="M131 1495h311v-868l346 434h355l-352 -402l401 -659h-338l-254 444l-158 -180v-264h-311v1495zM430 -500l119 414l205 -70l-160 -401z" />
    <glyph glyph-name="kgreenlandic" unicode="&#x138;" horiz-adv-x="1202" 
d="M131 1061h311v-434l346 434h355l-352 -402l401 -659h-338l-254 444l-158 -180v-264h-311v1061z" />
    <glyph glyph-name="Lacute" unicode="&#x139;" horiz-adv-x="1150" 
d="M152 0v1434h325v-1166h637v-268h-962zM637 1779l-342 -249l-109 127l303 278z" />
    <glyph glyph-name="lacute" unicode="&#x13a;" horiz-adv-x="593" 
d="M141 0v1495h312v-1495h-312zM623 1779l-342 -249l-109 127l303 278z" />
    <glyph glyph-name="Lcommaaccent" unicode="&#x13b;" horiz-adv-x="1150" 
d="M152 0v1434h325v-1166h637v-268h-962zM455 -500l118 414l205 -70l-160 -401z" />
    <glyph glyph-name="lcommaaccent" unicode="&#x13c;" horiz-adv-x="593" 
d="M141 0v1495h312v-1495h-312zM104 -500l119 414l205 -70l-160 -401z" />
    <glyph glyph-name="Lcaron" unicode="&#x13d;" horiz-adv-x="1150" 
d="M152 0v1434h325v-1166h637v-268h-962zM690 1008l144 512l215 -72l-195 -490z" />
    <glyph glyph-name="lcaron" unicode="&#x13e;" horiz-adv-x="860" 
d="M141 0v1495h312v-1495h-312zM528 1008l144 512l215 -72l-195 -490z" />
    <glyph glyph-name="Ldot" unicode="&#x13f;" horiz-adv-x="1150" 
d="M152 0v1434h325v-1166h637v-268h-962zM704 770q0 59 39.5 99t99.5 40t100 -40t40 -99t-40 -99t-100 -40t-99.5 40t-39.5 99z" />
    <glyph glyph-name="ldot" unicode="&#x140;" horiz-adv-x="968" 
d="M141 0v1495h312v-1495h-312zM639 770q0 59 39.5 99t99.5 40t100 -40t40 -99t-40 -99t-100 -40t-99.5 40t-39.5 99z" />
    <glyph glyph-name="Lslash" unicode="&#x141;" horiz-adv-x="1150" 
d="M-61 557l213 135v742h325v-535l459 291l78 -125l-537 -340v-457h637v-268h-962v518l-136 -86z" />
    <glyph glyph-name="lslash" unicode="&#x142;" horiz-adv-x="802" 
d="M246 0v608l-195 -123l-76 123l271 170v717h311v-518l195 123l75 -123l-270 -172v-805h-311z" />
    <glyph glyph-name="Nacute" unicode="&#x143;" horiz-adv-x="1501" 
d="M152 0v1434h317l565 -918v918h316v-1434h-318l-565 918v-918h-315zM1084 1779l-342 -249l-109 127l303 278z" />
    <glyph glyph-name="nacute" unicode="&#x144;" horiz-adv-x="1286" 
d="M682 842q-68 0 -133.5 -34t-106.5 -83v-725h-311v1061h311v-119q61 62 153.5 102.5t195.5 40.5q170 0 270 -105t100 -300v-680h-311v647q0 195 -168 195zM926 1423l-342 -249l-109 127l303 278z" />
    <glyph glyph-name="Ncommaaccent" unicode="&#x145;" horiz-adv-x="1501" 
d="M152 0v1434h317l565 -918v918h316v-1434h-318l-565 918v-918h-315zM598 -500l119 414l205 -70l-160 -401z" />
    <glyph glyph-name="ncommaaccent" unicode="&#x146;" horiz-adv-x="1286" 
d="M682 842q-68 0 -133.5 -34t-106.5 -83v-725h-311v1061h311v-119q61 62 153.5 102.5t195.5 40.5q170 0 270 -105t100 -300v-680h-311v647q0 195 -168 195zM459 -500l119 414l204 -70l-159 -401z" />
    <glyph glyph-name="Ncaron" unicode="&#x147;" horiz-adv-x="1501" 
d="M152 0v1434h317l565 -918v918h316v-1434h-318l-565 918v-918h-315zM827 1554h-155l-266 275l124 100l220 -186l219 186l125 -100z" />
    <glyph glyph-name="ncaron" unicode="&#x148;" horiz-adv-x="1286" 
d="M682 842q-68 0 -133.5 -34t-106.5 -83v-725h-311v1061h311v-119q61 62 153.5 102.5t195.5 40.5q170 0 270 -105t100 -300v-680h-311v647q0 195 -168 195zM721 1198h-156l-266 275l125 100l219 -187l219 187l125 -100z" />
    <glyph glyph-name="napostrophe" unicode="&#x149;" horiz-adv-x="1443" 
d="M840 842q-68 0 -133.5 -34t-106.5 -83v-725h-311v1061h311v-119q61 63 153 103t195 40q170 0 270.5 -105t100.5 -300v-680h-311v647q0 195 -168 195zM-27 1008l144 512l215 -72l-195 -490z" />
    <glyph glyph-name="Eng" unicode="&#x14a;" horiz-adv-x="1501" 
d="M1350 1434v-1416q0 -123 -20.5 -207.5t-69.5 -146.5t-136 -91.5t-217 -29.5q-69 0 -116 6v240q29 -2 90 -2q86 0 120.5 38t34.5 122v65l-569 906v-918h-315v1434h317l565 -899v899h316z" />
    <glyph glyph-name="eng" unicode="&#x14b;" horiz-adv-x="1286" 
d="M1161 680v-662q0 -127 -20.5 -212t-70.5 -146t-136 -89t-217 -28q-71 0 -117 6v240q29 -2 90 -2q86 0 123 40.5t37 127.5v692q0 195 -168 195q-68 0 -133.5 -34t-106.5 -83v-725h-311v1061h311v-119q61 62 153.5 102.5t195.5 40.5q170 0 270 -105t100 -300z" />
    <glyph glyph-name="Omacron" unicode="&#x14c;" horiz-adv-x="1523" 
d="M1440 717q0 -212 -80 -379t-235.5 -265t-362.5 -98t-362.5 98t-235.5 265t-80 379t80 379t235.5 264.5t362.5 97.5t362.5 -97.5t235.5 -264.5t80 -379zM414 717q0 -216 94 -342.5t254 -126.5t254 126.5t94 342.5t-94 342.5t-254 126.5t-254 -126.5t-94 -342.5zM448 1626
v188h627v-188h-627z" />
    <glyph glyph-name="omacron" unicode="&#x14d;" horiz-adv-x="1236" 
d="M1161 530q0 -246 -149.5 -400.5t-393.5 -154.5t-393 154.5t-149 400.5t149 400.5t393 154.5t393.5 -154.5t149.5 -400.5zM846 530q0 149 -60 230.5t-168 81.5t-167.5 -81.5t-59.5 -230.5t59.5 -230t167.5 -81t168 81t60 230zM305 1270v188h627v-188h-627z" />
    <glyph glyph-name="Obreve" unicode="&#x14e;" horiz-adv-x="1523" 
d="M1440 717q0 -212 -80 -379t-235.5 -265t-362.5 -98t-362.5 98t-235.5 265t-80 379t80 379t235.5 264.5t362.5 97.5t362.5 -97.5t235.5 -264.5t80 -379zM414 717q0 -216 94 -342.5t254 -126.5t254 126.5t94 342.5t-94 342.5t-254 126.5t-254 -126.5t-94 -342.5zM762 1559
q-137 0 -224 76.5t-116 209.5l190 39q36 -145 150 -145q113 0 149 145l191 -39q-29 -133 -116 -209.5t-224 -76.5z" />
    <glyph glyph-name="obreve" unicode="&#x14f;" horiz-adv-x="1236" 
d="M1161 530q0 -246 -149.5 -400.5t-393.5 -154.5t-393 154.5t-149 400.5t149 400.5t393 154.5t393.5 -154.5t149.5 -400.5zM846 530q0 149 -60 230.5t-168 81.5t-167.5 -81.5t-59.5 -230.5t59.5 -230t167.5 -81t168 81t60 230zM618 1206q-137 0 -223.5 77t-115.5 210
l190 39q37 -146 149 -146q114 0 150 146l190 -39q-29 -133 -116 -210t-224 -77z" />
    <glyph glyph-name="Ohungarumlaut" unicode="&#x150;" horiz-adv-x="1523" 
d="M1440 717q0 -212 -80 -379t-235.5 -265t-362.5 -98t-362.5 98t-235.5 265t-80 379t80 379t235.5 264.5t362.5 97.5t362.5 -97.5t235.5 -264.5t80 -379zM414 717q0 -216 94 -342.5t254 -126.5t254 126.5t94 342.5t-94 342.5t-254 126.5t-254 -126.5t-94 -342.5zM1104 1927
l147 -155l-333 -250l-119 125zM684 1927l158 -145l-279 -260l-125 116z" />
    <glyph glyph-name="ohungarumlaut" unicode="&#x151;" horiz-adv-x="1236" 
d="M1161 530q0 -246 -149.5 -400.5t-393.5 -154.5t-393 154.5t-149 400.5t149 400.5t393 154.5t393.5 -154.5t149.5 -400.5zM846 530q0 149 -60 230.5t-168 81.5t-167.5 -81.5t-59.5 -230.5t59.5 -230t167.5 -81t168 81t60 230zM924 1571l147 -156l-334 -250l-119 125z
M504 1571l158 -146l-279 -260l-125 117z" />
    <glyph glyph-name="OE" unicode="&#x152;" horiz-adv-x="1818" 
d="M758 1434h958v-260h-526v-308h455v-260h-455v-346h545v-260h-977q-315 0 -494.5 195t-179.5 522t179.5 522t494.5 195zM414 717q0 -219 99 -333t265 -114h84v893h-84q-166 0 -265 -114t-99 -332z" />
    <glyph glyph-name="oe" unicode="&#x153;" horiz-adv-x="1992" 
d="M1419 -25q-269 0 -411 177q-68 -87 -171.5 -132t-226.5 -45q-237 0 -385.5 155t-148.5 400t148 400t386 155q255 0 398 -172q140 172 389 172q230 0 375 -155.5t145 -403.5q0 -71 -4 -96h-748q17 -100 87 -155.5t180 -55.5q140 0 229 123l215 -149q-164 -218 -457 -218z
M1389 842q-94 0 -153.5 -52.5t-72.5 -148.5h447q-9 93 -69 147t-152 54zM846 530q0 149 -60 230.5t-168 81.5t-167.5 -81.5t-59.5 -230.5t59.5 -230t167.5 -81t168 81t60 230z" />
    <glyph glyph-name="Racute" unicode="&#x154;" horiz-adv-x="1376" 
d="M1249 989q0 -146 -72 -246t-204 -151l366 -592h-352l-311 547h-199v-547h-325v1434h522q273 0 424 -112.5t151 -332.5zM924 989q0 193 -248 193h-199v-383h199q248 0 248 190zM869 1779l-342 -249l-109 127l303 278z" />
    <glyph glyph-name="racute" unicode="&#x155;" horiz-adv-x="847" 
d="M819 1081v-245q-50 4 -80 4q-93 0 -172 -41t-125 -111v-688h-311v1061h311v-131q107 155 312 155q33 0 65 -4zM693 1423l-342 -249l-109 127l303 278z" />
    <glyph glyph-name="Rcommaaccent" unicode="&#x156;" horiz-adv-x="1376" 
d="M1249 989q0 -146 -72 -246t-204 -151l366 -592h-352l-311 547h-199v-547h-325v1434h522q273 0 424 -112.5t151 -332.5zM924 989q0 193 -248 193h-199v-383h199q248 0 248 190zM522 -500l119 414l205 -70l-160 -401z" />
    <glyph glyph-name="rcommaaccent" unicode="&#x157;" horiz-adv-x="847" 
d="M819 1081v-245q-50 4 -80 4q-93 0 -172 -41t-125 -111v-688h-311v1061h311v-131q107 155 312 155q33 0 65 -4zM86 -500l119 414l205 -70l-160 -401z" />
    <glyph glyph-name="Rcaron" unicode="&#x158;" horiz-adv-x="1376" 
d="M1249 989q0 -146 -72 -246t-204 -151l366 -592h-352l-311 547h-199v-547h-325v1434h522q273 0 424 -112.5t151 -332.5zM924 989q0 193 -248 193h-199v-383h199q248 0 248 190zM705 1554h-156l-266 275l125 100l219 -186l219 186l125 -100z" />
    <glyph glyph-name="rcaron" unicode="&#x159;" horiz-adv-x="847" 
d="M819 1081v-245q-50 4 -80 4q-93 0 -172 -41t-125 -111v-688h-311v1061h311v-131q107 155 312 155q33 0 65 -4zM539 1198h-156l-266 275l125 100l219 -187l219 187l125 -100z" />
    <glyph glyph-name="Sacute" unicode="&#x15a;" horiz-adv-x="1275" 
d="M647 238q103 0 161 39t58 106q0 52 -21.5 85.5t-89.5 68t-200 71.5q-430 123 -430 445q0 182 129.5 293.5t359.5 111.5q159 0 296 -59t231 -172l-219 -162q-53 62 -125.5 96.5t-151.5 34.5q-94 0 -142 -35t-48 -96q0 -67 60.5 -113t221.5 -96q243 -73 351 -173.5
t108 -276.5q0 -195 -144.5 -313t-387.5 -118q-184 0 -337 65.5t-264 190.5l234 172q148 -165 350 -165zM871 1779l-342 -249l-109 127l303 278z" />
    <glyph glyph-name="sacute" unicode="&#x15b;" horiz-adv-x="1079" 
d="M113 778q0 134 109.5 220.5t299.5 86.5q136 0 253 -45t200 -131l-191 -147q-37 42 -96 68t-121 26q-65 0 -102 -18t-37 -52q0 -38 51 -69t191 -72q164 -51 247.5 -134.5t83.5 -209.5q0 -146 -113 -236t-321 -90q-327 0 -512 209l205 152q128 -131 279 -131
q72 0 109.5 21.5t37.5 60.5q0 43 -44 73t-167 68q-193 60 -277.5 142t-84.5 208zM789 1423l-342 -249l-109 127l303 278z" />
    <glyph glyph-name="Scircumflex" unicode="&#x15c;" horiz-adv-x="1275" 
d="M647 238q103 0 161 39t58 106q0 52 -21.5 85.5t-89.5 68t-200 71.5q-430 123 -430 445q0 182 129.5 293.5t359.5 111.5q159 0 296 -59t231 -172l-219 -162q-53 62 -125.5 96.5t-151.5 34.5q-94 0 -142 -35t-48 -96q0 -67 60.5 -113t221.5 -96q243 -73 351 -173.5
t108 -276.5q0 -195 -144.5 -313t-387.5 -118q-184 0 -337 65.5t-264 190.5l234 172q148 -165 350 -165zM547 1904h155l266 -274l-125 -100l-219 186l-219 -186l-125 100z" />
    <glyph glyph-name="scircumflex" unicode="&#x15d;" horiz-adv-x="1079" 
d="M113 778q0 134 109.5 220.5t299.5 86.5q136 0 253 -45t200 -131l-191 -147q-37 42 -96 68t-121 26q-65 0 -102 -18t-37 -52q0 -38 51 -69t191 -72q164 -51 247.5 -134.5t83.5 -209.5q0 -146 -113 -236t-321 -90q-327 0 -512 209l205 152q128 -131 279 -131
q72 0 109.5 21.5t37.5 60.5q0 43 -44 73t-167 68q-193 60 -277.5 142t-84.5 208zM447 1548h155l266 -274l-125 -100l-219 186l-219 -186l-125 100z" />
    <glyph glyph-name="Scedilla" unicode="&#x15e;" horiz-adv-x="1275" 
d="M647 238q103 0 161 39t58 106q0 52 -21.5 85.5t-89.5 68t-200 71.5q-430 123 -430 445q0 182 129.5 293.5t359.5 111.5q159 0 296 -59t231 -172l-219 -162q-53 62 -125.5 96.5t-151.5 34.5q-94 0 -142 -35t-48 -96q0 -67 60.5 -113t221.5 -96q243 -73 351 -173.5
t108 -276.5q0 -169 -111 -281.5t-303 -140.5l-41 -82q72 -19 115 -69t43 -118q0 -85 -70 -143.5t-200 -58.5q-139 0 -234 75l101 121q42 -39 104 -39q40 0 64 17t24 47q0 36 -43 59.5t-123 24.5l-16 22l65 140q-312 30 -508 251l234 172q148 -165 350 -165z" />
    <glyph glyph-name="scedilla" unicode="&#x15f;" horiz-adv-x="1079" 
d="M113 778q0 134 109.5 220.5t299.5 86.5q136 0 253 -45t200 -131l-191 -147q-37 42 -96 68t-121 26q-65 0 -102 -18t-37 -52q0 -38 51 -69t191 -72q164 -51 247.5 -134.5t83.5 -209.5q0 -124 -81.5 -208t-235.5 -107l-41 -84q72 -19 115 -69t43 -118q0 -85 -70.5 -143.5
t-200.5 -58.5q-138 0 -233 75l100 121q42 -39 105 -39q40 0 64 17t24 47q0 36 -43 59.5t-123 24.5l-16 22l65 142q-266 29 -418 202l205 152q128 -131 279 -131q72 0 109.5 21.5t37.5 60.5q0 43 -44 73t-167 68q-193 60 -277.5 142t-84.5 208z" />
    <glyph glyph-name="Scaron" unicode="&#x160;" horiz-adv-x="1275" 
d="M647 238q103 0 161 39t58 106q0 52 -21.5 85.5t-89.5 68t-200 71.5q-430 123 -430 445q0 182 129.5 293.5t359.5 111.5q159 0 296 -59t231 -172l-219 -162q-53 62 -125.5 96.5t-151.5 34.5q-94 0 -142 -35t-48 -96q0 -67 60.5 -113t221.5 -96q243 -73 351 -173.5
t108 -276.5q0 -195 -144.5 -313t-387.5 -118q-184 0 -337 65.5t-264 190.5l234 172q148 -165 350 -165zM692 1554h-155l-267 275l125 100l219 -186l220 186l124 -100z" />
    <glyph glyph-name="scaron" unicode="&#x161;" horiz-adv-x="1079" 
d="M113 778q0 134 109.5 220.5t299.5 86.5q136 0 253 -45t200 -131l-191 -147q-37 42 -96 68t-121 26q-65 0 -102 -18t-37 -52q0 -38 51 -69t191 -72q164 -51 247.5 -134.5t83.5 -209.5q0 -146 -113 -236t-321 -90q-327 0 -512 209l205 152q128 -131 279 -131
q72 0 109.5 21.5t37.5 60.5q0 43 -44 73t-167 68q-193 60 -277.5 142t-84.5 208zM606 1198h-155l-267 275l125 100l219 -187l220 187l124 -100z" />
    <glyph glyph-name="Tcommaaccent" unicode="&#x162;" horiz-adv-x="1226" 
d="M451 0v1165h-414v269h1153v-269h-414v-1165h-41l-49 -98q72 -19 115 -69t43 -118q0 -85 -70.5 -143.5t-200.5 -58.5q-138 0 -233 75l100 121q42 -39 105 -39q40 0 64 17t24 47q0 36 -43 59.5t-123 24.5l-16 22l75 160h-75z" />
    <glyph glyph-name="tcommaaccent" unicode="&#x163;" horiz-adv-x="833" 
d="M416 -330q40 0 64 17t24 47q0 36 -43 59.5t-123 24.5l-16 22l77 164q-102 37 -146 136t-44 272v409h-180v240h180v317h311v-317h250v-240h-250v-440q0 -90 35.5 -126t126.5 -36q63 0 88 2v-237q-86 -9 -176 -9l-37 -73q72 -19 115 -69t43 -118q0 -85 -70.5 -143.5
t-200.5 -58.5q-138 0 -233 75l100 121q42 -39 105 -39z" />
    <glyph glyph-name="Tcaron" unicode="&#x164;" horiz-adv-x="1226" 
d="M451 0v1165h-414v269h1153v-269h-414v-1165h-325zM690 1554h-155l-267 275l125 100l219 -186l219 186l125 -100z" />
    <glyph glyph-name="tcaron" unicode="&#x165;" horiz-adv-x="1140" 
d="M594 -25q-212 0 -298.5 101.5t-86.5 335.5v409h-180v240h180v317h311v-317h250v-240h-250v-440q0 -90 35.5 -126t126.5 -36q63 0 88 2v-237q-86 -9 -176 -9zM809 1008l143 512l215 -72l-194 -490z" />
    <glyph glyph-name="Tbar" unicode="&#x166;" horiz-adv-x="1226" 
d="M170 791h281v374h-414v269h1153v-269h-414v-374h281v-164h-281v-627h-325v627h-281v164z" />
    <glyph glyph-name="tbar" unicode="&#x167;" horiz-adv-x="833" 
d="M68 651h141v170h-180v240h180v317h311v-317h250v-240h-250v-170h213v-159h-213v-111q0 -90 35.5 -126t126.5 -36q63 0 88 2v-237q-86 -9 -176 -9q-212 0 -298.5 101.5t-86.5 335.5v80h-141v159z" />
    <glyph glyph-name="Utilde" unicode="&#x168;" horiz-adv-x="1531" 
d="M766 -25q-281 0 -447.5 157t-166.5 448v854h325v-863q0 -323 289 -323t289 323v863h325v-854q0 -292 -164.5 -448.5t-449.5 -156.5zM944 1861l179 -22q-15 -123 -72 -188.5t-147 -65.5q-48 0 -97 23.5t-88.5 47t-62.5 23.5q-26 0 -44 -22.5t-22 -63.5l-178 23
q15 123 72 188.5t147 65.5q48 0 97 -23.5t88.5 -47.5t62.5 -24q26 0 43.5 22t21.5 64z" />
    <glyph glyph-name="utilde" unicode="&#x169;" horiz-adv-x="1273" 
d="M637 -25q-241 0 -377.5 124.5t-136.5 361.5v600h311v-619q0 -109 56 -166t147 -57t147 57t56 166v619h311v-600q0 -237 -136.5 -361.5t-377.5 -124.5zM815 1505l178 -22q-15 -123 -72 -188.5t-147 -65.5q-48 0 -97 23.5t-88.5 47t-62.5 23.5q-26 0 -43.5 -22t-21.5 -64
l-178 23q15 123 72 188t147 65q48 0 97 -23.5t88.5 -47t62.5 -23.5q26 0 43.5 22t21.5 64z" />
    <glyph glyph-name="Umacron" unicode="&#x16a;" horiz-adv-x="1531" 
d="M766 -25q-281 0 -447.5 157t-166.5 448v854h325v-863q0 -323 289 -323t289 323v863h325v-854q0 -292 -164.5 -448.5t-449.5 -156.5zM453 1626v188h627v-188h-627z" />
    <glyph glyph-name="umacron" unicode="&#x16b;" horiz-adv-x="1273" 
d="M637 -25q-241 0 -377.5 124.5t-136.5 361.5v600h311v-619q0 -109 56 -166t147 -57t147 57t56 166v619h311v-600q0 -237 -136.5 -361.5t-377.5 -124.5zM324 1270v188h627v-188h-627z" />
    <glyph glyph-name="Ubreve" unicode="&#x16c;" horiz-adv-x="1531" 
d="M766 -25q-281 0 -447.5 157t-166.5 448v854h325v-863q0 -323 289 -323t289 323v863h325v-854q0 -292 -164.5 -448.5t-449.5 -156.5zM766 1559q-137 0 -224 76.5t-116 209.5l190 39q36 -145 150 -145q113 0 149 145l191 -39q-29 -133 -116 -209.5t-224 -76.5z" />
    <glyph glyph-name="ubreve" unicode="&#x16d;" horiz-adv-x="1273" 
d="M637 -25q-241 0 -377.5 124.5t-136.5 361.5v600h311v-619q0 -109 56 -166t147 -57t147 57t56 166v619h311v-600q0 -237 -136.5 -361.5t-377.5 -124.5zM637 1206q-137 0 -224 77t-116 210l190 39q37 -146 150 -146t149 146l191 -39q-29 -133 -116 -210t-224 -77z" />
    <glyph glyph-name="Uring" unicode="&#x16e;" horiz-adv-x="1531" 
d="M766 -25q-281 0 -447.5 157t-166.5 448v854h325v-863q0 -323 289 -323t289 323v863h325v-854q0 -292 -164.5 -448.5t-449.5 -156.5zM688 1729q0 -35 22 -57.5t56 -22.5t56 22.5t22 57.5t-22 57t-56 22t-56 -22t-22 -57zM530 1729q0 95 68 160t168 65t167.5 -65t67.5 -160
t-67.5 -160.5t-167.5 -65.5t-168 65.5t-68 160.5z" />
    <glyph glyph-name="uring" unicode="&#x16f;" horiz-adv-x="1273" 
d="M637 -25q-241 0 -377.5 124.5t-136.5 361.5v600h311v-619q0 -109 56 -166t147 -57t147 57t56 166v619h311v-600q0 -237 -136.5 -361.5t-377.5 -124.5zM560 1372q0 -35 21.5 -57.5t55.5 -22.5t56 22.5t22 57.5t-22 57.5t-56 22.5t-55.5 -22.5t-21.5 -57.5zM402 1372
q0 95 67.5 160t167.5 65t168 -65t68 -160t-68 -160t-168 -65t-167.5 65t-67.5 160z" />
    <glyph glyph-name="Uhungarumlaut" unicode="&#x170;" horiz-adv-x="1531" 
d="M766 -25q-281 0 -447.5 157t-166.5 448v854h325v-863q0 -323 289 -323t289 323v863h325v-854q0 -292 -164.5 -448.5t-449.5 -156.5zM1108 1927l147 -155l-333 -250l-119 125zM688 1927l158 -145l-279 -260l-125 116z" />
    <glyph glyph-name="uhungarumlaut" unicode="&#x171;" horiz-adv-x="1273" 
d="M637 -25q-241 0 -377.5 124.5t-136.5 361.5v600h311v-619q0 -109 56 -166t147 -57t147 57t56 166v619h311v-600q0 -237 -136.5 -361.5t-377.5 -124.5zM952 1571l148 -156l-334 -250l-119 125zM532 1571l158 -146l-278 -260l-125 117z" />
    <glyph glyph-name="Uogonek" unicode="&#x172;" horiz-adv-x="1531" 
d="M1380 580q0 -253 -125 -405.5t-348 -188.5q-106 -90 -106 -187q0 -36 22 -58t56 -22q53 0 84 39l104 -118q-95 -89 -242 -89q-105 0 -172 59t-67 148q0 128 108 222q-251 19 -396.5 173.5t-145.5 426.5v854h325v-863q0 -323 289 -323t289 323v863h325v-854z" />
    <glyph glyph-name="uogonek" unicode="&#x173;" horiz-adv-x="1273" 
d="M469 -242q0 124 106 219q-213 15 -332.5 138.5t-119.5 345.5v600h311v-619q0 -109 56 -166t147 -57t147 57t56 166v619h311v-600q0 -194 -92.5 -312.5t-261.5 -156.5q-113 -91 -113 -193q0 -36 22 -58t56 -22q53 0 84 39l104 -118q-95 -89 -241 -89q-105 0 -172.5 59
t-67.5 148z" />
    <glyph glyph-name="Wcircumflex" unicode="&#x174;" horiz-adv-x="2117" 
d="M895 1434h328l247 -1031l275 1031h336l-406 -1434h-387l-229 999l-230 -999h-387l-405 1434h336l274 -1031zM981 1904h155l266 -274l-125 -100l-219 186l-219 -186l-125 100z" />
    <glyph glyph-name="wcircumflex" unicode="&#x175;" horiz-adv-x="1748" 
d="M543 360l192 701h279l192 -701l195 701h319l-334 -1061h-327l-185 666l-184 -666h-328l-333 1061h319zM797 1548h155l266 -274l-125 -100l-219 186l-219 -186l-125 100z" />
    <glyph glyph-name="Ycircumflex" unicode="&#x176;" horiz-adv-x="1355" 
d="M977 1434h350l-485 -871v-563h-328v563l-485 871h350l299 -588zM600 1905h156l266 -275l-125 -100l-219 186l-219 -186l-125 100z" />
    <glyph glyph-name="ycircumflex" unicode="&#x177;" horiz-adv-x="1177" 
d="M596 -434h-311l166 452l-422 1043h315l252 -672l240 672h313zM516 1548h156l266 -274l-125 -100l-219 186l-219 -186l-125 100z" />
    <glyph glyph-name="Ydieresis" unicode="&#x178;" horiz-adv-x="1355" 
d="M977 1434h350l-485 -871v-563h-328v563l-485 871h350l299 -588zM752 1720q0 59 39.5 99t99.5 40t100 -40t40 -99t-40 -99t-100 -40t-99.5 40t-39.5 99zM328 1720q0 59 39.5 99t99.5 40t100 -40t40 -99t-40 -99t-100 -40t-99.5 40t-39.5 99z" />
    <glyph glyph-name="Zacute" unicode="&#x179;" horiz-adv-x="1220" 
d="M66 0v256l671 909h-635v269h1033v-256l-672 -910h692v-268h-1089zM887 1779l-342 -249l-109 127l303 278z" />
    <glyph glyph-name="zacute" unicode="&#x17a;" horiz-adv-x="991" 
d="M47 0v229l500 594h-471v238h848v-230l-500 -593h520v-238h-897zM772 1423l-342 -249l-109 127l303 278z" />
    <glyph glyph-name="Zdotaccent" unicode="&#x17b;" horiz-adv-x="1220" 
d="M66 0v256l671 909h-635v269h1033v-256l-672 -910h692v-268h-1089zM481 1720q0 59 39.5 99t99.5 40t100 -40t40 -99t-40 -99t-100 -40t-99.5 40t-39.5 99z" />
    <glyph glyph-name="zdotaccent" unicode="&#x17c;" horiz-adv-x="991" 
d="M47 0v229l500 594h-471v238h848v-230l-500 -593h520v-238h-897zM362 1364q0 59 39.5 99t99.5 40t100 -40t40 -99t-40 -99t-100 -40t-99.5 40t-39.5 99z" />
    <glyph glyph-name="Zcaron" unicode="&#x17d;" horiz-adv-x="1220" 
d="M66 0v256l671 909h-635v269h1033v-256l-672 -910h692v-268h-1089zM705 1554h-156l-266 275l125 100l219 -186l219 186l125 -100z" />
    <glyph glyph-name="zcaron" unicode="&#x17e;" horiz-adv-x="991" 
d="M47 0v229l500 594h-471v238h848v-230l-500 -593h520v-238h-897zM584 1198h-156l-266 275l125 100l219 -187l219 187l125 -100z" />
    <glyph glyph-name="longs" unicode="&#x17f;" horiz-adv-x="821" 
d="M614 1495q105 0 181 -8v-230q-93 5 -113 5q-89 0 -124.5 -33.5t-35.5 -106.5v-1122h-311v821h-182v240h182v74q0 186 98 273t305 87z" />
    <glyph glyph-name="uni0191" unicode="&#x191;" horiz-adv-x="1148" 
d="M152 -68v1502h958v-260h-633v-347h561v-260h-561v-579q0 -118 -21.5 -198.5t-72.5 -138t-137.5 -84t-214.5 -26.5q-72 0 -119 8v240q66 -4 92 -4q80 0 114 37.5t34 109.5z" />
    <glyph glyph-name="florin" unicode="&#x192;" horiz-adv-x="821" 
d="M119 -459q-104 0 -180 8v230q74 -4 112 -4q89 0 124.5 33t35.5 106v907h-182v240h182v74q0 186 98 273t305 87q105 0 181 -8v-230q-93 5 -113 5q-89 0 -124.5 -33.5t-35.5 -106.5v-61h252v-240h-252v-919q0 -186 -98 -273.5t-305 -87.5z" />
    <glyph glyph-name="Aringacute" unicode="&#x1fa;" horiz-adv-x="1478" 
d="M504 1505q0 95 67.5 160.5t167.5 65.5t168 -65.5t68 -160.5q0 -52 -23 -100l490 -1405h-348l-95 295h-522l-92 -295h-348l489 1405q-22 40 -22 100zM739 1126l-180 -573h361zM868 2068l117 -147l-307 -180l-86 114zM662 1505q0 -35 21.5 -57.5t55.5 -22.5t56 22.5
t22 57.5t-22 57.5t-56 22.5t-55.5 -22.5t-21.5 -57.5z" />
    <glyph glyph-name="aringacute" unicode="&#x1fb;" horiz-adv-x="1187" 
d="M762 563v82q0 98 -52 147.5t-165 49.5q-136 0 -242 -86l-172 166q85 76 207 119.5t250 43.5q477 0 477 -456v-629h-303v76q-113 -101 -297 -101q-108 0 -196.5 39.5t-142.5 119t-54 185.5q0 159 113.5 252t279.5 93q184 0 297 -101zM762 279v81q-83 80 -213 80
q-76 0 -119 -32t-43 -89t42.5 -88.5t119.5 -31.5q130 0 213 80zM526 1372q0 -35 22 -57.5t56 -22.5t56 22.5t22 57.5t-22 57.5t-56 22.5t-56 -22.5t-22 -57.5zM369 1372q0 95 67.5 160t167.5 65t168 -65t68 -160t-68 -160t-168 -65t-167.5 65t-67.5 160zM733 1935l117 -147
l-307 -180l-86 114z" />
    <glyph glyph-name="AEacute" unicode="&#x1fc;" horiz-adv-x="1886" 
d="M932 285h-408l-141 -285h-350l735 1434h1016v-260h-527v-308h455v-260h-455v-346h545v-260h-870v285zM932 543v571l-285 -571h285zM1432 1779l-342 -249l-109 127l303 278z" />
    <glyph glyph-name="aeacute" unicode="&#x1fd;" horiz-adv-x="1894" 
d="M1819 526q0 -71 -4 -96h-748q17 -100 86.5 -155.5t179.5 -55.5q141 0 230 123l215 -149q-164 -218 -457 -218q-264 0 -414 160q-160 -160 -426 -160q-116 0 -207.5 39.5t-146.5 118.5t-55 186q0 159 113.5 252t279.5 93q173 0 295 -84q0 20 2 28v37q0 98 -52 147.5
t-165 49.5q-136 0 -242 -86l-172 166q85 76 207 119.5t250 43.5q122 0 215 -37t145 -108q52 66 143 105.5t199 39.5q236 0 382.5 -155.5t146.5 -403.5zM549 199q152 0 252 94q-18 45 -25 74q-106 73 -227 73q-76 0 -119 -32t-43 -89t42.5 -88.5t119.5 -31.5zM1290 842
q-94 0 -153 -52.5t-72 -148.5h446q-9 93 -69 147t-152 54zM1233 1423l-342 -249l-109 127l303 278z" />
    <glyph glyph-name="Oslashacute" unicode="&#x1fe;" horiz-adv-x="1523" 
d="M1440 717q0 -212 -80 -379t-235.5 -265t-362.5 -98q-222 0 -385 113l-125 -168l-115 82l133 178q-91 100 -138.5 238t-47.5 299q0 212 80 379t235.5 264.5t362.5 97.5q221 0 383 -112l127 167l114 -81l-135 -179q91 -100 140 -238t49 -298zM1110 717q0 158 -55 274
l-500 -667q85 -76 207 -76q160 0 254 126.5t94 342.5zM414 717q0 -163 53 -275l502 668q-85 76 -207 76q-160 0 -254 -126.5t-94 -342.5zM1049 1779l-342 -249l-109 127l303 278z" />
    <glyph glyph-name="oslashacute" unicode="&#x1ff;" horiz-adv-x="1236" 
d="M123 -4l102 133q-149 152 -149 401q0 246 149 400.5t393 154.5q153 0 281 -69l100 131l115 -82l-102 -135q149 -155 149 -400q0 -246 -149.5 -400.5t-393.5 -154.5q-158 0 -282 70l-98 -131zM846 530q0 83 -23 154l-327 -430q53 -35 122 -35q108 0 168 81t60 230z
M391 530q0 -90 21 -155l327 430q-49 37 -121 37q-108 0 -167.5 -81.5t-59.5 -230.5zM899 1423l-342 -249l-109 127l303 278z" />
    <glyph glyph-name="Scommaaccent" unicode="&#x218;" horiz-adv-x="1275" 
d="M647 238q103 0 161 39t58 106q0 52 -21.5 85.5t-89.5 68t-200 71.5q-430 123 -430 445q0 182 129.5 293.5t359.5 111.5q159 0 296 -59t231 -172l-219 -162q-53 62 -125.5 96.5t-151.5 34.5q-94 0 -142 -35t-48 -96q0 -67 60.5 -113t221.5 -96q243 -73 351 -173.5
t108 -276.5q0 -195 -144.5 -313t-387.5 -118q-184 0 -337 65.5t-264 190.5l234 172q148 -165 350 -165zM494 -500l118 414l205 -70l-160 -401z" />
    <glyph glyph-name="scommaaccent" unicode="&#x219;" horiz-adv-x="1079" 
d="M113 778q0 134 109.5 220.5t299.5 86.5q136 0 253 -45t200 -131l-191 -147q-37 42 -96 68t-121 26q-65 0 -102 -18t-37 -52q0 -38 51 -69t191 -72q164 -51 247.5 -134.5t83.5 -209.5q0 -146 -113 -236t-321 -90q-327 0 -512 209l205 152q128 -131 279 -131
q72 0 109.5 21.5t37.5 60.5q0 43 -44 73t-167 68q-193 60 -277.5 142t-84.5 208zM397 -500l119 414l205 -70l-160 -401z" />
    <glyph glyph-name="uni021A" unicode="&#x21a;" horiz-adv-x="1226" 
d="M451 0v1165h-414v269h1153v-269h-414v-1165h-325zM418 -500l119 414l204 -70l-159 -401z" />
    <glyph glyph-name="uni021B" unicode="&#x21b;" horiz-adv-x="829" 
d="M594 -25q-212 0 -298.5 101.5t-86.5 335.5v409h-180v240h180v317h311v-317h250v-240h-250v-440q0 -90 35.5 -126t126.5 -36q63 0 88 2v-237q-86 -9 -176 -9zM307 -500l119 414l205 -70l-160 -401z" />
    <glyph glyph-name="dotlessj" unicode="&#x237;" horiz-adv-x="598" 
d="M10 -457q-70 0 -116 6v240q29 -2 90 -2q86 0 122.5 40.5t36.5 127.5v1106h312v-1043q0 -127 -20.5 -212t-70.5 -146t-136.5 -89t-217.5 -28z" />
    <glyph glyph-name="apostrophe" unicode="&#x2bc;" horiz-adv-x="798" 
d="M219 1024l143 512l216 -72l-195 -489z" />
    <glyph glyph-name="circumflex" unicode="&#x2c6;" horiz-adv-x="798" 
d="M322 1507h155l266 -274l-125 -100l-219 186l-219 -186l-125 100z" />
    <glyph glyph-name="caron" unicode="&#x2c7;" horiz-adv-x="798" 
d="M477 1157h-155l-267 275l125 100l219 -186l219 186l125 -100z" />
    <glyph glyph-name="uni02C9" unicode="&#x2c9;" horiz-adv-x="798" 
d="M86 1229v188h627v-188h-627z" />
    <glyph glyph-name="breve" unicode="&#x2d8;" horiz-adv-x="798" 
d="M399 1165q-137 0 -224 77t-116 210l191 39q36 -145 149 -145q114 0 150 145l190 -39q-29 -133 -116 -210t-224 -77z" />
    <glyph glyph-name="dotaccent" unicode="&#x2d9;" horiz-adv-x="798" 
d="M260 1323q0 59 39.5 99t99.5 40t100 -40t40 -99t-40 -99t-100 -40t-99.5 40t-39.5 99z" />
    <glyph glyph-name="ring" unicode="&#x2da;" horiz-adv-x="798" 
d="M322 1331q0 -35 21.5 -57.5t55.5 -22.5t56 22.5t22 57.5t-22 57.5t-56 22.5t-55.5 -22.5t-21.5 -57.5zM164 1331q0 95 67.5 160t167.5 65t168 -65t68 -160t-68 -160t-168 -65t-167.5 65t-67.5 160z" />
    <glyph glyph-name="ogonek" unicode="&#x2db;" horiz-adv-x="798" 
d="M334 0h203q-123 -100 -123 -201q0 -36 22 -58t56 -22q52 0 83 39l105 -118q-95 -89 -242 -89q-105 0 -172 59t-67 148q0 68 36 131.5t99 110.5z" />
    <glyph glyph-name="tilde" unicode="&#x2dc;" horiz-adv-x="798" 
d="M575 1466l179 -22q-15 -123 -72 -188.5t-147 -65.5q-48 0 -97 23.5t-88.5 47t-62.5 23.5q-26 0 -44 -22.5t-22 -63.5l-178 23q15 123 72 188.5t147 65.5q48 0 97 -23.5t88.5 -47.5t62.5 -24q26 0 43.5 22t21.5 64z" />
    <glyph glyph-name="hungarumlaut" unicode="&#x2dd;" horiz-adv-x="798" 
d="M659 1530l148 -156l-334 -250l-119 125zM240 1530l157 -146l-278 -260l-125 117z" />
    <glyph glyph-name="gravecomb" unicode="&#x300;" horiz-adv-x="0" 
d="M-428 1133l-342 249l147 156l304 -278z" />
    <glyph glyph-name="acutecomb" unicode="&#x301;" horiz-adv-x="0" 
d="M-264 1382l-342 -249l-109 127l303 278z" />
    <glyph glyph-name="uni0302" unicode="&#x302;" horiz-adv-x="0" 
d="M-596 1507h156l266 -274l-125 -100l-219 186l-219 -186l-125 100z" />
    <glyph glyph-name="tildecomb" unicode="&#x303;" horiz-adv-x="0" 
d="M-342 1466l178 -22q-15 -123 -72 -188.5t-147 -65.5q-48 0 -97 23.5t-88.5 47t-62.5 23.5q-26 0 -43.5 -22t-21.5 -64l-178 23q15 123 72 188.5t147 65.5q38 0 77 -15t66 -32.5t56 -32.5t48 -15q26 0 44 22.5t22 63.5z" />
    <glyph glyph-name="uni0304" unicode="&#x304;" horiz-adv-x="0" 
d="M-827 1229v188h626v-188h-626z" />
    <glyph glyph-name="uni0306" unicode="&#x306;" horiz-adv-x="0" 
d="M-518 1165q-137 0 -224 77t-116 210l190 39q36 -145 150 -145q113 0 149 145l191 -39q-29 -133 -116 -210t-224 -77z" />
    <glyph glyph-name="uni0307" unicode="&#x307;" horiz-adv-x="0" 
d="M-657 1323q0 59 39.5 99t99.5 40t99.5 -40t39.5 -99t-39.5 -99t-99.5 -40t-99.5 40t-39.5 99z" />
    <glyph glyph-name="uni0308" unicode="&#x308;" horiz-adv-x="0" 
d="M-446 1323q0 59 39.5 99t99.5 40t99.5 -40t39.5 -99t-39.5 -99t-99.5 -40t-99.5 40t-39.5 99zM-870 1323q0 59 39.5 99t99.5 40t99.5 -40t39.5 -99t-39.5 -99t-99.5 -40t-99.5 40t-39.5 99z" />
    <glyph glyph-name="uni030A" unicode="&#x30a;" horiz-adv-x="0" 
d="M-596 1331q0 -35 22 -57.5t56 -22.5t56 22.5t22 57.5t-22 57.5t-56 22.5t-56 -22.5t-22 -57.5zM-754 1331q0 95 68 160t168 65t167.5 -65t67.5 -160t-67.5 -160t-167.5 -65t-168 65t-68 160z" />
    <glyph glyph-name="uni030C" unicode="&#x30c;" horiz-adv-x="0" 
d="M-440 1157h-156l-266 275l125 100l219 -186l219 186l125 -100z" />
    <glyph glyph-name="uni0327" unicode="&#x327;" horiz-adv-x="0" 
d="M-573 -330q40 0 64 17t24 47q0 36 -43 59.5t-123 24.5l-17 22l76 160h209l-49 -98q72 -19 115 -69t43 -118q0 -85 -70.5 -143.5t-200.5 -58.5q-138 0 -233 75l100 121q42 -39 105 -39z" />
    <glyph glyph-name="uni03A9" unicode="&#x3a9;" horiz-adv-x="1523" 
d="M762 1458q157 0 286 -51t214 -141t131.5 -213t46.5 -267q0 -164 -68.5 -299t-185.5 -219h237v-268h-573v260q258 186 258 483q0 193 -91.5 318t-254.5 125t-254.5 -125t-91.5 -318q0 -297 258 -483v-260h-574v268h238q-117 84 -185.5 219t-68.5 299q0 144 46.5 267
t131.5 213t214 141t286 51z" />
    <glyph glyph-name="uni0400" unicode="&#x400;" horiz-adv-x="1212" 
d="M152 0v1434h958v-260h-633v-308h561v-260h-561v-346h651v-260h-976zM704 1530l-342 249l148 156l303 -278z" />
    <glyph glyph-name="afii10023" unicode="&#x401;" horiz-adv-x="1212" 
d="M152 0v1434h958v-260h-633v-308h561v-260h-561v-346h651v-260h-976zM707 1720q0 59 39.5 99t99.5 40t100 -40t40 -99t-40 -99t-100 -40t-99.5 40t-39.5 99zM283 1720q0 59 39.5 99t99.5 40t100 -40t40 -99t-40 -99t-100 -40t-99.5 40t-39.5 99z" />
    <glyph glyph-name="afii10051" unicode="&#x402;" horiz-adv-x="1619" 
d="M1212 467q0 94 -52.5 151.5t-151.5 57.5q-67 0 -129 -21t-103 -55v-600h-325v1165h-414v269h1153v-269h-414v-336q145 103 320 103q192 0 317 -122.5t125 -328.5q0 -217 -134 -349t-364 -132h-59v260h33q91 0 144.5 59t53.5 148z" />
    <glyph glyph-name="afii10052" unicode="&#x403;" horiz-adv-x="1161" 
d="M152 0v1434h972v-269h-647v-1165h-325zM895 1780l-342 -250l-109 127l304 278z" />
    <glyph glyph-name="afii10053" unicode="&#x404;" horiz-adv-x="1449" 
d="M975 584h-551q31 -162 131.5 -249t239.5 -87q208 0 325 192l271 -133q-90 -158 -249 -245t-360 -87q-314 0 -506 203t-192 539t192 538.5t506 202.5q201 0 360 -87t249 -245l-271 -133q-117 193 -325 193q-138 0 -238.5 -87.5t-132.5 -248.5h551v-266z" />
    <glyph glyph-name="afii10054" unicode="&#x405;" horiz-adv-x="1275" 
d="M647 238q103 0 161 39t58 106q0 52 -21.5 85.5t-89.5 68t-200 71.5q-430 123 -430 445q0 182 129.5 293.5t359.5 111.5q159 0 296 -59t231 -172l-219 -162q-53 62 -125.5 96.5t-151.5 34.5q-94 0 -142 -35t-48 -96q0 -67 60.5 -113t221.5 -96q243 -73 351 -173.5
t108 -276.5q0 -195 -144.5 -313t-387.5 -118q-184 0 -337 65.5t-264 190.5l234 172q148 -165 350 -165z" />
    <glyph glyph-name="afii10055" unicode="&#x406;" horiz-adv-x="647" 
d="M160 1434h327v-1434h-327v1434z" />
    <glyph glyph-name="afii10056" unicode="&#x407;" horiz-adv-x="647" 
d="M160 1434h327v-1434h-327v1434zM397 1720q0 59 39.5 99t99.5 40t100 -40t40 -99t-40 -99t-100 -40t-99.5 40t-39.5 99zM-27 1720q0 59 39.5 99t99.5 40t100 -40t40 -99t-40 -99t-100 -40t-99.5 40t-39.5 99z" />
    <glyph glyph-name="afii10057" unicode="&#x408;" horiz-adv-x="1261" 
d="M567 248q104 0 160.5 68.5t56.5 187.5v930h326v-918q0 -250 -138.5 -395.5t-393.5 -145.5q-176 0 -312 78t-211 221l262 144q88 -170 250 -170z" />
    <glyph glyph-name="afii10058" unicode="&#x409;" horiz-adv-x="2140" 
d="M2064 444q0 -207 -137.5 -325.5t-376.5 -118.5h-520v1165h-418v-780q0 -210 -107 -310t-349 -100q-54 0 -119 7v266q33 -4 90 -4q86 0 123 40.5t37 127.5v1022h1069v-545h194q240 0 377 -118t137 -327zM1739 444q0 93 -56.5 135t-169.5 42h-157v-353h157q226 0 226 176z
" />
    <glyph glyph-name="afii10059" unicode="&#x40a;" horiz-adv-x="2086" 
d="M2011 444q0 -207 -137.5 -325.5t-376.5 -118.5h-520v621h-500v-621h-325v1434h325v-545h500v545h326v-545h194q240 0 377 -118t137 -327zM1686 444q0 93 -56.5 135t-169.5 42h-157v-353h157q226 0 226 176z" />
    <glyph glyph-name="afii10060" unicode="&#x40b;" horiz-adv-x="1660" 
d="M995 666q-129 0 -219 -76v-590h-325v1165h-414v269h1153v-269h-414v-336q64 46 151 74.5t179 28.5q208 0 320 -123.5t112 -366.5v-442h-326v406q0 136 -55 198t-162 62z" />
    <glyph glyph-name="afii10061" unicode="&#x40c;" horiz-adv-x="1382" 
d="M477 1434v-648l463 648h360l-450 -590l514 -844h-369l-338 586l-180 -234v-352h-325v1434h325zM973 1779l-342 -249l-109 127l303 278z" />
    <glyph glyph-name="uni040D" unicode="&#x40d;" horiz-adv-x="1501" 
d="M1350 0v1434h-318l-565 -918v918h-315v-1434h317l565 918v-918h316zM803 1530l-342 250l147 155l303 -278z" />
    <glyph glyph-name="afii10062" unicode="&#x40e;" horiz-adv-x="1341" 
d="M373 1434l305 -656l301 656h334l-649 -1434h-336l198 438l-487 996h334zM678 1559q-137 0 -224 76.5t-116 209.5l190 39q36 -145 150 -145q113 0 149 145l191 -39q-29 -133 -116 -209.5t-224 -76.5z" />
    <glyph glyph-name="afii10145" unicode="&#x40f;" horiz-adv-x="1497" 
d="M477 268h543v1166h326v-1434h-435v-246h-325v246h-434v1434h325v-1166z" />
    <glyph glyph-name="afii10017" unicode="&#x410;" horiz-adv-x="1478" 
d="M942 1434l500 -1434h-348l-95 295h-522l-92 -295h-348l500 1434h405zM739 1126l-180 -573h361z" />
    <glyph glyph-name="afii10018" unicode="&#x411;" horiz-adv-x="1261" 
d="M477 889h195q240 0 377 -118t137 -327q0 -207 -137.5 -325.5t-376.5 -118.5h-520v1434h907v-258h-582v-287zM860 444q0 93 -56 135t-169 42h-158v-353h158q225 0 225 176z" />
    <glyph glyph-name="afii10019" unicode="&#x412;" horiz-adv-x="1343" 
d="M152 0v1434h534q251 0 380.5 -105.5t129.5 -286.5q0 -101 -53 -179.5t-150 -108.5q130 -29 202.5 -118t72.5 -214q0 -197 -135 -309.5t-414 -112.5h-567zM940 432q0 184 -248 184h-219v-368h219q248 0 248 184zM887 1024q0 162 -221 162h-193v-330h193q108 0 164.5 43
t56.5 125z" />
    <glyph glyph-name="afii10020" unicode="&#x413;" horiz-adv-x="1161" 
d="M152 0v1434h972v-269h-647v-1165h-325z" />
    <glyph glyph-name="afii10021" unicode="&#x414;" horiz-adv-x="1380" 
d="M1339 258v-504h-325v246h-656v-246h-325v504h129q104 365 104 934v242h912v-1176h161zM485 258h377v918h-280q0 -550 -97 -918z" />
    <glyph glyph-name="afii10022" unicode="&#x415;" horiz-adv-x="1212" 
d="M152 0v1434h958v-260h-633v-308h561v-260h-561v-346h651v-260h-976z" />
    <glyph glyph-name="afii10024" unicode="&#x416;" horiz-adv-x="2013" 
d="M1169 1434v-607l404 607h358l-409 -576l473 -858h-367l-297 590l-162 -225v-365h-325v365l-162 225l-297 -590h-367l474 858l-410 576h358l404 -607v607h325z" />
    <glyph glyph-name="afii10025" unicode="&#x417;" horiz-adv-x="1193" 
d="M563 1196q-152 0 -256 -113l-225 164q91 101 221 156t281 55q224 0 359.5 -101t135.5 -282q0 -112 -66 -199.5t-169 -127.5q126 -43 195 -134.5t69 -218.5q0 -189 -143.5 -304.5t-386.5 -115.5q-170 0 -312 63.5t-229 176.5l221 160q124 -139 297 -139q101 0 161 47.5
t60 124.5q0 102 -81 152t-218 50h-125v258h140q109 0 182.5 49t73.5 127q0 72 -49 112t-136 40z" />
    <glyph glyph-name="afii10026" unicode="&#x418;" horiz-adv-x="1501" 
d="M1350 1434v-1434h-316v918l-565 -918h-317v1434h315v-918l565 918h318z" />
    <glyph glyph-name="afii10027" unicode="&#x419;" horiz-adv-x="1501" 
d="M1350 0v1434h-318l-565 -918v918h-315v-1434h317l565 918v-918h316zM750 1559q-137 0 -224 76.5t-116 209.5l190 39q36 -145 150 -145q113 0 149 145l191 -39q-29 -133 -116 -209.5t-224 -76.5z" />
    <glyph glyph-name="afii10028" unicode="&#x41a;" horiz-adv-x="1382" 
d="M477 1434v-648l463 648h360l-450 -590l514 -844h-369l-338 586l-180 -234v-352h-325v1434h325z" />
    <glyph glyph-name="afii10029" unicode="&#x41b;" horiz-adv-x="1552" 
d="M612 1165v-780q0 -210 -107 -310t-349 -100q-54 0 -119 7v266q33 -4 90 -4q86 0 123 40.5t37 127.5v1022h1114v-1434h-326v1165h-463z" />
    <glyph glyph-name="afii10030" unicode="&#x41c;" horiz-adv-x="1810" 
d="M1006 260h-201l-338 637v-897h-315v1434h325l428 -822l428 822h326v-1434h-316v897z" />
    <glyph glyph-name="afii10031" unicode="&#x41d;" horiz-adv-x="1505" 
d="M152 0v1434h325v-545h551v545h326v-1434h-326v621h-551v-621h-325z" />
    <glyph glyph-name="afii10032" unicode="&#x41e;" horiz-adv-x="1523" 
d="M1440 717q0 -212 -80 -379t-235.5 -265t-362.5 -98t-362.5 98t-235.5 265t-80 379t80 379t235.5 264.5t362.5 97.5t362.5 -97.5t235.5 -264.5t80 -379zM414 717q0 -216 94 -342.5t254 -126.5t254 126.5t94 342.5t-94 342.5t-254 126.5t-254 -126.5t-94 -342.5z" />
    <glyph glyph-name="afii10033" unicode="&#x41f;" horiz-adv-x="1501" 
d="M1350 1434v-1434h-326v1165h-547v-1165h-325v1434h1198z" />
    <glyph glyph-name="afii10034" unicode="&#x420;" horiz-adv-x="1298" 
d="M1233 961q0 -231 -151 -351.5t-425 -120.5h-180v-489h-325v1434h505q274 0 425 -120t151 -353zM903 961q0 112 -65 163.5t-195 51.5h-166v-428h166q130 0 195 51t65 162z" />
    <glyph glyph-name="afii10035" unicode="&#x421;" horiz-adv-x="1449" 
d="M84 717q0 336 192 538.5t506 202.5q201 0 360 -87t249 -245l-271 -133q-117 193 -325 193q-167 0 -274 -123.5t-107 -345.5t107 -345.5t274 -123.5q208 0 325 192l271 -133q-90 -158 -249 -245t-360 -87q-314 0 -506 203t-192 539z" />
    <glyph glyph-name="afii10036" unicode="&#x422;" horiz-adv-x="1226" 
d="M451 0v1165h-414v269h1153v-269h-414v-1165h-325z" />
    <glyph glyph-name="afii10037" unicode="&#x423;" horiz-adv-x="1341" 
d="M373 1434l305 -656l301 656h334l-649 -1434h-336l198 438l-487 996h334z" />
    <glyph glyph-name="afii10038" unicode="&#x424;" horiz-adv-x="1591" 
d="M633 467v498q-107 -8 -170.5 -71.5t-63.5 -176.5t63.5 -177.5t170.5 -72.5zM633 1434h325v-201q258 -19 409 -155t151 -361q0 -226 -151.5 -362.5t-408.5 -153.5v-201h-325v201q-257 17 -408 153.5t-151 362.5t151 361.5t408 154.5v201zM958 965v-498q107 8 170.5 72.5
t63.5 177.5t-63.5 176.5t-170.5 71.5z" />
    <glyph glyph-name="afii10039" unicode="&#x425;" horiz-adv-x="1366" 
d="M1337 0h-356l-299 508l-297 -508h-356l444 739l-414 695h357l266 -453l268 453h357l-416 -695z" />
    <glyph glyph-name="afii10040" unicode="&#x426;" horiz-adv-x="1548" 
d="M477 268h543v1166h326v-1166h161v-514h-325v246h-1030v1434h325v-1166z" />
    <glyph glyph-name="afii10041" unicode="&#x427;" horiz-adv-x="1351" 
d="M1200 0h-326v594q-132 -96 -321 -96q-213 0 -326.5 119.5t-113.5 361.5v455h325v-418q0 -136 52 -197t165 -61q132 0 219 73v603h326v-1434z" />
    <glyph glyph-name="afii10042" unicode="&#x428;" horiz-adv-x="1878" 
d="M477 268h299v1166h326v-1166h299v1166h325v-1434h-1574v1434h325v-1166z" />
    <glyph glyph-name="afii10043" unicode="&#x429;" horiz-adv-x="1929" 
d="M1563 0h-1411v1434h325v-1166h299v1166h326v-1166h299v1166h325v-1166h162v-514h-325v246z" />
    <glyph glyph-name="afii10044" unicode="&#x42a;" horiz-adv-x="1476" 
d="M692 889h195q240 0 377 -118t137 -327q0 -207 -137.5 -325.5t-376.5 -118.5h-520v1165h-330v269h655v-545zM1075 444q0 93 -56 135t-169 42h-158v-353h158q225 0 225 176z" />
    <glyph glyph-name="afii10045" unicode="&#x42b;" horiz-adv-x="1804" 
d="M1327 1434h326v-1434h-326v1434zM477 889h195q240 0 377 -118t137 -327q0 -207 -137.5 -325.5t-376.5 -118.5h-520v1434h325v-545zM860 444q0 93 -56 135t-169 42h-158v-353h158q225 0 225 176z" />
    <glyph glyph-name="afii10046" unicode="&#x42c;" horiz-adv-x="1261" 
d="M477 889h195q240 0 377 -118t137 -327q0 -207 -137.5 -325.5t-376.5 -118.5h-520v1434h325v-545zM860 444q0 93 -56 135t-169 42h-158v-353h158q225 0 225 176z" />
    <glyph glyph-name="afii10047" unicode="&#x42d;" horiz-adv-x="1449" 
d="M1026 584h-551v266h551q-32 161 -132.5 248.5t-238.5 87.5q-208 0 -325 -193l-271 133q90 158 249 245t360 87q314 0 506 -202.5t192 -538.5t-192 -539t-506 -203q-201 0 -360 87t-249 245l271 133q117 -192 325 -192q139 0 239.5 87t131.5 249z" />
    <glyph glyph-name="afii10048" unicode="&#x42e;" horiz-adv-x="1869" 
d="M152 1434h325v-584h191q13 135 52 244t105.5 191.5t167.5 127.5t230 45q145 0 254 -56t175 -157t98 -233.5t32 -294.5q0 -130 -20 -240.5t-63 -204t-107.5 -159t-158 -102t-210.5 -36.5q-129 0 -230 44.5t-167.5 126.5t-105.5 191t-52 245h-191v-582h-325v1434zM991 717
q0 -241 56.5 -355t175.5 -114q117 0 173 114t56 355q0 239 -56 354t-173 115q-118 0 -175 -115t-57 -354z" />
    <glyph glyph-name="afii10049" unicode="&#x42f;" horiz-adv-x="1376" 
d="M127 989q0 220 151 332.5t424 112.5h523v-1434h-326v547h-199l-311 -547h-352l366 592q-132 51 -204 151t-72 246zM453 989q0 -97 61.5 -143.5t185.5 -46.5h199v383h-199q-247 0 -247 -193z" />
    <glyph glyph-name="afii10065" unicode="&#x430;" horiz-adv-x="1187" 
d="M762 563v82q0 98 -52 147.5t-165 49.5q-136 0 -242 -86l-172 166q85 76 207 119.5t250 43.5q477 0 477 -456v-629h-303v76q-113 -101 -297 -101q-108 0 -196.5 39.5t-142.5 119t-54 185.5q0 159 113.5 252t279.5 93q184 0 297 -101zM762 279v81q-83 80 -213 80
q-76 0 -119 -32t-43 -89t42.5 -88.5t119.5 -31.5q130 0 213 80z" />
    <glyph glyph-name="afii10066" unicode="&#x431;" horiz-adv-x="1204" 
d="M705 1028q195 0 309 -137.5t114 -382.5q0 -244 -135 -388.5t-368 -144.5q-259 0 -396 179.5t-137 496.5q0 211 54 364.5t171.5 264t308.5 169t461 69.5l-32 -240q-541 -15 -629 -360q104 110 279 110zM403 680q0 -170 27.5 -274t75.5 -145.5t121 -41.5q88 0 138 74.5
t50 210.5q0 138 -49.5 209t-140.5 71q-135 0 -222 -104z" />
    <glyph glyph-name="afii10067" unicode="&#x432;" horiz-adv-x="1142" 
d="M633 0h-502v1061h487q197 0 295.5 -75.5t98.5 -211.5q0 -152 -133 -211q86 -28 137 -92.5t51 -161.5q0 -150 -102 -229.5t-332 -79.5zM721 741q0 51 -30.5 69.5t-96.5 18.5h-152v-176h152q65 0 96 19t31 69zM762 336q0 62 -37.5 84t-112.5 22h-170v-211h170
q75 0 112.5 21.5t37.5 83.5z" />
    <glyph glyph-name="afii10068" unicode="&#x433;" horiz-adv-x="974" 
d="M938 821h-496v-821h-311v1061h807v-240z" />
    <glyph glyph-name="afii10069" unicode="&#x434;" horiz-adv-x="1239" 
d="M1198 240v-465h-311v225h-539v-225h-311v465h127q78 278 78 596v225h807v-821h149zM475 240h262v581h-190v-108q0 -218 -72 -473z" />
    <glyph glyph-name="afii10070" unicode="&#x435;" horiz-adv-x="1212" 
d="M1137 526q0 -71 -4 -96h-748q17 -100 86.5 -155.5t179.5 -55.5q141 0 230 123l215 -149q-164 -218 -457 -218q-258 0 -410.5 154.5t-152.5 400.5q0 245 147 400t385 155q236 0 382.5 -155.5t146.5 -403.5zM608 842q-94 0 -153 -52.5t-72 -148.5h446q-9 93 -69 147
t-152 54z" />
    <glyph glyph-name="afii10072" unicode="&#x436;" horiz-adv-x="1724" 
d="M1018 1061v-422l297 422h352l-326 -402l375 -659h-340l-223 430l-135 -166v-264h-311v264l-136 166l-223 -430h-340l375 659l-326 402h353l297 -422v422h311z" />
    <glyph glyph-name="afii10073" unicode="&#x437;" horiz-adv-x="1067" 
d="M496 860q-123 0 -224 -82l-176 150q177 157 436 157q190 0 304 -80t114 -214q0 -85 -43.5 -145.5t-118.5 -94.5q94 -30 148.5 -96t54.5 -158q0 -143 -122.5 -233.5t-338.5 -90.5q-301 0 -489 179l182 151q126 -104 281 -104q83 0 128.5 31t45.5 85q0 62 -56.5 94.5
t-152.5 32.5h-145v207h118q89 0 142 30t53 83q0 46 -38 72t-103 26z" />
    <glyph glyph-name="afii10074" unicode="&#x438;" horiz-adv-x="1298" 
d="M1167 0h-311v627l-418 -627h-307v1061h311v-627l418 627h307v-1061z" />
    <glyph glyph-name="afii10075" unicode="&#x439;" horiz-adv-x="1298" 
d="M1167 0h-311v627l-418 -627h-307v1061h311v-627l418 627h307v-1061zM649 1206q-137 0 -224 77t-116 210l191 39q36 -146 149 -146t150 146l190 -39q-29 -133 -116 -210t-224 -77z" />
    <glyph glyph-name="afii10076" unicode="&#x43a;" horiz-adv-x="1202" 
d="M131 1061h311v-434l346 434h355l-352 -402l401 -659h-338l-254 444l-158 -180v-264h-311v1061z" />
    <glyph glyph-name="afii10077" unicode="&#x43b;" horiz-adv-x="1333" 
d="M594 821v-434q0 -211 -103.5 -311.5t-334.5 -100.5q-64 0 -119 9v239q66 -4 90 -4q83 0 119.5 41t36.5 129v672h917v-1061h-311v821h-295z" />
    <glyph glyph-name="afii10078" unicode="&#x43c;" horiz-adv-x="1536" 
d="M836 221h-136l-258 371v-592h-311v1061h303l334 -504l334 504h303v-1061h-311v592z" />
    <glyph glyph-name="afii10079" unicode="&#x43d;" horiz-adv-x="1284" 
d="M442 696h400v365h311v-1061h-311v457h-400v-457h-311v1061h311v-365z" />
    <glyph glyph-name="afii10080" unicode="&#x43e;" horiz-adv-x="1236" 
d="M1161 530q0 -246 -149.5 -400.5t-393.5 -154.5t-393 154.5t-149 400.5t149 400.5t393 154.5t393.5 -154.5t149.5 -400.5zM846 530q0 149 -60 230.5t-168 81.5t-167.5 -81.5t-59.5 -230.5t59.5 -230t167.5 -81t168 81t60 230z" />
    <glyph glyph-name="afii10081" unicode="&#x43f;" horiz-adv-x="1253" 
d="M811 821h-369v-821h-311v1061h991v-1061h-311v821z" />
    <glyph glyph-name="afii10082" unicode="&#x440;" horiz-adv-x="1294" 
d="M1208 530q0 -261 -121.5 -408t-332.5 -147q-179 0 -312 123v-532h-311v1495h311v-98q132 122 312 122q211 0 332.5 -147t121.5 -408zM657 219q117 0 176.5 80t59.5 231t-59.5 231.5t-176.5 80.5q-57 0 -116.5 -25t-98.5 -67v-439q39 -42 98.5 -67t116.5 -25z" />
    <glyph glyph-name="afii10083" unicode="&#x441;" horiz-adv-x="1142" 
d="M76 530q0 246 146 400.5t390 154.5q161 0 287 -70.5t199 -195.5l-240 -117q-87 140 -225 140q-117 0 -179.5 -83.5t-62.5 -228.5t62.5 -228t179.5 -83q138 0 225 139l240 -116q-73 -125 -199 -196t-287 -71q-244 0 -390 154.5t-146 400.5z" />
    <glyph glyph-name="afii10084" unicode="&#x442;" horiz-adv-x="1089" 
d="M389 0v821h-352v240h1016v-240h-353v-821h-311z" />
    <glyph glyph-name="afii10085" unicode="&#x443;" horiz-adv-x="1177" 
d="M596 -434h-311l166 452l-422 1043h315l252 -672l240 672h313z" />
    <glyph glyph-name="afii10086" unicode="&#x444;" horiz-adv-x="1974" 
d="M831 963v532h312v-532q132 122 301 122q209 0 326.5 -146.5t117.5 -408.5t-117.5 -408.5t-326.5 -146.5q-168 0 -301 123v-532h-312v532q-133 -123 -301 -123q-209 0 -326.5 146.5t-117.5 408.5t117.5 408.5t326.5 146.5q169 0 301 -122zM831 311v439q-40 43 -94.5 67.5
t-109.5 24.5q-226 0 -226 -312q0 -311 226 -311q55 0 109.5 24.5t94.5 67.5zM1348 842q-56 0 -110.5 -24.5t-94.5 -67.5v-439q40 -43 94.5 -67.5t110.5 -24.5q225 0 225 311q0 312 -225 312z" />
    <glyph glyph-name="afii10087" unicode="&#x445;" horiz-adv-x="1146" 
d="M55 1061h326l192 -330l193 330h326l-304 -508l338 -553h-327l-226 375l-225 -375h-328l338 553z" />
    <glyph glyph-name="afii10088" unicode="&#x446;" horiz-adv-x="1312" 
d="M1122 240h150v-465h-311v225h-830v1061h311v-821h369v821h311v-821z" />
    <glyph glyph-name="afii10089" unicode="&#x447;" horiz-adv-x="1193" 
d="M582 553q100 0 170 63v445h309v-1061h-309v430q-106 -86 -254 -86q-190 0 -298 106.5t-108 323.5v287h311v-270q0 -128 43.5 -183t135.5 -55z" />
    <glyph glyph-name="afii10090" unicode="&#x448;" horiz-adv-x="1626" 
d="M969 240h215v821h311v-1061h-1364v1061h311v-821h215v821h312v-821z" />
    <glyph glyph-name="afii10091" unicode="&#x449;" horiz-adv-x="1687" 
d="M1335 0h-1204v1061h311v-821h215v821h312v-821h215v821h311v-821h152v-465h-312v225z" />
    <glyph glyph-name="afii10092" unicode="&#x44a;" horiz-adv-x="1273" 
d="M301 0v821h-276v240h587v-365h150q221 0 338 -89.5t117 -258.5q0 -170 -116.5 -259t-338.5 -89h-461zM903 346q0 111 -135 111h-154v-217h154q135 0 135 106z" />
    <glyph glyph-name="afii10093" unicode="&#x44b;" horiz-adv-x="1617" 
d="M1176 0v1061h311v-1061h-311zM131 0v1061h311v-365h150q221 0 338 -89.5t117 -258.5q0 -170 -116.5 -259t-338.5 -89h-461zM733 346q0 111 -135 111h-154v-217h154q135 0 135 106z" />
    <glyph glyph-name="afii10094" unicode="&#x44c;" horiz-adv-x="1103" 
d="M131 0v1061h311v-365h150q221 0 338 -89.5t117 -258.5q0 -170 -116.5 -259t-338.5 -89h-461zM733 346q0 111 -135 111h-154v-217h154q135 0 135 106z" />
    <glyph glyph-name="afii10095" unicode="&#x44d;" horiz-adv-x="1142" 
d="M739 410h-344v239h344q-22 92 -80 142.5t-149 50.5q-138 0 -225 -140l-240 117q73 125 198.5 195.5t286.5 70.5q245 0 391 -154.5t146 -400.5t-146 -400.5t-391 -154.5q-161 0 -286 70.5t-199 196.5l240 116q87 -139 225 -139q89 0 147 49.5t82 141.5z" />
    <glyph glyph-name="afii10096" unicode="&#x44e;" horiz-adv-x="1624" 
d="M1057 1085q230 0 360.5 -152.5t130.5 -402.5q0 -251 -130 -403t-361 -152q-202 0 -328 117t-156 318h-131v-410h-311v1061h311v-412h131q30 200 156.5 318t327.5 118zM1057 219q90 0 138 79.5t48 231.5q0 150 -48.5 231t-137.5 81q-90 0 -138.5 -81t-48.5 -231
q0 -151 48.5 -231t138.5 -80z" />
    <glyph glyph-name="afii10097" unicode="&#x44f;" horiz-adv-x="1179" 
d="M346 0h-328l263 408q-88 42 -133.5 121t-45.5 182q0 158 109.5 254t308.5 96h529v-1061h-312v360h-174zM549 602h188v217h-188q-63 0 -99 -28t-36 -80t36.5 -80.5t98.5 -28.5z" />
    <glyph glyph-name="uni0450" unicode="&#x450;" horiz-adv-x="1212" 
d="M1137 526q0 -71 -4 -96h-748q17 -100 86.5 -155.5t179.5 -55.5q141 0 230 123l215 -149q-164 -218 -457 -218q-258 0 -410.5 154.5t-152.5 400.5q0 245 147 400t385 155q236 0 382.5 -155.5t146.5 -403.5zM608 842q-94 0 -153 -52.5t-72 -148.5h446q-9 93 -69 147
t-152 54zM680 1174l-342 249l148 156l303 -278z" />
    <glyph glyph-name="afii10071" unicode="&#x451;" horiz-adv-x="1212" 
d="M1137 526q0 -71 -4 -96h-748q17 -100 86.5 -155.5t179.5 -55.5q141 0 230 123l215 -149q-164 -218 -457 -218q-258 0 -410.5 154.5t-152.5 400.5q0 245 147 400t385 155q236 0 382.5 -155.5t146.5 -403.5zM608 842q-94 0 -153 -52.5t-72 -148.5h446q-9 93 -69 147
t-152 54zM670 1364q0 59 39.5 99t99.5 40t99.5 -40t39.5 -99t-39.5 -99t-99.5 -40t-99.5 40t-39.5 99zM246 1364q0 59 39.5 99t99.5 40t99.5 -40t39.5 -99t-39.5 -99t-99.5 -40t-99.5 40t-39.5 99z" />
    <glyph glyph-name="afii10099" unicode="&#x452;" horiz-adv-x="1286" 
d="M1161 680v-662q0 -127 -20.5 -212t-70.5 -146t-136 -89t-217 -28q-71 0 -117 6v240q29 -2 90 -2q86 0 123 40.5t37 127.5v692q0 195 -168 195q-68 0 -133.5 -34t-106.5 -83v-725h-311v1204h-127v160h127v131h311v-131h373v-160h-373v-262q61 62 153.5 102.5t195.5 40.5
q170 0 270 -105t100 -300z" />
    <glyph glyph-name="afii10100" unicode="&#x453;" horiz-adv-x="974" 
d="M938 821h-496v-821h-311v1061h807v-240zM793 1423l-342 -249l-109 126l303 279z" />
    <glyph glyph-name="afii10101" unicode="&#x454;" horiz-adv-x="1142" 
d="M748 410h-345q24 -92 82 -141.5t148 -49.5q138 0 225 139l240 -116q-73 -125 -199 -196t-287 -71q-244 0 -390 154.5t-146 400.5t146 400.5t390 154.5q161 0 287 -70.5t199 -195.5l-240 -117q-87 140 -225 140q-91 0 -149.5 -50.5t-80.5 -142.5h345v-239z" />
    <glyph glyph-name="afii10102" unicode="&#x455;" horiz-adv-x="1079" 
d="M113 778q0 134 109.5 220.5t299.5 86.5q136 0 253 -45t200 -131l-191 -147q-37 42 -96 68t-121 26q-65 0 -102 -18t-37 -52q0 -38 51 -69t191 -72q164 -51 247.5 -134.5t83.5 -209.5q0 -146 -113 -236t-321 -90q-327 0 -512 209l205 152q128 -131 279 -131
q72 0 109.5 21.5t37.5 60.5q0 43 -44 73t-167 68q-193 60 -277.5 142t-84.5 208z" />
    <glyph glyph-name="afii10103" unicode="&#x456;" horiz-adv-x="598" 
d="M143 0v1061h312v-1061h-312zM483 1348q0 -76 -53.5 -128.5t-130.5 -52.5t-130.5 52.5t-53.5 128.5t53.5 128t130.5 52t130.5 -52t53.5 -128z" />
    <glyph glyph-name="afii10104" unicode="&#x457;" horiz-adv-x="598" 
d="M143 0v1061h312v-1061h-312zM373 1364q0 59 39.5 99t99.5 40t100 -40t40 -99t-40 -99t-100 -40t-99.5 40t-39.5 99zM-51 1364q0 59 39.5 99t99.5 40t100 -40t40 -99t-40 -99t-100 -40t-99.5 40t-39.5 99z" />
    <glyph glyph-name="afii10105" unicode="&#x458;" horiz-adv-x="598" 
d="M10 -457q-70 0 -116 6v240q29 -2 90 -2q86 0 122.5 40.5t36.5 127.5v1106h312v-1043q0 -127 -20.5 -212t-70.5 -146t-136.5 -89t-217.5 -28zM483 1348q0 -76 -53.5 -128.5t-130.5 -52.5t-130.5 52.5t-53.5 128.5t53.5 128t130.5 52t130.5 -52t53.5 -128z" />
    <glyph glyph-name="afii10106" unicode="&#x459;" horiz-adv-x="1841" 
d="M868 0v821h-274v-434q0 -211 -103.5 -311.5t-334.5 -100.5q-64 0 -119 9v239q66 -4 90 -4q83 0 119.5 41t36.5 129v672h897v-365h149q221 0 338 -89.5t117 -258.5q0 -170 -116.5 -259t-338.5 -89h-461zM1470 346q0 111 -135 111h-153v-217h153q135 0 135 106z" />
    <glyph glyph-name="afii10107" unicode="&#x45a;" horiz-adv-x="1763" 
d="M791 0v457h-349v-457h-311v1061h311v-365h349v365h311v-365h149q221 0 338 -89.5t117 -258.5q0 -170 -116.5 -259t-338.5 -89h-460zM1393 346q0 111 -136 111h-153v-217h153q136 0 136 106z" />
    <glyph glyph-name="afii10108" unicode="&#x45b;" horiz-adv-x="1286" 
d="M4 1364h127v131h311v-131h373v-160h-373v-262q61 62 153.5 102.5t195.5 40.5q170 0 270 -105t100 -300v-680h-311v647q0 195 -168 195q-68 0 -133.5 -34t-106.5 -83v-725h-311v1204h-127v160z" />
    <glyph glyph-name="afii10109" unicode="&#x45c;" horiz-adv-x="1202" 
d="M131 1061h311v-434l346 434h355l-352 -402l401 -659h-338l-254 444l-158 -180v-264h-311v1061zM870 1423l-342 -249l-108 126l303 279z" />
    <glyph glyph-name="uni045D" unicode="&#x45d;" horiz-adv-x="1298" 
d="M1167 0h-311v627l-418 -627h-307v1061h311v-627l418 627h307v-1061zM715 1174l-342 249l147 156l303 -279z" />
    <glyph glyph-name="afii10110" unicode="&#x45e;" horiz-adv-x="1177" 
d="M596 -434h-311l166 452l-422 1043h315l252 -672l240 672h313zM592 1206q-137 0 -224 77t-116 210l191 39q36 -145 149 -145q114 0 150 145l190 -39q-29 -133 -116 -210t-224 -77z" />
    <glyph glyph-name="afii10193" unicode="&#x45f;" horiz-adv-x="1253" 
d="M782 -225h-311v225h-340v1061h311v-821h369v821h311v-1061h-340v-225z" />
    <glyph glyph-name="afii10050" unicode="&#x490;" horiz-adv-x="1161" 
d="M152 0v1434h647v252h325v-521h-647v-1165h-325z" />
    <glyph glyph-name="afii10098" unicode="&#x491;" horiz-adv-x="974" 
d="M938 821h-496v-821h-311v1061h496v270h311v-510z" />
    <glyph glyph-name="Wgrave" unicode="&#x1e80;" horiz-adv-x="2117" 
d="M895 1434h328l247 -1031l275 1031h336l-406 -1434h-387l-229 999l-230 -999h-387l-405 1434h336l274 -1031zM1079 1530l-342 249l148 156l303 -278z" />
    <glyph glyph-name="wgrave" unicode="&#x1e81;" horiz-adv-x="1748" 
d="M543 360l192 701h279l192 -701l195 701h319l-334 -1061h-327l-185 666l-184 -666h-328l-333 1061h319zM901 1174l-342 249l148 156l303 -279z" />
    <glyph glyph-name="Wacute" unicode="&#x1e82;" horiz-adv-x="2117" 
d="M895 1434h328l247 -1031l275 1031h336l-406 -1434h-387l-229 999l-230 -999h-387l-405 1434h336l274 -1031zM1373 1779l-342 -249l-109 127l303 278z" />
    <glyph glyph-name="wacute" unicode="&#x1e83;" horiz-adv-x="1748" 
d="M543 360l192 701h279l192 -701l195 701h319l-334 -1061h-327l-185 666l-184 -666h-328l-333 1061h319zM1190 1423l-342 -249l-109 126l303 279z" />
    <glyph glyph-name="Wdieresis" unicode="&#x1e84;" horiz-adv-x="2117" 
d="M895 1434h328l247 -1031l275 1031h336l-406 -1434h-387l-229 999l-230 -999h-387l-405 1434h336l274 -1031zM1133 1720q0 59 39.5 99t99.5 40t100 -40t40 -99t-40 -99t-100 -40t-99.5 40t-39.5 99zM709 1720q0 59 39.5 99t99.5 40t100 -40t40 -99t-40 -99t-100 -40
t-99.5 40t-39.5 99z" />
    <glyph glyph-name="wdieresis" unicode="&#x1e85;" horiz-adv-x="1748" 
d="M543 360l192 701h279l192 -701l195 701h319l-334 -1061h-327l-185 666l-184 -666h-328l-333 1061h319zM948 1364q0 59 39.5 99t99.5 40t100 -40t40 -99t-40 -99t-100 -40t-99.5 40t-39.5 99zM524 1364q0 59 40 99t100 40t99.5 -40t39.5 -99t-39.5 -99t-99.5 -40t-100 40
t-40 99z" />
    <glyph glyph-name="Ygrave" unicode="&#x1ef2;" horiz-adv-x="1355" 
d="M977 1434h350l-485 -871v-563h-328v563l-485 871h350l299 -588zM752 1530l-342 249l148 156l303 -278z" />
    <glyph glyph-name="ygrave" unicode="&#x1ef3;" horiz-adv-x="1177" 
d="M596 -434h-311l166 452l-422 1043h315l252 -672l240 672h313zM643 1174l-342 249l148 156l303 -279z" />
    <glyph glyph-name="thinspace" unicode="&#x2009;" horiz-adv-x="409" 
 />
    <glyph glyph-name="uni2010" unicode="&#x2010;" horiz-adv-x="827" 
d="M715 559h-602v240h602v-240z" />
    <glyph glyph-name="figuredash" unicode="&#x2012;" horiz-adv-x="1265" 
d="M1184 569h-1102v219h1102v-219z" />
    <glyph glyph-name="endash" unicode="&#x2013;" horiz-adv-x="1024" 
d="M1024 569h-1024v219h1024v-219z" />
    <glyph glyph-name="emdash" unicode="&#x2014;" horiz-adv-x="2048" 
d="M2048 569h-2048v219h2048v-219z" />
    <glyph glyph-name="afii00208" unicode="&#x2015;" horiz-adv-x="2048" 
d="M1851 569h-1654v219h1654v-219z" />
    <glyph glyph-name="uni2016" unicode="&#x2016;" horiz-adv-x="983" 
d="M193 -266v1800h219v-1800h-219zM571 -266v1800h220v-1800h-220z" />
    <glyph glyph-name="underscoredbl" unicode="&#x2017;" horiz-adv-x="1243" 
d="M94 -496v191h1055v-191h-1055zM94 -238v189h1055v-189h-1055z" />
    <glyph glyph-name="quoteleft" unicode="&#x2018;" horiz-adv-x="643" 
d="M575 1550l-169 -596l-259 86l232 572z" />
    <glyph glyph-name="quoteright" unicode="&#x2019;" horiz-adv-x="643" 
d="M76 1016l170 596l258 -86l-232 -572z" />
    <glyph glyph-name="quotesinglbase" unicode="&#x201a;" horiz-adv-x="643" 
d="M76 -264l170 596l258 -86l-232 -572z" />
    <glyph glyph-name="quotereversed" unicode="&#x201b;" horiz-adv-x="643" 
d="M397 1612l170 -596l-196 -62l-232 572z" />
    <glyph glyph-name="quotedblleft" unicode="&#x201c;" horiz-adv-x="1048" 
d="M981 1550l-170 -596l-258 86l231 572zM575 1550l-169 -596l-259 86l232 572z" />
    <glyph glyph-name="quotedblright" unicode="&#x201d;" horiz-adv-x="1048" 
d="M481 1014l170 596l258 -86l-231 -572zM76 1014l170 596l258 -86l-232 -572z" />
    <glyph glyph-name="quotedblbase" unicode="&#x201e;" horiz-adv-x="1048" 
d="M76 -264l170 596l258 -86l-232 -572zM481 -264l170 596l258 -86l-231 -572z" />
    <glyph glyph-name="uni201F" unicode="&#x201f;" horiz-adv-x="1048" 
d="M397 1610l170 -596l-196 -62l-232 572zM803 1610l170 -596l-197 -62l-231 572z" />
    <glyph glyph-name="dagger" unicode="&#x2020;" horiz-adv-x="1224" 
d="M1073 1188v-248h-305v-1208h-311v1208h-305v248h305v344h311v-344h305z" />
    <glyph glyph-name="daggerdbl" unicode="&#x2021;" horiz-adv-x="1224" 
d="M1073 324v-248h-305v-344h-311v344h-305v248h305v616h-305v248h305v344h311v-344h305v-248h-305v-616h305z" />
    <glyph glyph-name="bullet" unicode="&#x2022;" horiz-adv-x="919" 
d="M176 678q0 128 78.5 208.5t206.5 80.5q127 0 204.5 -80.5t77.5 -208.5t-77.5 -207.5t-204.5 -79.5q-128 0 -206.5 79.5t-78.5 207.5z" />
    <glyph glyph-name="onedotenleader" unicode="&#x2024;" horiz-adv-x="643" 
d="M156 143q0 70 48.5 119t117.5 49t117 -49t48 -119t-48 -119t-117 -49t-117.5 49t-48.5 119z" />
    <glyph glyph-name="twodotenleader" unicode="&#x2025;" horiz-adv-x="1286" 
d="M156 143q0 70 48.5 119t117.5 49t117 -49t48 -119t-48 -119t-117 -49t-117.5 49t-48.5 119zM799 143q0 70 48.5 119t117.5 49t117 -49t48 -119t-48 -119t-117 -49t-117.5 49t-48.5 119z" />
    <glyph glyph-name="ellipsis" unicode="&#x2026;" horiz-adv-x="1929" 
d="M156 143q0 70 48.5 119t117.5 49t117 -49t48 -119t-48 -119t-117 -49t-117.5 49t-48.5 119zM799 143q0 70 48.5 119t117.5 49t117 -49t48 -119t-48 -119t-117 -49t-117.5 49t-48.5 119zM1442 143q0 70 48.5 119t117.5 49t117.5 -49t48.5 -119t-48.5 -119t-117.5 -49
t-117.5 49t-48.5 119z" />
    <glyph glyph-name="perthousand" unicode="&#x2030;" horiz-adv-x="2447" 
d="M1376 1362l-874 -1393l-150 103l875 1392zM819 1081q0 -164 -91.5 -265t-242.5 -101q-150 0 -241.5 100.5t-91.5 265.5t91.5 266t241.5 101t242 -101t92 -266zM385 1081q0 -163 100 -163q47 0 74 40.5t27 122.5t-27 123t-74 41t-73.5 -41t-26.5 -123zM1573 350
q0 -164 -91.5 -265t-242.5 -101t-242.5 101t-91.5 265q0 165 92 266t242 101t242 -101t92 -266zM1139 350q0 -82 26.5 -123t73.5 -41t73.5 41t26.5 123t-26.5 123t-73.5 41t-73.5 -41t-26.5 -123zM2296 350q0 -164 -91.5 -265t-242.5 -101t-242.5 101t-91.5 265
q0 165 92 266t242 101t242 -101t92 -266zM1862 350q0 -82 26.5 -123t73.5 -41t73.5 41t26.5 123t-26.5 123t-73.5 41t-73.5 -41t-26.5 -123z" />
    <glyph glyph-name="minute" unicode="&#x2032;" horiz-adv-x="700" 
d="M145 899l144 549l266 -80l-215 -524z" />
    <glyph glyph-name="second" unicode="&#x2033;" horiz-adv-x="1138" 
d="M145 899l144 549l266 -80l-215 -524zM584 899l143 549l266 -80l-215 -524z" />
    <glyph glyph-name="guilsinglleft" unicode="&#x2039;" horiz-adv-x="747" 
d="M94 582v114l443 324l116 -156l-317 -225l317 -225l-116 -156z" />
    <glyph glyph-name="guilsinglright" unicode="&#x203a;" horiz-adv-x="747" 
d="M653 696v-114l-442 -324l-117 156l318 225l-318 225l117 156z" />
    <glyph glyph-name="exclamdbl" unicode="&#x203c;" horiz-adv-x="1150" 
d="M154 1434h335v-349l-47 -686h-241l-47 686v349zM322 -25q-69 0 -117.5 49t-48.5 119t48.5 119t117.5 49t117 -49t48 -119t-48 -119t-117 -49zM662 1434h335v-349l-47 -686h-241l-47 686v349zM829 -25q-69 0 -117 49t-48 119t48 119t117 49t117.5 -49t48.5 -119
t-48.5 -119t-117.5 -49z" />
    <glyph glyph-name="uni203E" unicode="&#x203e;" horiz-adv-x="798" 
d="M86 1229v188h627v-188h-627z" />
    <glyph glyph-name="fraction" unicode="&#x2044;" horiz-adv-x="417" 
d="M510 1464l158 -86l-760 -1409l-158 86z" />
    <glyph glyph-name="zerosuperior" unicode="&#x2070;" 
d="M819 961q0 -225 -98.5 -357.5t-280.5 -132.5t-280.5 132.5t-98.5 357.5t98.5 357t280.5 132t280.5 -132t98.5 -357zM303 961q0 -289 137 -289q138 0 138 289q0 288 -138 288q-137 0 -137 -288z" />
    <glyph glyph-name="uni2071" unicode="&#x2071;" 
d="M328 485v676h225v-676h-225zM567 1360q0 -52 -34.5 -89.5t-92.5 -37.5t-92.5 37.5t-34.5 89.5t34.5 89.5t92.5 37.5t92.5 -37.5t34.5 -89.5z" />
    <glyph glyph-name="foursuperior" unicode="&#x2074;" 
d="M483 668h-428v188l402 578h252v-570h106v-196h-106v-183h-226v183zM483 1139l-190 -275h190v275z" />
    <glyph glyph-name="fivesuperior" unicode="&#x2075;" 
d="M223 885l-69 41v508h591v-191h-370v-164q57 13 106 13q136 0 223 -85t87 -225q0 -141 -97.5 -227t-267.5 -86q-205 0 -336 137l154 129q74 -71 176 -71q58 0 93.5 33t35.5 83q0 61 -44 95t-122 34q-87 0 -160 -24z" />
    <glyph glyph-name="sixsuperior" unicode="&#x2076;" 
d="M465 1264q-61 0 -99 -53.5t-44 -157.5q78 65 184 65q133 0 216 -86.5t83 -234.5q0 -146 -95.5 -237t-254.5 -91q-172 0 -271.5 118.5t-99.5 336.5q0 265 102.5 395.5t276.5 130.5q206 0 311 -162l-158 -100q-59 76 -151 76zM449 928q-70 0 -130 -54q13 -210 132 -210
q57 0 88.5 35.5t31.5 97.5q0 60 -32.5 95.5t-89.5 35.5z" />
    <glyph glyph-name="sevensuperior" unicode="&#x2077;" 
d="M770 1239l-324 -754h-258l324 748h-395v201h653v-195z" />
    <glyph glyph-name="eightsuperior" unicode="&#x2078;" 
d="M84 758q0 142 133 227q-108 84 -108 203q0 121 88 191.5t235 70.5q149 0 239.5 -72t90.5 -192q0 -61 -29 -114t-80 -89q73 -44 109.5 -98.5t36.5 -132.5q0 -126 -97 -205.5t-258 -79.5q-162 0 -261 79.5t-99 211.5zM317 760q0 -52 34.5 -81.5t92.5 -29.5q54 0 88.5 26
t34.5 66q0 47 -40 77t-144 77q-66 -54 -66 -135zM539 1174q0 46 -27.5 71t-79.5 25q-44 0 -70 -22t-26 -56t20 -56t64 -44l67 -33q52 49 52 115z" />
    <glyph glyph-name="ninesuperior" unicode="&#x2079;" 
d="M410 655q133 0 147 201q-69 -57 -172 -57q-134 0 -221.5 87t-87.5 234t95.5 238.5t254.5 91.5q171 0 271 -119.5t100 -337.5q0 -268 -101 -396t-280 -128q-184 0 -297 119l135 131q64 -64 156 -64zM432 991q73 0 127 51q-11 213 -129 213q-57 0 -89 -36t-32 -99
q0 -60 33 -94.5t90 -34.5z" />
    <glyph glyph-name="uni207A" unicode="&#x207a;" 
d="M340 629v252h-246v166h246v251h199v-251h247v-166h-247v-252h-199z" />
    <glyph glyph-name="uni207B" unicode="&#x207b;" 
d="M786 881h-692v166h692v-166z" />
    <glyph glyph-name="uni207C" unicode="&#x207c;" 
d="M786 1036h-692v166h692v-166zM786 725h-692v166h692v-166z" />
    <glyph glyph-name="uni207D" unicode="&#x207d;" 
d="M268 961q0 315 197 593l156 -71q-154 -248 -154 -522q0 -275 154 -523l-156 -71q-197 278 -197 594z" />
    <glyph glyph-name="uni207E" unicode="&#x207e;" 
d="M612 961q0 -317 -196 -594l-156 71q154 248 154 523q0 274 -154 522l156 71q196 -277 196 -593z" />
    <glyph glyph-name="uni207F" unicode="&#x207f;" 
d="M457 1004q-29 0 -60 -15t-45 -33v-471h-231v680h231v-59q87 76 199 76q97 0 154 -64t57 -176v-457h-232v435q0 84 -73 84z" />
    <glyph glyph-name="zeroinferior" unicode="&#x2080;" 
d="M819 217q0 -225 -98.5 -357t-280.5 -132t-280.5 132t-98.5 357t98.5 357.5t280.5 132.5t280.5 -132.5t98.5 -357.5zM303 217q0 -289 137 -289q138 0 138 289t-138 289q-137 0 -137 -289z" />
    <glyph glyph-name="oneinferior" unicode="&#x2081;" 
d="M391 438l-135 -98l-127 135l289 217h205v-950h-232v696z" />
    <glyph glyph-name="twoinferior" unicode="&#x2082;" 
d="M410 506q-90 0 -162 -82l-164 117q134 166 352 166q150 0 236 -78t86 -209q0 -116 -83.5 -235t-230.5 -248h318v-195h-653v158q187 147 298 280t111 226q0 45 -28 72.5t-80 27.5z" />
    <glyph glyph-name="threeinferior" unicode="&#x2083;" 
d="M401 -90q62 0 98 32t36 83q0 63 -49 95t-134 32h-88v165h88q76 0 117 29.5t41 81.5q0 43 -24.5 67.5t-71.5 24.5q-87 0 -142 -69l-157 110q126 146 319 146q142 0 228 -71t86 -190q0 -71 -39 -126.5t-105 -83.5q74 -28 120 -86.5t46 -141.5q0 -123 -94.5 -202.5
t-259.5 -79.5q-108 0 -195 41t-141 116l160 111q60 -84 161 -84z" />
    <glyph glyph-name="fourinferior" unicode="&#x2084;" 
d="M483 -76h-428v189l402 577h252v-569h106v-197h-106v-182h-226v182zM483 395l-190 -274h190v274z" />
    <glyph glyph-name="fiveinferior" unicode="&#x2085;" 
d="M223 141l-69 41v508h591v-190h-370v-164q53 12 106 12q136 0 223 -84.5t87 -224.5q0 -141 -97.5 -227t-267.5 -86q-205 0 -336 137l154 129q75 -72 176 -72q58 0 93.5 33.5t35.5 83.5q0 61 -44 95t-122 34q-83 0 -160 -25z" />
    <glyph glyph-name="sixinferior" unicode="&#x2086;" 
d="M465 520q-61 0 -99 -53.5t-44 -157.5q80 66 184 66q133 0 216 -87t83 -235q0 -146 -95.5 -236.5t-254.5 -90.5q-172 0 -271.5 118t-99.5 336q0 265 102.5 396t276.5 131q206 0 311 -162l-158 -101q-59 76 -151 76zM449 184q-71 0 -130 -53q14 -211 132 -211
q57 0 88.5 35.5t31.5 97.5q0 60 -32.5 95.5t-89.5 35.5z" />
    <glyph glyph-name="seveninferior" unicode="&#x2087;" 
d="M770 496l-324 -754h-258l324 747h-395v201h653v-194z" />
    <glyph glyph-name="eightinferior" unicode="&#x2088;" 
d="M80 14q0 143 133 228q-109 85 -109 202q0 121 88.5 192t235.5 71q149 0 239.5 -72.5t90.5 -192.5q0 -61 -29 -113.5t-80 -88.5q73 -43 109.5 -98.5t36.5 -133.5q0 -126 -97 -205t-258 -79q-162 0 -261 79t-99 211zM313 16q0 -52 34.5 -81t92.5 -29q54 0 88.5 26t34.5 66
q0 47 -40 77t-144 77q-66 -54 -66 -136zM535 430q0 46 -27.5 71t-79.5 25q-44 0 -70 -21.5t-26 -55.5q0 -35 20 -57t64 -44l67 -33q52 49 52 115z" />
    <glyph glyph-name="nineinferior" unicode="&#x2089;" 
d="M410 -88q133 0 147 201q-70 -58 -172 -58q-134 0 -221.5 87.5t-87.5 234.5t95.5 238.5t254.5 91.5q171 0 271 -119.5t100 -337.5q0 -268 -101 -396t-280 -128q-185 0 -297 118l135 131q63 -63 156 -63zM432 248q73 0 127 51q-11 213 -129 213q-57 0 -89 -36t-32 -99
q0 -60 33 -94.5t90 -34.5z" />
    <glyph glyph-name="uni208A" unicode="&#x208a;" 
d="M340 -115v252h-246v166h246v252h199v-252h247v-166h-247v-252h-199z" />
    <glyph glyph-name="uni208B" unicode="&#x208b;" 
d="M786 137h-692v166h692v-166z" />
    <glyph glyph-name="uni208C" unicode="&#x208c;" 
d="M786 293h-692v166h692v-166zM786 -18h-692v165h692v-165z" />
    <glyph glyph-name="uni208D" unicode="&#x208d;" 
d="M268 217q0 316 197 594l156 -72q-154 -248 -154 -522t154 -522l-156 -72q-197 278 -197 594z" />
    <glyph glyph-name="uni208E" unicode="&#x208e;" 
d="M612 217q0 -317 -196 -594l-156 72q154 248 154 522t-154 522l156 72q196 -277 196 -594z" />
    <glyph glyph-name="uni2090" unicode="&#x2090;" 
d="M86 -49q0 106 73 168.5t189 62.5q122 0 199 -65v59q0 57 -30.5 85t-98.5 28q-91 0 -164 -56l-129 125q139 107 326 107q155 0 239 -74t84 -203v-448h-227v57q-35 -33 -87.5 -52t-105.5 -19q-119 0 -193.5 61t-74.5 164zM403 -117q41 0 82 13t62 34v56q-53 37 -144 37
q-44 0 -69 -18t-25 -52t25 -52t69 -18z" />
    <glyph glyph-name="uni2091" unicode="&#x2091;" 
d="M797 92q0 -38 -4 -61h-476q9 -64 50 -99.5t104 -35.5q98 0 152 75l143 -102q-114 -141 -307 -141q-170 0 -271.5 100.5t-101.5 265.5q0 161 99.5 264t256.5 103q158 0 256.5 -103t98.5 -266zM313 162h258q-12 129 -129 129t-129 -129z" />
    <glyph glyph-name="uni2092" unicode="&#x2092;" 
d="M813 94q0 -164 -100.5 -265t-272.5 -101q-171 0 -271.5 100.5t-100.5 265.5t100.5 266t271.5 101t272 -101t101 -266zM578 94q0 89 -38.5 140t-99.5 51t-99 -51t-38 -140t38 -139.5t99 -50.5t99.5 50.5t38.5 139.5z" />
    <glyph glyph-name="uni2093" unicode="&#x2093;" 
d="M578 -256l-138 211l-137 -211h-256l248 358l-232 342h248l129 -194l129 194h248l-231 -342l248 -358h-256z" />
    <glyph glyph-name="uni2094" unicode="&#x2094;" 
d="M84 96q0 39 4 62h475q-9 64 -49.5 99.5t-103.5 35.5q-98 0 -152 -76l-143 102q115 142 307 142q169 0 271 -101t102 -266q0 -160 -99.5 -263t-257.5 -103t-256 102.5t-98 265.5zM567 27h-258q12 -129 129 -129t129 129z" />
    <glyph glyph-name="uni20A0" unicode="&#x20a0;" horiz-adv-x="1603" 
d="M76 938q0 237 137.5 378.5t368.5 141.5q137 0 246 -56.5t178 -158.5l-193 -121q-88 119 -223 119q-114 0 -181 -81t-67 -222q0 -137 71 -219t177 -82q141 0 215 86v281h708v-197h-444v-197h410v-196h-410v-217h459v-197h-723v485q-41 -32 -107 -48.5t-135 -16.5
q-216 0 -351.5 144t-135.5 374z" />
    <glyph glyph-name="colonmonetary" unicode="&#x20a1;" horiz-adv-x="1449" 
d="M328 -106l55 194q-142 95 -220.5 257t-78.5 372q0 334 191 536.5t505 204.5l45 156l119 -35l-39 -131q42 -5 92 -18l54 184l118 -35l-55 -193q175 -85 277 -260l-271 -133q-42 68 -90 107l-246 -852h11q208 0 325 192l271 -133q-90 -158 -249 -245t-360 -87q-12 0 -75 5
l-35 -121l-119 35l31 106q-54 14 -88 29l-50 -170zM414 717q0 -173 67 -291l217 748q-129 -32 -206.5 -150.5t-77.5 -306.5zM578 315q40 -27 84 -45l258 893q-54 19 -91 21z" />
    <glyph glyph-name="uni20A2" unicode="&#x20a2;" horiz-adv-x="1449" 
d="M84 717q0 336 192 538.5t506 202.5q201 0 360 -87t249 -245l-271 -133q-117 193 -325 193q-167 0 -274 -123.5t-107 -345.5q0 -156 54 -264.5t148 -161.5v586h234v-107q93 127 262 127q37 0 55 -2v-190q-25 4 -69 4q-76 0 -142.5 -35t-105.5 -94v-330q169 24 270 190
l271 -133q-90 -158 -249 -245t-360 -87q-314 0 -506 203t-192 539z" />
    <glyph glyph-name="franc" unicode="&#x20a3;" horiz-adv-x="1148" 
d="M37 911h115v523h958v-260h-633v-263h529v-129h-529v-129h529v-129h-529v-524h-325v524h-115v129h115v129h-115v129z" />
    <glyph glyph-name="lira" unicode="&#x20a4;" horiz-adv-x="1257" 
d="M76 631h153v129h-153v129h153v117q0 223 125.5 337.5t354.5 114.5q138 0 259.5 -56.5t198.5 -154.5l-221 -162q-90 101 -201 101q-190 0 -190 -195v-102h377v-129h-377v-129h377v-129h-381q-16 -154 -111 -234h760v-268h-1124v250q142 94 151 252h-151v129z" />
    <glyph glyph-name="uni20A6" unicode="&#x20a6;" horiz-adv-x="1501" 
d="M18 920h134v514h358l264 -514h260v514h316v-514h133v-129h-133v-148h133v-129h-133v-514h-359l-264 514h-260v-514h-315v514h-134v129h134v148h-134v129zM840 791l75 -148h119v148h-194zM467 791v-148h192l-75 148h-117zM983 514l51 -100v100h-51zM467 1020v-100h51z" />
    <glyph glyph-name="peseta" unicode="&#x20a7;" horiz-adv-x="2297" 
d="M1638 1061v-39q85 63 220 63q114 0 200.5 -41t153.5 -129l-189 -116q-49 63 -127 63q-43 0 -70.5 -22t-27.5 -60q0 -45 37 -76.5t137 -70.5q250 -100 250 -309q0 -155 -98 -239.5t-273 -84.5h-399q-111 0 -184.5 31t-114 97.5t-56.5 154t-16 217.5v321h-108
q-37 -163 -171.5 -247.5t-332.5 -84.5h-43v-489h-274v1434h317q210 0 348 -95t168 -278h96v317h262v-317h295zM1524 782q0 27 2 39h-183v-291q0 -177 27.5 -239t124.5 -62h324q112 0 112 90q0 47 -35 78.5t-139 75.5q-120 50 -176.5 124t-56.5 185zM725 961
q0 114 -63.5 164.5t-192.5 50.5h-43v-431h43q129 0 192.5 51.5t63.5 164.5z" />
    <glyph glyph-name="uni20A8" unicode="&#x20a8;" horiz-adv-x="2228" 
d="M1188 989q0 -141 -68 -237t-188 -144l330 -608h-353l-274 547h-158v-547h-325v1434h471q268 0 416.5 -116.5t148.5 -328.5zM862 989q0 193 -237 193h-148v-383h148q237 0 237 190zM1227 182l194 142q129 -129 277 -129q61 0 100 29t39 69q0 50 -39.5 78t-150.5 61
q-194 58 -278.5 139.5t-84.5 206.5q0 134 111 220.5t299 86.5q261 0 432 -174l-178 -133q-98 90 -217 90q-59 0 -95.5 -23.5t-36.5 -58.5q0 -37 37 -62.5t140 -59.5q79 -27 131.5 -48.5t103 -52.5t79 -66.5t45.5 -84.5t17 -111q0 -144 -118 -235t-312 -91q-154 0 -282 56
t-213 151z" />
    <glyph glyph-name="uni20A9" unicode="&#x20a9;" horiz-adv-x="2117" 
d="M2077 502h-260l-142 -502h-387l-114 502h-230l-115 -502h-387l-143 502h-258v129h221l-33 114h-188v129h154l-158 560h336l147 -560h240l135 560h328l133 -560h239l150 560h336l-158 -560h154v-129h-191l-33 -114h224v-129zM1415 631h117l31 114h-177zM555 745l31 -114
h114l29 114h-174zM999 745l-26 -114h170l-27 114h-117zM1059 999l-29 -125h57zM1446 502l24 -99l27 99h-51zM621 502l26 -99l23 99h-49z" />
    <glyph glyph-name="afii57636" unicode="&#x20aa;" horiz-adv-x="1851" 
d="M152 0v1434h602q246 0 387 -150t141 -438v-328h-266v305q0 115 -19.5 193t-59.5 121.5t-92.5 61.5t-127.5 18h-301v-1217h-264zM1700 1434v-1434h-602q-246 0 -387.5 150t-141.5 438v327h267v-305q0 -115 19.5 -193t59.5 -121.5t92.5 -61t127.5 -17.5h301v1217h264z" />
    <glyph glyph-name="dong" unicode="&#x20ab;" horiz-adv-x="1298" 
d="M477 1303h373v131h311v-131h127v-160h-127v-1143h-311v98q-133 -123 -311 -123q-211 0 -333 139.5t-122 385.5t122 385t333 139q178 0 311 -123v242h-373v160zM635 780q-117 0 -176.5 -72.5t-59.5 -207.5t59.5 -208t176.5 -73q57 0 116.5 25t98.5 67v377q-39 42 -98.5 67
t-116.5 25zM1120 -162v-160h-817v160h817z" />
    <glyph glyph-name="Euro" unicode="&#x20ac;" horiz-adv-x="1515" 
d="M864 524h-358q40 -134 134 -205t220 -71q209 0 326 192l270 -133q-90 -158 -248.5 -245t-359.5 -87q-265 0 -446 147.5t-234 401.5h-131v129h115q-2 20 -2 64q0 41 2 61h-115v129h131q51 255 232.5 403t447.5 148q201 0 359.5 -87t248.5 -245l-270 -133
q-117 193 -326 193q-125 0 -220 -72.5t-136 -206.5h473l-37 -129h-459q-2 -20 -2 -61q0 -44 2 -64h422q-21 -65 -39 -129z" />
    <glyph glyph-name="afii61248" unicode="&#x2105;" horiz-adv-x="2189" 
d="M2132 440q0 -207 -125.5 -335t-331.5 -128t-331 128t-125 335t125 335t331 128t331.5 -128t125.5 -335zM1495 440q0 -107 49 -171t131 -64t131 64t49 171t-49 171.5t-131 64.5t-131 -64.5t-49 -171.5zM57 987q0 -214 124.5 -338.5t334.5 -124.5q129 0 233.5 58.5
t165.5 160.5l-213 109q-30 -49 -77.5 -74.5t-102.5 -25.5q-87 0 -137.5 62.5t-50.5 172.5t50.5 173t137.5 63q55 0 102.5 -26t77.5 -75l213 109q-61 102 -165.5 160.5t-233.5 58.5q-210 0 -334.5 -124.5t-124.5 -338.5zM1382 1464l158 -86l-760 -1409l-157 86z" />
    <glyph glyph-name="uni2109" unicode="&#x2109;" horiz-adv-x="1708" 
d="M711 0v1434h958v-260h-633v-347h561v-260h-561v-567h-325zM190 1178q0 -51 32 -84t83 -33t83 33t32 84t-32 83.5t-83 32.5t-83 -32.5t-32 -83.5zM18 1178q0 117 83 198.5t204 81.5t204 -81.5t83 -198.5t-83 -199t-204 -82t-204 82t-83 199z" />
    <glyph glyph-name="afii61289" unicode="&#x2113;" horiz-adv-x="1187" 
d="M1038 971q0 -225 -91.5 -414t-266.5 -307q43 -43 98 -43q83 0 146 72l163 -177q-121 -127 -335 -127q-188 0 -330 142q-133 -51 -277 -72l-69 256q86 16 182 47q-92 215 -92 488q0 293 126.5 456.5t346.5 163.5q190 0 294.5 -134t104.5 -351zM475 834q0 -210 49 -357
q207 172 207 516q0 121 -26.5 170t-73.5 49q-68 0 -112 -98.5t-44 -279.5z" />
    <glyph glyph-name="afii61352" unicode="&#x2116;" horiz-adv-x="2048" 
d="M152 0v1434h309l340 -899v899h278v-1434h-309l-340 899v-899h-278zM1972 186v-186h-803v186h803zM1954 684q0 -190 -104 -305t-285 -115q-175 0 -278 115.5t-103 304.5t103 304.5t278 115.5q181 0 285 -115t104 -305zM1430 684q0 -103 36.5 -157t102.5 -54t102.5 54
t36.5 157t-36.5 157t-102.5 54t-102.5 -54t-36.5 -157z" />
    <glyph glyph-name="uni2117" unicode="&#x2117;" horiz-adv-x="1683" 
d="M100 717q0 202 99.5 372.5t270 269.5t372.5 99q151 0 288.5 -58.5t236.5 -157.5t157.5 -236.5t58.5 -288.5q0 -202 -99 -372.5t-269.5 -270t-372.5 -99.5t-372.5 99.5t-270 270t-99.5 372.5zM215 717q0 -130 49.5 -247.5t133.5 -202.5t200 -135t244 -50t243.5 50
t199.5 135t133.5 202.5t49.5 247.5t-49.5 247.5t-133.5 202.5t-199.5 135t-243.5 50t-244 -50t-200 -135t-133.5 -202.5t-49.5 -247.5zM1028 844q0 143 -145 143h-111v-289h111q145 0 145 146zM1239 844q0 -145 -93.5 -223t-260.5 -78h-113v-277h-219v875h332
q167 0 260.5 -77t93.5 -220z" />
    <glyph glyph-name="uni2120" unicode="&#x2120;" horiz-adv-x="1464" 
d="M307 895q33 0 54.5 14t21.5 37q0 27 -28 49.5t-97 46.5q-99 33 -143.5 83.5t-44.5 123.5q0 86 66 139.5t175 53.5q147 0 238 -105l-111 -88q-50 56 -112 56q-32 0 -52 -14.5t-20 -37.5q0 -22 18 -36.5t60 -30.5q58 -24 87.5 -37.5t63 -34t48 -40.5t24.5 -49.5t10 -68.5
q0 -92 -69 -146t-185 -54q-163 0 -266 114l119 95q73 -70 143 -70zM1063 874h-123l-127 240v-348h-180v668h194l174 -334l175 334h194v-668h-180v348z" />
    <glyph glyph-name="uni2121" unicode="&#x2121;" horiz-adv-x="2228" 
d="M332 0v1171h-295v263h901v-263h-295v-1171h-311zM1675 526q0 -61 -4 -92h-586q5 -101 52 -158t131 -57q53 0 95.5 28.5t68.5 80.5l210 -146q-139 -207 -389 -207q-115 0 -205 44t-146 121t-85 176t-29 214q0 250 119 402.5t324 152.5q211 0 327.5 -153t116.5 -406z
M1786 0v1495h301v-1495h-301zM1231 852q-66 0 -105.5 -56t-40.5 -159h293q-1 102 -40.5 158.5t-106.5 56.5z" />
    <glyph glyph-name="trademark" unicode="&#x2122;" horiz-adv-x="1441" 
d="M199 766v530h-181v138h541v-138h-180v-530h-180zM1040 874h-122l-127 240v-348h-181v668h195l174 -334l174 334h195v-668h-181v348z" />
    <glyph glyph-name="Omega" unicode="&#x2126;" horiz-adv-x="1523" 
d="M762 1458q157 0 286 -51t214 -141t131.5 -213t46.5 -267q0 -164 -68.5 -299t-185.5 -219h237v-268h-573v260q258 186 258 483q0 193 -91.5 318t-254.5 125t-254.5 -125t-91.5 -318q0 -297 258 -483v-260h-574v268h238q-117 84 -185.5 219t-68.5 299q0 144 46.5 267
t131.5 213t214 141t286 51z" />
    <glyph glyph-name="estimated" unicode="&#x212e;" horiz-adv-x="1505" 
d="M819 90q110 0 213 35t178 98l99 -84q-204 -164 -490 -164q-190 0 -334 56.5t-230 158.5t-128.5 234t-42.5 293q0 152 46 286t131 235.5t215.5 160.5t289.5 59q153 0 278 -58.5t207 -161t126 -238.5t44 -293v-56h-960v-458q134 -103 358 -103zM758 1339q-175 0 -297 -98
v-471h594v473q-120 96 -297 96z" />
    <glyph glyph-name="onethird" unicode="&#x2153;" horiz-adv-x="2148" 
d="M1378 1464l158 -86l-760 -1409l-158 86zM1669 168q62 0 97.5 32t35.5 83q0 63 -49 95t-133 32h-88v165h88q76 0 117 29.5t41 81.5q0 43 -25 67.5t-72 24.5q-86 0 -141 -69l-158 110q126 146 320 146q142 0 227.5 -70.5t85.5 -189.5q0 -71 -38.5 -127t-104.5 -84
q74 -28 120 -86.5t46 -141.5q0 -123 -95 -202.5t-260 -79.5q-108 0 -194.5 41t-140.5 116l159 111q29 -40 72 -62t90 -22zM391 1182l-135 -99l-127 136l289 217h205v-951h-232v697z" />
    <glyph glyph-name="twothirds" unicode="&#x2154;" horiz-adv-x="2148" 
d="M1378 1464l158 -86l-760 -1409l-158 86zM1669 168q62 0 97.5 32t35.5 83q0 63 -49 95t-133 32h-88v165h88q76 0 117 29.5t41 81.5q0 43 -25 67.5t-72 24.5q-86 0 -141 -69l-158 110q126 146 320 146q142 0 227.5 -70.5t85.5 -189.5q0 -71 -38.5 -127t-104.5 -84
q74 -28 120 -86.5t46 -141.5q0 -123 -95 -202.5t-260 -79.5q-108 0 -194.5 41t-140.5 116l159 111q29 -40 72 -62t90 -22zM406 1249q-90 0 -162 -82l-164 117q134 166 352 166q150 0 236 -78t86 -209q0 -116 -83.5 -235t-230.5 -248h318v-195h-654v158q187 148 298.5 280.5
t111.5 225.5q0 45 -28 72.5t-80 27.5z" />
    <glyph glyph-name="onefifth" unicode="&#x2155;" horiz-adv-x="2148" 
d="M1378 1464l158 -86l-760 -1409l-158 86zM1491 399l-70 41v508h592v-190h-371v-164q52 12 107 12q136 0 222.5 -84.5t86.5 -224.5q0 -141 -97 -227t-267 -86q-205 0 -336 137l153 129q75 -72 177 -72q58 0 93.5 33.5t35.5 83.5q0 61 -44 95t-122 34q-83 0 -160 -25z
M391 1182l-135 -99l-127 136l289 217h205v-951h-232v697z" />
    <glyph glyph-name="twofifths" unicode="&#x2156;" horiz-adv-x="2148" 
d="M1378 1464l158 -86l-760 -1409l-158 86zM406 1249q-90 0 -162 -82l-164 117q134 166 352 166q150 0 236 -78t86 -209q0 -116 -83.5 -235t-230.5 -248h318v-195h-654v158q187 148 298.5 280.5t111.5 225.5q0 45 -28 72.5t-80 27.5zM1491 399l-70 41v508h592v-190h-371
v-164q52 12 107 12q136 0 222.5 -84.5t86.5 -224.5q0 -141 -97 -227t-267 -86q-205 0 -336 137l153 129q75 -72 177 -72q58 0 93.5 33.5t35.5 83.5q0 61 -44 95t-122 34q-83 0 -160 -25z" />
    <glyph glyph-name="threefifths" unicode="&#x2157;" horiz-adv-x="2148" 
d="M1378 1464l158 -86l-760 -1409l-158 86zM401 653q62 0 98 32t36 83q0 63 -49 95t-134 32h-88v166h88q76 0 117 29t41 81q0 43 -25 68t-71 25q-86 0 -142 -70l-157 111q125 145 319 145q142 0 228 -70.5t86 -189.5q0 -71 -39 -127t-105 -84q74 -28 120 -86t46 -141
q0 -123 -94.5 -203t-259.5 -80q-108 0 -195 41t-141 117l160 110q60 -84 161 -84zM1491 399l-70 41v508h592v-190h-371v-164q52 12 107 12q136 0 222.5 -84.5t86.5 -224.5q0 -141 -97 -227t-267 -86q-205 0 -336 137l153 129q75 -72 177 -72q58 0 93.5 33.5t35.5 83.5
q0 61 -44 95t-122 34q-83 0 -160 -25z" />
    <glyph glyph-name="fourfifths" unicode="&#x2158;" horiz-adv-x="2148" 
d="M1378 1464l158 -86l-760 -1409l-158 86zM483 668h-428v188l402 578h252v-570h106v-196h-106v-183h-226v183zM483 1139l-190 -275h190v275zM1491 399l-70 41v508h592v-190h-371v-164q52 12 107 12q136 0 222.5 -84.5t86.5 -224.5q0 -141 -97 -227t-267 -86
q-205 0 -336 137l153 129q75 -72 177 -72q58 0 93.5 33.5t35.5 83.5q0 61 -44 95t-122 34q-83 0 -160 -25z" />
    <glyph glyph-name="onesixth" unicode="&#x2159;" horiz-adv-x="2148" 
d="M1378 1464l158 -86l-760 -1409l-158 86zM1733 778q-61 0 -99.5 -53.5t-44.5 -157.5q80 66 185 66q133 0 216 -87t83 -235q0 -146 -96 -236.5t-255 -90.5q-172 0 -271 118t-99 336q0 265 102.5 396t276.5 131q206 0 311 -162l-158 -101q-59 76 -151 76zM1716 442
q-70 0 -129 -53q14 -211 131 -211q57 0 89 35.5t32 97.5q0 60 -33 95.5t-90 35.5zM391 1182l-135 -99l-127 136l289 217h205v-951h-232v697z" />
    <glyph glyph-name="fivesixths" unicode="&#x215a;" horiz-adv-x="2148" 
d="M1378 1464l158 -86l-760 -1409l-158 86zM1733 778q-61 0 -99.5 -53.5t-44.5 -157.5q80 66 185 66q133 0 216 -87t83 -235q0 -146 -96 -236.5t-255 -90.5q-172 0 -271 118t-99 336q0 265 102.5 396t276.5 131q206 0 311 -162l-158 -101q-59 76 -151 76zM1716 442
q-70 0 -129 -53q14 -211 131 -211q57 0 89 35.5t32 97.5q0 60 -33 95.5t-90 35.5zM223 885l-69 41v508h591v-191h-370v-164q57 13 106 13q136 0 223 -85t87 -225q0 -141 -97.5 -227t-267.5 -86q-205 0 -336 137l154 129q74 -71 176 -71q58 0 93.5 33t35.5 83q0 61 -44 95
t-122 34q-87 0 -160 -24z" />
    <glyph glyph-name="oneeighth" unicode="&#x215b;" horiz-adv-x="2148" 
d="M1378 1464l158 -86l-760 -1409l-158 86zM1348 272q0 143 133 228q-109 85 -109 202q0 121 88.5 192t235.5 71q149 0 239 -72.5t90 -192.5q0 -127 -108 -202q72 -43 108.5 -98t36.5 -134q0 -126 -96.5 -205t-257.5 -79q-162 0 -261 79t-99 211zM1581 274q0 -52 34.5 -81
t92.5 -29q54 0 88.5 26t34.5 66q0 47 -40 77t-144 77q-66 -54 -66 -136zM1802 688q0 46 -27 71t-79 25q-44 0 -70.5 -21.5t-26.5 -55.5q0 -35 20 -57t64 -44l68 -33q51 48 51 115zM391 1182l-135 -99l-127 136l289 217h205v-951h-232v697z" />
    <glyph glyph-name="threeeighths" unicode="&#x215c;" horiz-adv-x="2148" 
d="M1378 1464l158 -86l-760 -1409l-158 86zM401 653q62 0 98 32t36 83q0 63 -49 95t-134 32h-88v166h88q76 0 117 29t41 81q0 43 -25 68t-71 25q-86 0 -142 -70l-157 111q125 145 319 145q142 0 228 -70.5t86 -189.5q0 -71 -39 -127t-105 -84q74 -28 120 -86t46 -141
q0 -123 -94.5 -203t-259.5 -80q-108 0 -195 41t-141 117l160 110q60 -84 161 -84zM1348 272q0 143 133 228q-109 85 -109 202q0 121 88.5 192t235.5 71q149 0 239 -72.5t90 -192.5q0 -127 -108 -202q72 -43 108.5 -98t36.5 -134q0 -126 -96.5 -205t-257.5 -79
q-162 0 -261 79t-99 211zM1581 274q0 -52 34.5 -81t92.5 -29q54 0 88.5 26t34.5 66q0 47 -40 77t-144 77q-66 -54 -66 -136zM1802 688q0 46 -27 71t-79 25q-44 0 -70.5 -21.5t-26.5 -55.5q0 -35 20 -57t64 -44l68 -33q51 48 51 115z" />
    <glyph glyph-name="fiveeighths" unicode="&#x215d;" horiz-adv-x="2148" 
d="M1378 1464l158 -86l-760 -1409l-158 86zM223 885l-69 41v508h591v-191h-370v-164q57 13 106 13q136 0 223 -85t87 -225q0 -141 -97.5 -227t-267.5 -86q-205 0 -336 137l154 129q74 -71 176 -71q58 0 93.5 33t35.5 83q0 61 -44 95t-122 34q-87 0 -160 -24zM1348 272
q0 143 133 228q-109 85 -109 202q0 121 88.5 192t235.5 71q149 0 239 -72.5t90 -192.5q0 -127 -108 -202q72 -43 108.5 -98t36.5 -134q0 -126 -96.5 -205t-257.5 -79q-162 0 -261 79t-99 211zM1581 274q0 -52 34.5 -81t92.5 -29q54 0 88.5 26t34.5 66q0 47 -40 77t-144 77
q-66 -54 -66 -136zM1802 688q0 46 -27 71t-79 25q-44 0 -70.5 -21.5t-26.5 -55.5q0 -35 20 -57t64 -44l68 -33q51 48 51 115z" />
    <glyph glyph-name="seveneighths" unicode="&#x215e;" horiz-adv-x="2148" 
d="M1378 1464l158 -86l-760 -1409l-158 86zM770 1239l-324 -754h-258l324 748h-395v201h653v-195zM1348 272q0 143 133 228q-109 85 -109 202q0 121 88.5 192t235.5 71q149 0 239 -72.5t90 -192.5q0 -127 -108 -202q72 -43 108.5 -98t36.5 -134q0 -126 -96.5 -205
t-257.5 -79q-162 0 -261 79t-99 211zM1581 274q0 -52 34.5 -81t92.5 -29q54 0 88.5 26t34.5 66q0 47 -40 77t-144 77q-66 -54 -66 -136zM1802 688q0 46 -27 71t-79 25q-44 0 -70.5 -21.5t-26.5 -55.5q0 -35 20 -57t64 -44l68 -33q51 48 51 115z" />
    <glyph glyph-name="uni215F" unicode="&#x215f;" horiz-adv-x="2148" 
d="M1378 1464l158 -86l-760 -1409l-158 86zM391 1182l-135 -99l-127 136l289 217h205v-951h-232v697z" />
    <glyph glyph-name="arrowleft" unicode="&#x2190;" horiz-adv-x="1761" 
d="M1688 811v-264h-1192l77 -318l-499 451l499 448l-77 -317h1192z" />
    <glyph glyph-name="arrowup" unicode="&#x2191;" horiz-adv-x="1761" 
d="M1012 -78h-264v1190l-318 -78l451 502l448 -502l-317 78v-1190z" />
    <glyph glyph-name="arrowright" unicode="&#x2192;" horiz-adv-x="1761" 
d="M74 547v264h1190l-78 317l502 -448l-502 -451l78 318h-1190z" />
    <glyph glyph-name="arrowdown" unicode="&#x2193;" horiz-adv-x="1761" 
d="M748 1536h264v-1192l317 78l-448 -500l-451 500l318 -78v1192z" />
    <glyph glyph-name="arrowboth" unicode="&#x2194;" horiz-adv-x="1761" 
d="M1264 547h-768l77 -318l-499 451l499 448l-77 -317h768l-78 317l502 -448l-502 -451z" />
    <glyph glyph-name="arrowupdn" unicode="&#x2195;" horiz-adv-x="1761" 
d="M1012 1112v-768l317 78l-448 -500l-451 500l318 -78v768l-318 -78l451 500l448 -500z" />
    <glyph glyph-name="arrowupdnbse" unicode="&#x21a8;" horiz-adv-x="1761" 
d="M946 -6h363v-174h-858v174h362l-383 428l318 -78v768l-318 -78l451 500l448 -500l-317 78v-768l317 78z" />
    <glyph glyph-name="partialdiff" unicode="&#x2202;" horiz-adv-x="1243" 
d="M528 930q84 0 161.5 -29.5t131.5 -83.5q-13 207 -81 301t-177 94q-141 0 -229 -120l-207 135q79 111 195.5 171t261.5 60q128 0 229.5 -45t177 -136t116 -238.5t40.5 -342.5q0 -360 -148 -540.5t-413 -180.5q-223 0 -366.5 134t-143.5 360q0 203 125 332t327 129z
M598 238q205 0 223 335q-95 95 -223 95q-97 0 -151 -57t-54 -158q0 -102 54 -158.5t151 -56.5z" />
    <glyph glyph-name="Delta" unicode="&#x2206;" horiz-adv-x="1394" 
d="M639 1446h117l600 -1362l-56 -84h-1208l-55 84zM416 262h563l-283 676z" />
    <glyph glyph-name="product" unicode="&#x220f;" horiz-adv-x="1507" 
d="M1356 1516v-1743h-326v1472h-553v-1472h-325v1743h1204z" />
    <glyph glyph-name="summation" unicode="&#x2211;" horiz-adv-x="1271" 
d="M76 20l411 654l-411 590v252h1138v-259h-776l367 -540v-88l-363 -598h772v-258h-1138v247z" />
    <glyph glyph-name="minus" unicode="&#x2212;" horiz-adv-x="1261" 
d="M1149 569h-1036v219h1036v-219z" />
    <glyph glyph-name="uni2215" unicode="&#x2215;" horiz-adv-x="417" 
d="M510 1464l158 -86l-760 -1409l-158 86z" />
    <glyph glyph-name="uni2219" unicode="&#x2219;" horiz-adv-x="643" 
d="M156 680q0 70 48.5 119t117.5 49t117 -49t48 -119t-48 -119t-117 -49t-117.5 49t-48.5 119z" />
    <glyph glyph-name="radical" unicode="&#x221a;" horiz-adv-x="1314" 
d="M838 0h-174l-328 596h-148v176h283l236 -424l307 1229h229z" />
    <glyph glyph-name="infinity" unicode="&#x221e;" horiz-adv-x="1630" 
d="M696 676q-66 68 -119 95.5t-108 27.5q-58 0 -88.5 -33t-30.5 -90t30.5 -90t88.5 -33q55 0 108 27.5t119 95.5zM815 821q167 170 363 170q157 0 248.5 -87.5t91.5 -227.5q0 -141 -91.5 -228.5t-248.5 -87.5q-196 0 -363 170q-167 -170 -362 -170q-157 0 -248.5 87.5
t-91.5 228.5q0 140 91.5 227.5t248.5 87.5q195 0 362 -170zM934 676q66 -68 119 -95.5t108 -27.5q58 0 88.5 33t30.5 90t-30.5 90t-88.5 33q-55 0 -108 -27.5t-119 -95.5z" />
    <glyph glyph-name="orthogonal" unicode="&#x221f;" horiz-adv-x="1351" 
d="M1315 242v-242h-1127v1178h312v-936h815z" />
    <glyph glyph-name="intersection" unicode="&#x2229;" horiz-adv-x="1591" 
d="M797 1264q150 0 267 -49.5t190.5 -139t111 -210.5t37.5 -269v-596h-303v506q0 258 -73.5 385t-229.5 127q-158 0 -230.5 -126.5t-72.5 -385.5v-506h-306v596q0 148 38 269t111.5 210.5t191 139t268.5 49.5z" />
    <glyph glyph-name="integral" unicode="&#x222b;" horiz-adv-x="913" 
d="M209 -451q-95 0 -180 9v229q74 -4 112 -4q89 0 124.5 33t35.5 106v1254q0 186 98.5 273t305.5 87q104 0 180 -8v-230q-92 5 -113 5q-89 0 -124.5 -33.5t-35.5 -106.5v-1253q0 -186 -98 -273.5t-305 -87.5z" />
    <glyph glyph-name="approxequal" unicode="&#x2248;" horiz-adv-x="1261" 
d="M930 635l254 -41q-22 -148 -112 -236t-220 -88q-119 0 -242 72q-54 31 -85 42t-72 11q-96 0 -123 -106l-254 41q22 148 112 235.5t220 87.5q119 0 241 -71q54 -32 86 -43t72 -11q96 0 123 107zM930 1073l254 -41q-22 -148 -112 -235.5t-220 -87.5q-120 0 -242 71
q-54 32 -85.5 43t-71.5 11q-96 0 -123 -107l-254 41q22 148 112 236t220 88q118 0 241 -72q53 -31 85 -42t73 -11q96 0 123 106z" />
    <glyph glyph-name="notequal" unicode="&#x2260;" horiz-adv-x="1261" 
d="M334 16l-135 80l135 234h-221v219h350l151 260h-501v219h632l183 313l135 -79l-135 -234h221v-219h-352l-152 -260h504v-219h-633z" />
    <glyph glyph-name="equivalence" unicode="&#x2261;" horiz-adv-x="1261" 
d="M1149 940h-1036v221h1036v-221zM1149 569h-1036v219h1036v-219zM1149 197h-1036v221h1036v-221z" />
    <glyph glyph-name="lessequal" unicode="&#x2264;" horiz-adv-x="1261" 
d="M1149 0h-1036v219h1036v-219zM1069 297l-956 377v233l956 377l78 -223l-694 -270l694 -271z" />
    <glyph glyph-name="greaterequal" unicode="&#x2265;" horiz-adv-x="1261" 
d="M113 0h1036v219h-1036v-219zM1149 674l-956 -377l-78 223l694 271l-694 270l78 223l956 -377v-233z" />
    <glyph glyph-name="house" unicode="&#x2302;" horiz-adv-x="1433" 
d="M1245 0h-1057v672l529 592l528 -592v-672zM444 188h545v406l-272 311l-273 -311v-406z" />
    <glyph glyph-name="revlogicalnot" unicode="&#x2310;" horiz-adv-x="1261" 
d="M1159 922v-220h-772v-380h-264v600h1036z" />
    <glyph glyph-name="uni2318" unicode="&#x2318;" horiz-adv-x="1884" 
d="M545 963h69v73q0 129 -102 129q-44 0 -71 -28t-27 -70q0 -104 131 -104zM1270 776v-207h82q153 0 248.5 -75t95.5 -213q0 -128 -86 -210.5t-236 -82.5q-152 0 -236.5 87t-84.5 232v74h-222v-74q0 -145 -84.5 -232t-236.5 -87q-150 0 -236 82.5t-86 210.5q0 138 95.5 213
t248.5 75h82v207h-82q-153 0 -248.5 75.5t-95.5 213.5q0 128 86 210.5t236 82.5q152 0 236.5 -87t84.5 -233v-73h222v73q0 146 84.5 233t236.5 87q150 0 236 -82.5t86 -210.5q0 -138 -95.5 -213.5t-248.5 -75.5h-82zM831 776v-207h222v207h-222zM1270 963h69q131 0 131 104
q0 42 -27 70t-71 28q-102 0 -102 -129v-73zM614 383h-69q-131 0 -131 -104q0 -42 27.5 -70.5t70.5 -28.5q102 0 102 129v74zM1339 383h-69v-74q0 -129 102 -129q43 0 70.5 28.5t27.5 70.5q0 104 -131 104z" />
    <glyph glyph-name="lozenge" unicode="&#x25ca;" horiz-adv-x="1138" 
d="M569 1559l500 -941l-500 -940l-499 940zM569 1133l-266 -515l266 -516l267 516z" />
    <glyph glyph-name="H18533" unicode="&#x25cf;" horiz-adv-x="2048" 
d="M332 668q0 187 93 346.5t252.5 252.5t346.5 93t346.5 -93t252.5 -252.5t93 -346.5t-93 -347t-252.5 -253t-346.5 -93t-346.5 93t-252.5 253t-93 347z" />
    <glyph glyph-name="fi" horiz-adv-x="1359" 
d="M614 1495q111 0 150 -6v-232q-67 5 -92 5q-82 0 -116 -33.5t-34 -106.5v-61h695v-1061h-312v821h-383v-821h-311v821h-182v240h182v74q0 187 96.5 273.5t306.5 86.5zM1245 1348q0 -76 -53.5 -128.5t-130.5 -52.5t-130.5 52.5t-53.5 128.5t53.5 128t130.5 52t130.5 -52
t53.5 -128z" />
    <glyph glyph-name="fl" horiz-adv-x="1343" 
d="M598 1495q149 0 293 -41v41h311v-1495h-311v1241q-119 21 -219 21q-82 0 -116 -33.5t-34 -106.5v-61h246v-240h-246v-821h-311v821h-182v240h182v74q0 187 91.5 273.5t295.5 86.5z" />
    <glyph glyph-name="commaaccent" horiz-adv-x="798" 
d="M238 -500l118 414l205 -70l-160 -401z" />
    <glyph glyph-name="zero.tnum" horiz-adv-x="1286" 
d="M1196 717q0 -221 -60 -385.5t-186 -260.5t-307 -96t-307 96t-186 260.5t-60 385.5q0 164 34.5 299t102 234t174 153.5t242.5 54.5t242.5 -54.5t174 -153.5t102 -234t34.5 -299zM866 717q0 469 -223 469t-223 -469t223 -469t223 469z" />
    <glyph glyph-name="one.tnum" horiz-adv-x="970" 
d="M430 0v1073l-235 -170l-179 197l451 334h281v-1434h-318z" />
    <glyph glyph-name="two.tnum" horiz-adv-x="1175" 
d="M573 1458q228 0 360 -115.5t132 -324.5q0 -98 -43 -202t-118.5 -201t-162 -181.5t-190.5 -165.5h534v-268h-987v240q101 81 179.5 148t168.5 155t149 162t98.5 154t39.5 147q0 77 -46.5 123.5t-127.5 46.5q-165 0 -285 -142l-223 156q91 125 228 196.5t294 71.5z" />
    <glyph glyph-name="three.tnum" horiz-adv-x="1189" 
d="M573 1458q214 0 345 -103.5t131 -277.5q0 -120 -64 -206.5t-162 -122.5q131 -42 203 -130.5t72 -220.5q0 -185 -143 -303.5t-390 -118.5q-169 0 -308 62t-232 172l208 170q128 -143 302 -143q106 0 168.5 48t62.5 132q0 101 -73 150.5t-197 49.5h-146v248h142
q106 0 170.5 47t64.5 129q0 72 -49 114t-137 42q-75 0 -145 -33.5t-124 -93.5l-206 166q96 108 227.5 165.5t279.5 57.5z" />
    <glyph glyph-name="four.tnum" horiz-adv-x="1230" 
d="M700 268h-657v236l670 930h297v-918h180v-248h-180v-268h-310v268zM700 975l-331 -459h331v459z" />
    <glyph glyph-name="five.tnum" horiz-adv-x="1218" 
d="M266 623l-82 51v760h869v-258h-557v-277q73 21 172 21q126 0 229.5 -55t167 -163.5t63.5 -252.5q0 -207 -141.5 -340.5t-388.5 -133.5q-163 0 -296.5 61.5t-221.5 176.5l213 166q118 -141 280 -141q99 0 162.5 60t63.5 151q0 104 -72.5 162.5t-194.5 58.5
q-136 0 -266 -47z" />
    <glyph glyph-name="six.tnum" horiz-adv-x="1251" 
d="M672 1196q-228 0 -252 -356q126 104 293 104q204 0 331 -132.5t127 -352.5q0 -217 -142.5 -350.5t-375.5 -133.5q-266 0 -412.5 174t-146.5 529q0 392 146 586t413 194q146 0 263.5 -60.5t195.5 -176.5l-221 -140q-83 115 -219 115zM637 686q-123 0 -221 -92
q7 -192 66.5 -274t162.5 -82q99 0 153 59.5t54 165.5q0 104 -55.5 163.5t-159.5 59.5z" />
    <glyph glyph-name="seven.tnum" horiz-adv-x="1150" 
d="M1079 1171l-520 -1171h-348l520 1165h-659v269h1007v-263z" />
    <glyph glyph-name="eight.tnum" horiz-adv-x="1286" 
d="M152 1061q0 177 132.5 287t354.5 110q225 0 360.5 -110t135.5 -277q0 -99 -46.5 -183t-132.5 -136q238 -129 238 -355q0 -189 -149.5 -304.5t-401.5 -115.5q-250 0 -400.5 115t-150.5 309q0 114 57 207.5t164 151.5q-161 127 -161 301zM420 410q0 -85 63 -135t164 -50
q99 0 160 42.5t61 113.5q0 76 -67 128.5t-258 123.5q-59 -39 -91 -97.5t-32 -125.5zM823 1042q0 75 -48 120.5t-130 45.5t-129 -40.5t-47 -104.5q0 -58 55.5 -103.5t198.5 -101.5q100 69 100 184z" />
    <glyph glyph-name="nine.tnum" horiz-adv-x="1251" 
d="M555 238q244 0 274 352q-127 -101 -290 -101q-204 0 -331.5 132.5t-127.5 351.5q0 218 142.5 351.5t377.5 133.5q262 0 409.5 -173t147.5 -521q0 -200 -43 -352.5t-122.5 -247t-187.5 -142t-243 -47.5q-261 0 -432 168l193 187q103 -92 233 -92zM614 748q124 0 220 90
q-3 101 -21 172t-49.5 111t-70 57.5t-87.5 17.5q-99 0 -153 -59.5t-54 -165.5t55.5 -164.5t159.5 -58.5z" />
    <glyph glyph-name="parenleft.case" horiz-adv-x="802" 
d="M188 717q0 254 84.5 487.5t243.5 427.5l201 -98q-252 -375 -252 -817t252 -817l-201 -99q-158 194 -243 428t-85 488z" />
    <glyph glyph-name="parenright.case" horiz-adv-x="802" 
d="M614 717q0 -254 -84.5 -488t-242.5 -428l-201 99q252 375 252 817t-252 817l201 98q158 -194 242.5 -427.5t84.5 -487.5z" />
    <glyph glyph-name="hyphen.case" horiz-adv-x="827" 
d="M715 596h-602v240h602v-240z" />
    <glyph glyph-name="at.case" horiz-adv-x="1988" 
d="M518 711q0 207 102 331.5t289 124.5q147 0 256 -106v82h267v-576q0 -135 104 -135q158 0 158 324q0 153 -53.5 286.5t-146.5 228t-222.5 148.5t-276.5 54q-145 0 -273.5 -54.5t-222.5 -151.5t-149 -239.5t-55 -310.5q0 -167 54.5 -309t148 -239.5t222.5 -152.5t275 -55
q126 0 245.5 39.5t207.5 112.5l86 -119q-105 -83 -247 -128.5t-292 -45.5q-190 0 -352 70t-273 191t-173 285.5t-62 350.5t62 350.5t172.5 285.5t272.5 191t353 70q192 0 354.5 -68.5t272 -185.5t170.5 -274t61 -332q0 -222 -98 -357t-287 -135q-197 0 -272 129
q-52 -64 -130 -100.5t-157 -36.5q-188 0 -289.5 124.5t-101.5 332.5zM973 449q106 0 192 92v338q-88 94 -192 94q-103 0 -146 -67t-43 -195t43 -195t146 -67z" />
    <glyph glyph-name="bracketleft.case" 
d="M227 -184v1802h617v-211h-342v-1380h342v-211h-617z" />
    <glyph glyph-name="bracketright.case" 
d="M653 1618v-1802h-616v211h342v1380h-342v211h616z" />
    <glyph glyph-name="braceleft.case" horiz-adv-x="849" 
d="M311 94v312q0 95 -54.5 149.5t-139.5 54.5v211q85 0 139.5 55t54.5 150v240q0 191 81.5 271.5t258.5 80.5h162v-213h-141q-86 0 -86 -90v-275q0 -136 -46.5 -214t-162.5 -109q117 -31 163 -109t46 -215v-276q0 -88 86 -88h141v-213h-162q-166 0 -253 64.5t-87 213.5z" />
    <glyph glyph-name="braceright.case" horiz-adv-x="849" 
d="M539 406v-312q0 -149 -87 -213.5t-253 -64.5h-162v213h141q86 0 86 88v276q0 137 46 215t163 109q-116 31 -162.5 109t-46.5 214v275q0 90 -86 90h-141v213h162q177 0 258.5 -80.5t81.5 -271.5v-240q0 -95 54.5 -150t139.5 -55v-211q-85 0 -139.5 -54.5t-54.5 -149.5z
" />
    <glyph glyph-name="exclamdown.case" horiz-adv-x="643" 
d="M489 0h-335v348l47 686h241l47 -686v-348zM322 1458q69 0 117 -49t48 -119t-48 -119t-117 -49t-117.5 49t-48.5 119t48.5 119t117.5 49z" />
    <glyph glyph-name="guillemotleft.case" horiz-adv-x="1251" 
d="M94 659v115l443 324l116 -156l-319 -225l319 -225l-116 -156zM598 659v115l442 324l117 -156l-317 -225l317 -225l-117 -156z" />
    <glyph glyph-name="periodcentered.case" horiz-adv-x="643" 
d="M156 717q0 70 48.5 119t117.5 49t117 -49t48 -119t-48 -119t-117 -49t-117.5 49t-48.5 119z" />
    <glyph glyph-name="guillemotright.case" horiz-adv-x="1251" 
d="M1157 774v-115l-442 -323l-117 156l320 225l-320 225l117 156zM653 774v-115l-442 -323l-117 156l318 225l-318 225l117 156z" />
    <glyph glyph-name="questiondown.case" horiz-adv-x="1146" 
d="M588 -27q-211 0 -334 100.5t-123 276.5q0 119 56.5 212.5t179.5 180.5q64 44 87 88.5t23 118.5v82h324v-110q0 -116 -45.5 -200t-151.5 -153q-78 -52 -110.5 -97.5t-32.5 -100.5q0 -60 40.5 -92.5t116.5 -32.5q64 0 126 32t106 84l213 -169q-190 -220 -475 -220z
M639 1456q69 0 117.5 -49t48.5 -119t-48.5 -119t-117.5 -49t-117.5 49t-48.5 119t48.5 119t117.5 49z" />
    <glyph glyph-name="endash.case" horiz-adv-x="1024" 
d="M1024 606h-1024v219h1024v-219z" />
    <glyph glyph-name="emdash.case" horiz-adv-x="2048" 
d="M2048 606h-2048v219h2048v-219z" />
    <glyph glyph-name="bullet.case" horiz-adv-x="919" 
d="M176 715q0 128 78.5 208.5t206.5 80.5q127 0 204.5 -80.5t77.5 -208.5t-77.5 -207.5t-204.5 -79.5q-128 0 -206.5 79.5t-78.5 207.5z" />
    <glyph glyph-name="guilsinglleft.case" horiz-adv-x="747" 
d="M94 659v115l443 324l116 -156l-317 -225l317 -225l-116 -156z" />
    <glyph glyph-name="guilsinglright.case" horiz-adv-x="747" 
d="M653 774v-115l-442 -323l-117 156l318 225l-318 225l117 156z" />
    <glyph glyph-name="zero.numerator" 
d="M819 961q0 -225 -98.5 -357.5t-280.5 -132.5t-280.5 132.5t-98.5 357.5t98.5 357t280.5 132t280.5 -132t98.5 -357zM303 961q0 -289 137 -289q138 0 138 289q0 288 -138 288q-137 0 -137 -288z" />
    <glyph glyph-name="one.numerator" 
d="M391 1182l-135 -99l-127 136l289 217h205v-951h-232v697z" />
    <glyph glyph-name="two.numerator" 
d="M406 1249q-90 0 -162 -82l-164 117q134 166 352 166q150 0 236 -78t86 -209q0 -116 -83.5 -235t-230.5 -248h318v-195h-654v158q187 148 298.5 280.5t111.5 225.5q0 45 -28 72.5t-80 27.5z" />
    <glyph glyph-name="three.numerator" 
d="M401 653q62 0 98 32t36 83q0 63 -49 95t-134 32h-88v166h88q76 0 117 29t41 81q0 43 -25 68t-71 25q-86 0 -142 -70l-157 111q125 145 319 145q142 0 228 -70.5t86 -189.5q0 -71 -39 -127t-105 -84q74 -28 120 -86t46 -141q0 -123 -94.5 -203t-259.5 -80q-108 0 -195 41
t-141 117l160 110q60 -84 161 -84z" />
    <glyph glyph-name="four.numerator" 
d="M483 668h-428v188l402 578h252v-570h106v-196h-106v-183h-226v183zM483 1139l-190 -275h190v275z" />
    <glyph glyph-name="five.numerator" 
d="M223 885l-69 41v508h591v-191h-370v-164q57 13 106 13q136 0 223 -85t87 -225q0 -141 -97.5 -227t-267.5 -86q-205 0 -336 137l154 129q74 -71 176 -71q58 0 93.5 33t35.5 83q0 61 -44 95t-122 34q-87 0 -160 -24z" />
    <glyph glyph-name="six.numerator" 
d="M465 1264q-61 0 -99 -53.5t-44 -157.5q78 65 184 65q133 0 216 -86.5t83 -234.5q0 -146 -95.5 -237t-254.5 -91q-172 0 -271.5 118.5t-99.5 336.5q0 265 102.5 395.5t276.5 130.5q206 0 311 -162l-158 -100q-59 76 -151 76zM449 928q-70 0 -130 -54q13 -210 132 -210
q57 0 88.5 35.5t31.5 97.5q0 60 -32.5 95.5t-89.5 35.5z" />
    <glyph glyph-name="seven.numerator" 
d="M770 1239l-324 -754h-258l324 748h-395v201h653v-195z" />
    <glyph glyph-name="eight.numerator" 
d="M80 758q0 142 133 227q-109 85 -109 203q0 121 88.5 191.5t235.5 70.5q149 0 239.5 -72t90.5 -192q0 -61 -29 -114t-80 -89q73 -44 109.5 -98.5t36.5 -132.5q0 -126 -97 -205.5t-258 -79.5q-162 0 -261 79.5t-99 211.5zM313 760q0 -52 34.5 -81.5t92.5 -29.5
q54 0 88.5 26t34.5 66q0 47 -40 77t-144 77q-66 -54 -66 -135zM535 1174q0 46 -27.5 71t-79.5 25q-44 0 -70 -22t-26 -56t20 -56t64 -44l67 -33q52 49 52 115z" />
    <glyph glyph-name="nine.numerator" 
d="M410 655q133 0 147 201q-69 -57 -172 -57q-134 0 -221.5 87t-87.5 234t95.5 238.5t254.5 91.5q171 0 271 -119.5t100 -337.5q0 -268 -101 -396t-280 -128q-184 0 -297 119l135 131q64 -64 156 -64zM432 991q73 0 127 51q-11 213 -129 213q-57 0 -89 -36t-32 -99
q0 -60 33 -94.5t90 -34.5z" />
    <glyph glyph-name="zero.denominator" 
d="M819 475q0 -225 -98.5 -357t-280.5 -132t-280.5 132t-98.5 357t98.5 357.5t280.5 132.5t280.5 -132.5t98.5 -357.5zM303 475q0 -289 137 -289q138 0 138 289t-138 289q-137 0 -137 -289z" />
    <glyph glyph-name="one.denominator" 
d="M391 696l-135 -98l-127 135l289 217h205v-950h-232v696z" />
    <glyph glyph-name="two.denominator" 
d="M406 764q-90 0 -162 -82l-164 117q134 166 352 166q150 0 236 -78t86 -209q0 -116 -83.5 -235t-230.5 -248h318v-195h-654v158q187 148 298.5 280.5t111.5 225.5q0 45 -28 72.5t-80 27.5z" />
    <glyph glyph-name="three.denominator" 
d="M401 168q62 0 98 32t36 83q0 63 -49 95t-134 32h-88v165h88q76 0 117 29.5t41 81.5q0 43 -24.5 67.5t-71.5 24.5q-87 0 -142 -69l-157 110q126 146 319 146q142 0 228 -70.5t86 -189.5q0 -71 -39 -127t-105 -84q74 -28 120 -86.5t46 -141.5q0 -123 -94.5 -202.5
t-259.5 -79.5q-108 0 -195 41t-141 116l160 111q60 -84 161 -84z" />
    <glyph glyph-name="four.denominator" 
d="M483 182h-428v189l402 577h252v-569h106v-197h-106v-182h-226v182zM483 653l-190 -274h190v274z" />
    <glyph glyph-name="five.denominator" 
d="M223 399l-69 41v508h591v-190h-370v-164q53 12 106 12q136 0 223 -84.5t87 -224.5q0 -141 -97.5 -227t-267.5 -86q-205 0 -336 137l154 129q75 -72 176 -72q58 0 93.5 33.5t35.5 83.5q0 61 -44 95t-122 34q-83 0 -160 -25z" />
    <glyph glyph-name="six.denominator" 
d="M465 778q-61 0 -99 -53.5t-44 -157.5q80 66 184 66q133 0 216 -87t83 -235q0 -146 -95.5 -236.5t-254.5 -90.5q-172 0 -271.5 118t-99.5 336q0 265 102.5 396t276.5 131q206 0 311 -162l-158 -101q-59 76 -151 76zM449 442q-71 0 -130 -53q14 -211 132 -211
q57 0 88.5 35.5t31.5 97.5q0 60 -32.5 95.5t-89.5 35.5z" />
    <glyph glyph-name="seven.denominator" 
d="M770 754l-324 -754h-258l324 748h-395v200h653v-194z" />
    <glyph glyph-name="eight.denominator" 
d="M80 272q0 143 133 228q-109 85 -109 202q0 121 88.5 192t235.5 71q149 0 239.5 -72.5t90.5 -192.5q0 -61 -29 -113.5t-80 -88.5q73 -43 109.5 -98.5t36.5 -133.5q0 -126 -97 -205t-258 -79q-162 0 -261 79t-99 211zM313 274q0 -52 34.5 -81t92.5 -29q54 0 88.5 26
t34.5 66q0 47 -40 77t-144 77q-66 -54 -66 -136zM535 688q0 46 -27.5 71t-79.5 25q-44 0 -70 -21.5t-26 -55.5q0 -35 20 -57t64 -44l67 -33q52 49 52 115z" />
    <glyph glyph-name="nine.denominator" 
d="M410 170q133 0 147 201q-70 -58 -172 -58q-134 0 -221.5 87.5t-87.5 234.5t95.5 238.5t254.5 91.5q171 0 271 -119.5t100 -337.5q0 -268 -101 -396t-280 -128q-185 0 -297 118l135 131q63 -63 156 -63zM432 506q73 0 127 51q-11 213 -129 213q-57 0 -89 -36t-32 -99
q0 -60 33 -94.5t90 -34.5z" />
    </font>
</defs>
</svg>
